<?xml version="1.0" encoding="UTF-8" standalone="no"?>
<!DOCTYPE svg PUBLIC "-//W3C//DTD SVG 1.1//EN" "http://www.w3.org/Graphics/SVG/1.1/DTD/svg11.dtd">
<!-- Generated by Microsoft Visio, SVG Export NAT1.svg NAT I -->
<svg xmlns="http://www.w3.org/2000/svg" xmlns:xlink="http://www.w3.org/1999/xlink" xmlns:ev="http://www.w3.org/2001/xml-events"
		width="7.82538in" height="6.34773in" viewBox="0 0 563.427 457.036" xml:space="preserve" color-interpolation-filters="sRGB"
		class="st16">
	<style type="text/css">
	<![CDATA[
		.st1 {fill:#ddd6e5;stroke:#000000;stroke-linecap:round;stroke-linejoin:round;stroke-width:0.75}
		.st2 {fill:#000000}
		.st3 {fill:#f2f2f2;stroke:#000000;stroke-linecap:round;stroke-linejoin:round;stroke-width:0.75}
		.st4 {stroke:#000000;stroke-linecap:round;stroke-linejoin:round;stroke-width:0.75;visibility:hidden}
		.st5 {stroke:#000000;stroke-linecap:round;stroke-linejoin:round;stroke-width:0.75}
		.st6 {stroke:#ff0000;stroke-dasharray:0.75,1.5;stroke-linecap:round;stroke-linejoin:round;stroke-width:0.75}
		.st7 {fill:#ebf1df}
		.st8 {fill:none;stroke:none;stroke-linecap:round;stroke-linejoin:round;stroke-width:0.75}
		.st9 {fill:#000000;font-family:Calibri;font-size:0.666664em}
		.st10 {font-size:1em}
		.st11 {fill:#000000;font-family:Calibri;font-size:0.499992em}
		.st12 {fill:#dbeef3;stroke:#000000;stroke-linecap:round;stroke-linejoin:round;stroke-width:0.75}
		.st13 {fill:#fcebdd;stroke:#000000;stroke-linecap:round;stroke-linejoin:round;stroke-width:0.24}
		.st14 {fill:#ffffff}
		.st15 {fill:#000000;font-family:Calibri;font-size:0.833336em}
		.st16 {fill:none;fill-rule:evenodd;font-size:12px;overflow:visible;stroke-linecap:square;stroke-miterlimit:3}
	]]>
	</style>

	<g>
		<g id="group52-1" transform="translate(291.068,-147.351)">
			<g id="shape53-2" transform="translate(0,-23.9715)">
				<path d="M65.4 457.04 L66.82 454.2 L4.05 454.2 L5.46 457.04 L65.4 457.04 ZM0 452.85 L70.87 452.85 L70.87 434.11 L0
							 434.11 L0 452.85 Z" class="st1"/>
			</g>
			<g id="shape54-4" transform="translate(54.6669,-31.7016)">
				<rect x="0" y="445.504" width="12.1507" height="11.532" class="st1"/>
			</g>
			<g id="shape55-6" transform="translate(5.61827,-32.827)">
				<path d="M4.98 453.4 L0 453.4 L0 455.79 L1.3 455.79 L1.3 457.04 L3.69 457.04 L3.69 455.79 L4.98 455.79 L4.98 453.4
							 ZM12.99 453.4 L8.01 453.4 L8.01 455.79 L9.3 455.79 L9.3 457.04 L11.7 457.04 L11.7 455.79 L12.99 455.79
							 L12.99 453.4 ZM21 453.4 L16.02 453.4 L16.02 455.79 L17.31 455.79 L17.31 457.04 L19.7 457.04 L19.7 455.79
							 L21 455.79 L21 453.4 ZM29.01 453.4 L24.02 453.4 L24.02 455.79 L25.32 455.79 L25.32 457.04 L27.71 457.04
							 L27.71 455.79 L29.01 455.79 L29.01 453.4 ZM37.02 453.4 L32.03 453.4 L32.03 455.79 L33.33 455.79 L33.33
							 457.04 L35.72 457.04 L35.72 455.79 L37.02 455.79 L37.02 453.4 ZM37.02 447.62 L32.03 447.62 L32.03 450.02
							 L33.33 450.02 L33.33 451.26 L35.72 451.26 L35.72 450.02 L37.02 450.02 L37.02 447.62 ZM29.01 447.62 L24.02
							 447.62 L24.02 450.02 L25.32 450.02 L25.32 451.26 L27.71 451.26 L27.71 450.02 L29.01 450.02 L29.01 447.62
							 ZM21 447.62 L16.02 447.62 L16.02 450.02 L17.31 450.02 L17.31 451.26 L19.7 451.26 L19.7 450.02 L21 450.02
							 L21 447.62 ZM12.99 447.62 L8.01 447.62 L8.01 450.02 L9.3 450.02 L9.3 451.26 L11.7 451.26 L11.7 450.02
							 L12.99 450.02 L12.99 447.62 ZM4.98 447.62 L0 447.62 L0 450.02 L1.3 450.02 L1.3 451.26 L3.69 451.26 L3.69
							 450.02 L4.98 450.02 L4.98 447.62 Z" class="st2"/>
			</g>
			<g id="shape56-9" transform="translate(55.6646,-33.6193)">
				<path d="M5.63 452.92 L7.14 450.97 L8.86 450.96 L7.97 451.84 L9 451.84 L10.16 450.59 L9.01 449.34 L7.96 449.34 L8.85
							 450.21 L6.61 450.21 L5.08 452.2 L3.55 450.21 L1.31 450.21 L2.19 449.34 L1.15 449.34 L0 450.59 L1.15
							 451.84 L2.19 451.84 L1.3 450.96 L3.01 450.97 L4.52 452.92 L2.6 455.41 L1.3 455.41 L2.19 454.53 L1.15
							 454.53 L0 455.78 L1.15 457.04 L2.19 457.04 L1.31 456.16 L3.14 456.16 L5.08 453.64 L7.02 456.16 L8.85
							 456.16 L7.96 457.04 L9.01 457.04 L10.16 455.78 L9 454.53 L7.97 454.53 L8.86 455.41 L7.55 455.41 L5.63
							 452.92 Z" class="st2"/>
			</g>
		</g>
		<g id="group10-12" transform="translate(209.714,-196.958)">
			<g id="shape11-13" transform="translate(0,-23.9715)">
				<path d="M65.4 457.04 L66.82 454.2 L4.05 454.2 L5.46 457.04 L65.4 457.04 ZM0 452.85 L70.87 452.85 L70.87 434.11 L0
							 434.11 L0 452.85 Z" class="st1"/>
			</g>
			<g id="shape12-15" transform="translate(54.6669,-31.7016)">
				<rect x="0" y="445.504" width="12.1507" height="11.532" class="st1"/>
			</g>
			<g id="shape13-17" transform="translate(5.61827,-32.827)">
				<path d="M4.98 453.4 L0 453.4 L0 455.79 L1.3 455.79 L1.3 457.04 L3.69 457.04 L3.69 455.79 L4.98 455.79 L4.98 453.4
							 ZM12.99 453.4 L8.01 453.4 L8.01 455.79 L9.3 455.79 L9.3 457.04 L11.7 457.04 L11.7 455.79 L12.99 455.79
							 L12.99 453.4 ZM21 453.4 L16.02 453.4 L16.02 455.79 L17.31 455.79 L17.31 457.04 L19.7 457.04 L19.7 455.79
							 L21 455.79 L21 453.4 ZM29.01 453.4 L24.02 453.4 L24.02 455.79 L25.32 455.79 L25.32 457.04 L27.71 457.04
							 L27.71 455.79 L29.01 455.79 L29.01 453.4 ZM37.02 453.4 L32.03 453.4 L32.03 455.79 L33.33 455.79 L33.33
							 457.04 L35.72 457.04 L35.72 455.79 L37.02 455.79 L37.02 453.4 ZM37.02 447.62 L32.03 447.62 L32.03 450.02
							 L33.33 450.02 L33.33 451.26 L35.72 451.26 L35.72 450.02 L37.02 450.02 L37.02 447.62 ZM29.01 447.62 L24.02
							 447.62 L24.02 450.02 L25.32 450.02 L25.32 451.26 L27.71 451.26 L27.71 450.02 L29.01 450.02 L29.01 447.62
							 ZM21 447.62 L16.02 447.62 L16.02 450.02 L17.31 450.02 L17.31 451.26 L19.7 451.26 L19.7 450.02 L21 450.02
							 L21 447.62 ZM12.99 447.62 L8.01 447.62 L8.01 450.02 L9.3 450.02 L9.3 451.26 L11.7 451.26 L11.7 450.02
							 L12.99 450.02 L12.99 447.62 ZM4.98 447.62 L0 447.62 L0 450.02 L1.3 450.02 L1.3 451.26 L3.69 451.26 L3.69
							 450.02 L4.98 450.02 L4.98 447.62 Z" class="st2"/>
			</g>
			<g id="shape14-20" transform="translate(55.6646,-33.6193)">
				<path d="M5.63 452.92 L7.14 450.97 L8.86 450.96 L7.97 451.84 L9 451.84 L10.16 450.59 L9.01 449.34 L7.96 449.34 L8.85
							 450.21 L6.61 450.21 L5.08 452.2 L3.55 450.21 L1.31 450.21 L2.19 449.34 L1.15 449.34 L0 450.59 L1.15
							 451.84 L2.19 451.84 L1.3 450.96 L3.01 450.97 L4.52 452.92 L2.6 455.41 L1.3 455.41 L2.19 454.53 L1.15
							 454.53 L0 455.78 L1.15 457.04 L2.19 457.04 L1.31 456.16 L3.14 456.16 L5.08 453.64 L7.02 456.16 L8.85
							 456.16 L7.96 457.04 L9.01 457.04 L10.16 455.78 L9 454.53 L7.97 454.53 L8.86 455.41 L7.55 455.41 L5.63
							 452.92 Z" class="st2"/>
			</g>
		</g>
		<g id="group15-23" transform="translate(97.7451,-101.997) scale(-1,1)">
			<g id="shape16-24" transform="translate(13.9504,-45.5452)">
				<path d="M23.59 451.6 L22.93 449.38 L1.42 449.38 L0 457.04 L2.13 457.04 L3.16 451.47 L21.37 451.47 L23.04 457.04
							 L25.22 457.04 L24.25 453.78 L33.11 453.78 L33.11 451.6 L23.59 451.6 Z" class="st3"/>
			</g>
			<g id="shape17-26" transform="translate(0,-17.5408)">
				<path d="M53.2 436.96 C52.6 436.96 51.76 436.6 51.35 436.17 L45.22 429.82 C44.81 429.39 43.98 429.03 43.38 429.03
							 L7.07 429.03 C6.47 429.03 5.98 429.52 5.98 430.12 L5.98 430.87 C5.98 431.47 5.49 431.96 4.89 431.96
							 L1.09 431.96 C0.49 431.96 0 432.45 0 433.05 L0 445.76 C0 446.36 0.49 446.85 1.09 446.85 L4.34 446.85
							 C4.94 446.85 5.43 447.34 5.43 447.94 L5.43 452.45 C5.43 453.05 5.92 453.54 6.52 453.54 L49.03 453.54
							 C49.63 453.54 50.32 453.09 50.57 452.54 L51.62 450.17 C51.86 449.63 52.55 449.18 53.15 449.18 L56.19
							 449.18 C56.79 449.18 57.7 449.43 58.21 449.74 L69.93 456.73 C70.44 457.04 70.87 456.8 70.87 456.2 L70.87
							 431.39 C70.87 430.79 70.42 430.51 69.88 430.78 L58.1 436.48 C57.56 436.74 56.63 436.96 56.03 436.96
							 L53.2 436.96 Z" class="st3"/>
			</g>
			<g id="shape18-28" transform="translate(39.9362,-36.7701)">
				<path d="M4.16 454.96 A2.07949 2.07949 -180 1 0 0 454.96 A2.07949 2.07949 -180 1 0 4.16 454.96 ZM24.57 443.91 C24.57
							 442.02 23.04 440.48 21.14 440.48 L9.14 440.48 C7.24 440.48 5.7 442.02 5.7 443.91 C5.7 445.81 7.24 447.34
							 9.14 447.34 L21.14 447.34 C23.04 447.34 24.57 445.81 24.57 443.91 Z" class="st3"/>
			</g>
			<g id="shape19-30" transform="translate(13.5163,-34.9559)">
				<path d="M12.72 457.04 L23.41 457.04 L23.41 451.04 L12.72 451.04 L12.72 457.04 ZM9.73 453.78 A1.04883 1.04883 -180
							 1 0 7.63 453.78 A1.04883 1.04883 -180 1 0 9.73 453.78 ZM5.91 453.78 A1.0481 1.0481 -180 1 0 3.82 453.78
							 A1.0481 1.0481 -180 1 0 5.91 453.78 ZM2.1 453.78 A1.04883 1.04883 -180 1 0 -0 453.78 A1.04883 1.04883
							 -180 1 0 2.1 453.78 Z" class="st2"/>
			</g>
		</g>
		<g id="group20-33" transform="translate(196.958,-101.997)">
			<g id="shape21-34" transform="translate(0,-3.86051)">
				<path d="M70.87 445.62 L70.87 404.88 L0 404.88 L0 445.62 L70.87 445.62 ZM42.96 445.62 L27.91 445.62 L27.91 449.82
							 C22.76 450.46 19.26 451.74 19.26 453.21 C19.26 455.32 26.5 457.04 35.43 457.04 C44.37 457.04 51.61 455.32
							 51.61 453.21 C51.61 451.74 48.1 450.46 42.96 449.82 L42.96 445.62 Z" class="st3"/>
			</g>
			<g id="shape22-36" transform="translate(2.85165,-17.6912)">
				<rect x="-1.18946E-007" y="421.117" width="65.1635" height="35.9195" class="st3"/>
			</g>
		</g>
		<g id="group42-38" transform="translate(382.627,-101.997)">
			<g id="shape43-39" transform="translate(0,-18.7403)">
				<path d="M65.4 457.04 L66.82 454.2 L4.05 454.2 L5.46 457.04 L65.4 457.04 ZM0 452.52 L70.87 452.52 L70.87 423.65 L0
							 423.65 L0 452.52 Z" class="st3"/>
			</g>
			<g id="shape44-41" transform="translate(25.562,-30.1545)">
				<path d="M21.97 457.04 L37.81 457.04 L37.81 442 L21.97 442 L21.97 457.04 ZM9.4 446.8 L14.31 446.8 L14.31 441.89 L9.4
							 441.89 L9.4 446.8 ZM0 446.8 L4.91 446.8 L4.91 441.89 L0 441.89 L0 446.8 Z" class="st3"/>
			</g>
			<g id="shape45-43" transform="translate(6.85693,-34.2865)">
				<rect x="0" y="446.018" width="11.513" height="11.018" class="st2"/>
				<rect x="0" y="446.018" width="11.513" height="11.018" class="st4"/>
			</g>
			<g id="shape46-46" transform="translate(49.0575,-33.2093)">
				<path d="M12.22 457.04 L12.78 457.04 L12.78 447.81 C12.6 448.01 12.4 448.2 12.22 448.38 L12.22 457.04 ZM11.02 449.57
							 C10.83 449.73 10.64 449.89 10.44 450.03 L10.44 457.04 L11.02 457.04 L11.02 449.57 ZM9.27 450.71 C9.08
							 450.8 8.88 450.88 8.69 450.95 L8.69 457.04 L9.27 457.04 L9.27 450.71 ZM6.94 457.04 L7.52 457.04 L7.52
							 451.22 C7.32 451.25 7.13 451.26 6.94 451.27 L6.94 457.04 ZM5.77 451.18 C5.57 451.14 5.38 451.1 5.18
							 451.05 L5.18 457.04 L5.77 457.04 L5.77 451.18 ZM4.02 450.64 C3.82 450.55 3.63 450.45 3.43 450.35 L3.43
							 457.04 L4.02 457.04 L4.02 450.64 ZM2.26 449.62 C2.07 449.49 1.87 449.34 1.68 449.19 L1.68 457.04 L2.26
							 457.04 L2.26 449.62 ZM0.57 457.04 L0.57 448.38 C0.38 448.2 0.19 448.01 0 447.81 L0 457.04 L0.57 457.04
							 Z" class="st2"/>
			</g>
		</g>
		<g id="group47-49" transform="translate(121.84,-147.351)">
			<g id="shape48-50" transform="translate(0,-23.9715)">
				<path d="M65.4 457.04 L66.82 454.2 L4.05 454.2 L5.46 457.04 L65.4 457.04 ZM0 452.85 L70.87 452.85 L70.87 434.11 L0
							 434.11 L0 452.85 Z" class="st1"/>
			</g>
			<g id="shape49-52" transform="translate(54.6669,-31.7016)">
				<rect x="0" y="445.504" width="12.1507" height="11.532" class="st1"/>
			</g>
			<g id="shape50-54" transform="translate(5.61827,-32.827)">
				<path d="M4.98 453.4 L0 453.4 L0 455.79 L1.3 455.79 L1.3 457.04 L3.69 457.04 L3.69 455.79 L4.98 455.79 L4.98 453.4
							 ZM12.99 453.4 L8.01 453.4 L8.01 455.79 L9.3 455.79 L9.3 457.04 L11.7 457.04 L11.7 455.79 L12.99 455.79
							 L12.99 453.4 ZM21 453.4 L16.02 453.4 L16.02 455.79 L17.31 455.79 L17.31 457.04 L19.7 457.04 L19.7 455.79
							 L21 455.79 L21 453.4 ZM29.01 453.4 L24.02 453.4 L24.02 455.79 L25.32 455.79 L25.32 457.04 L27.71 457.04
							 L27.71 455.79 L29.01 455.79 L29.01 453.4 ZM37.02 453.4 L32.03 453.4 L32.03 455.79 L33.33 455.79 L33.33
							 457.04 L35.72 457.04 L35.72 455.79 L37.02 455.79 L37.02 453.4 ZM37.02 447.62 L32.03 447.62 L32.03 450.02
							 L33.33 450.02 L33.33 451.26 L35.72 451.26 L35.72 450.02 L37.02 450.02 L37.02 447.62 ZM29.01 447.62 L24.02
							 447.62 L24.02 450.02 L25.32 450.02 L25.32 451.26 L27.71 451.26 L27.71 450.02 L29.01 450.02 L29.01 447.62
							 ZM21 447.62 L16.02 447.62 L16.02 450.02 L17.31 450.02 L17.31 451.26 L19.7 451.26 L19.7 450.02 L21 450.02
							 L21 447.62 ZM12.99 447.62 L8.01 447.62 L8.01 450.02 L9.3 450.02 L9.3 451.26 L11.7 451.26 L11.7 450.02
							 L12.99 450.02 L12.99 447.62 ZM4.98 447.62 L0 447.62 L0 450.02 L1.3 450.02 L1.3 451.26 L3.69 451.26 L3.69
							 450.02 L4.98 450.02 L4.98 447.62 Z" class="st2"/>
			</g>
			<g id="shape51-57" transform="translate(55.6646,-33.6193)">
				<path d="M5.63 452.92 L7.14 450.97 L8.86 450.96 L7.97 451.84 L9 451.84 L10.16 450.59 L9.01 449.34 L7.96 449.34 L8.85
							 450.21 L6.61 450.21 L5.08 452.2 L3.55 450.21 L1.31 450.21 L2.19 449.34 L1.15 449.34 L0 450.59 L1.15
							 451.84 L2.19 451.84 L1.3 450.96 L3.01 450.97 L4.52 452.92 L2.6 455.41 L1.3 455.41 L2.19 454.53 L1.15
							 454.53 L0 455.78 L1.15 457.04 L2.19 457.04 L1.31 456.16 L3.14 456.16 L5.08 453.64 L7.02 456.16 L8.85
							 456.16 L7.96 457.04 L9.01 457.04 L10.16 455.78 L9 454.53 L7.97 454.53 L8.86 455.41 L7.55 455.41 L5.63
							 452.92 Z" class="st2"/>
			</g>
		</g>
		<g id="shape59-60" transform="translate(674.97,226.063) rotate(90)">
			<path d="M0 457.04 L28.35 457.04" class="st5"/>
		</g>
		<g id="shape60-63" transform="translate(682.907,226.063) rotate(90)">
			<path d="M0 457.04 L28.35 457.04" class="st5"/>
		</g>
		<g id="shape61-66" transform="translate(225.871,-202.627)">
			<path d="M0 457.04 L73.42 457.04" class="st5"/>
		</g>
		<g id="shape62-69" transform="translate(756.325,254.409) rotate(90)">
			<path d="M0 457.04 L15.31 457.04" class="st5"/>
		</g>
		<g id="shape63-72" transform="translate(130.06,-188.17)">
			<path d="M87.87 442.58 L0 442.58 L0 457.04" class="st5"/>
		</g>
		<g id="shape65-75" transform="translate(97.7451,-137.43)">
			<path d="M32.31 412.25 L32.31 457.04 L0 457.04" class="st5"/>
		</g>
		<g id="shape66-78" transform="translate(756.325,274.991) rotate(90)">
			<path d="M0 457.04 L44.61 457.04" class="st5"/>
		</g>
		<g id="shape117-81" transform="translate(299.288,776.643) rotate(180)">
			<path d="M0 457.04 L31.46 457.04" class="st5"/>
		</g>
		<g id="shape118-84" transform="translate(331.32,-137.43)">
			<path d="M0 413.1 L0 457.04 L51.31 457.04" class="st5"/>
		</g>
		<g id="shape154-87" transform="translate(228.318,-300.422)">
		</g>
		<g id="shape156-88" transform="translate(280.535,-239.477)">
			<path d="M0 457.04 L89.34 457.04" class="st6"/>
		</g>
		<g id="shape157-91" transform="translate(-130.923,217.41) rotate(-90)">
			<path d="M0 457.04 L28.2 457.04" class="st6"/>
		</g>
		<g id="group158-94" transform="translate(317.609,-267.824)">
			<g id="shape159-95" transform="translate(2.4999,0)">
				<path d="M0 457.04 L26.18 457.04 L26.18 413.1 L0 413.1 L0 457.04 Z" class="st7"/>
				<path d="M0 457.04 L26.18 457.04 L26.18 413.1 L0 413.1 L0 457.04" class="st5"/>
				<path d="M13.09 457.04 L13.09 413.1" class="st5"/>
			</g>
			<g id="shape160-99" transform="translate(5.09195,-3.19012)">
				<path d="M15.88 429.85 L21.66 429.85 L21.66 420.52 L15.88 420.52 L15.88 429.85 ZM6.55 424.3 L7.34 424.3 L7.34 420.32
							 L6.55 420.32 L6.55 424.3 ZM6.55 430.03 L7.34 430.03 L7.34 426.05 L6.55 426.05 L6.55 430.03 ZM4.68 424.3
							 L5.47 424.3 L5.47 420.32 L4.68 420.32 L4.68 424.3 ZM4.68 430.03 L5.47 430.03 L5.47 426.05 L4.68 426.05
							 L4.68 430.03 ZM1.87 424.3 L2.66 424.3 L2.66 420.32 L1.87 420.32 L1.87 424.3 ZM1.87 430.03 L2.66 430.03
							 L2.66 426.05 L1.87 426.05 L1.87 430.03 ZM0 424.3 L0.79 424.3 L0.79 420.32 L0 420.32 L0 424.3 ZM0 430.03
							 L0.79 430.03 L0.79 426.05 L0 426.05 L0 430.03 ZM14.88 451.56 L14.88 452.34 L21.73 452.33 L21.73 451.56
							 L14.88 451.56 ZM14.88 453.91 L14.88 454.69 L21.73 454.69 L21.73 453.91 L14.88 453.91 ZM14.88 456.26
							 L14.88 457.04 L21.73 457.04 L21.73 456.26 L14.88 456.26 ZM1.3 452.34 L8.15 452.34 L8.15 451.56 L1.3
							 451.56 L1.3 452.34 ZM1.3 454.69 L8.15 454.69 L8.15 453.91 L1.3 453.91 L1.3 454.69 ZM1.3 457.04 L8.15
							 457.04 L8.15 456.26 L1.3 456.26 L1.3 457.04 Z" class="st2"/>
			</g>
			<g id="shape161-102" transform="translate(21.5959,-31.2517)">
				<path d="M3.59 449.92 a0.48872 0.688651 -180 1 0 0.917155 0.476131 a0.48872 0.688651 -180 1 0 -0.917155 -0.476131
							 ZM3.59 451.96 a0.48872 0.688651 -180 1 0 0.903802 0.524399 a0.48872 0.688651 -180 1 0 -0.903802 -0.524399
							 ZM3.6 454.01 a0.48872 0.688651 -180 1 0 0.895475 0.55204 a0.48872 0.688651 -180 1 0 -0.895475 -0.55204
							 ZM3.6 456.07 a0.48872 0.688651 -180 1 0 0.895475 0.55204 a0.48872 0.688651 -180 1 0 -0.895475 -0.55204
							 ZM1.8 449.95 a0.48872 0.688651 -180 1 0 0.932051 0.414741 a0.48872 0.688651 -180 1 0 -0.932051 -0.414741
							 ZM1.81 451.99 a0.48872 0.688651 -180 1 0 0.921702 0.458386 a0.48872 0.688651 -180 1 0 -0.921702 -0.458386
							 ZM1.81 454.04 a0.48872 0.688651 -180 1 0 0.915192 0.483596 a0.48872 0.688651 -180 1 0 -0.915192 -0.483596
							 ZM1.81 456.1 a0.48872 0.688651 -180 1 0 0.915192 0.483596 a0.48872 0.688651 -180 1 0 -0.915192 -0.483596
							 ZM0.02 449.98 a0.489032 0.689091 -180 1 0 0.945843 0.350731 a0.489032 0.689091 -180 1 0 -0.945843 -0.350731
							 ZM0.02 452.02 a0.489032 0.689091 -180 1 0 0.938306 0.38887 a0.489032 0.689091 -180 1 0 -0.938306 -0.38887
							 ZM0.02 454.08 a0.489032 0.689091 -180 1 0 0.933529 0.411071 a0.489032 0.689091 -180 1 0 -0.933529 -0.411071
							 ZM0.02 456.14 a0.489032 0.689091 -180 1 0 0.933529 0.411071 a0.489032 0.689091 -180 1 0 -0.933529 -0.411071
							 Z" class="st7"/>
			</g>
		</g>
		<g id="shape232-105" transform="translate(-87.1654,266.882) rotate(-90)">
			<path d="M0 457.04 L49.32 457.04" class="st6"/>
		</g>
		<g id="shape233-108" transform="translate(362.784,-190.155)">
			<path d="M0 457.04 L7.09 457.04" class="st6"/>
		</g>
		<g id="shape234-111" transform="translate(-172.205,266.882) rotate(-90)">
			<path d="M0 457.04 L49.32 457.04" class="st6"/>
		</g>
		<g id="shape235-114" transform="translate(192.706,-190.155)">
			<path d="M0 457.04 L92.13 457.04" class="st6"/>
		</g>
		<g id="shape236-117" transform="translate(67.9813,-174.281)">
			<desc>Leaf Switch 1</desc>
			<rect x="0" y="440.029" width="55.5591" height="17.0079" class="st8"/>
			<text x="6.39" y="450.93" class="st9">Leaf Switch 1</text>		</g>
		<g id="shape238-120" transform="translate(359.666,-174.281)">
			<desc>Leaf Switch 2</desc>
			<rect x="0" y="440.029" width="55.5591" height="17.0079" class="st8"/>
			<text x="6.39" y="450.93" class="st9">Leaf Switch 2</text>		</g>
		<g id="shape239-123" transform="translate(217.367,-240.895)">
			<desc>Spine Switch</desc>
			<rect x="0" y="440.029" width="55.5591" height="17.0079" class="st8"/>
			<text x="7.18" y="450.93" class="st9">Spine Switch</text>		</g>
		<g id="shape240-126" transform="translate(337.84,-281.288)">
			<desc>Network Controller</desc>
			<rect x="0" y="440.029" width="55.5591" height="17.0079" class="st8"/>
			<text x="13.69" y="446.13" class="st9">Network <tspan x="11.37" dy="1.2em" class="st10">Controller</tspan></text>		</g>
		<g id="shape241-130" transform="translate(26.8789,-102.281)">
			<desc>NMOS Sender, S1</desc>
			<rect x="0" y="440.029" width="70.8661" height="17.0079" class="st8"/>
			<text x="6.86" y="450.93" class="st9">NMOS Sender, S1</text>		</g>
		<g id="shape242-133" transform="translate(194.173,-88.6742)">
			<desc>NMOS Receiver, R1</desc>
			<rect x="0" y="440.029" width="79.3701" height="17.0079" class="st8"/>
			<text x="8.24" y="450.93" class="st9">NMOS Receiver, R1</text>		</g>
		<g id="shape243-136" transform="translate(375.54,-101.997)">
			<desc>Non-NMOS Receiver, R2</desc>
			<rect x="0" y="440.029" width="87.874" height="17.0079" class="st8"/>
			<text x="4.47" y="450.93" class="st9">Non-NMOS Receiver, R2</text>		</g>
		<g id="shape244-139" transform="translate(18.375,-91.5089)">
			<desc>Dest. IP address = 239.1.2.3</desc>
			<rect x="0" y="440.029" width="87.874" height="17.0079" class="st8"/>
			<text x="10.28" y="450.33" class="st11">Dest. IP address = 239.1.2.3</text>		</g>
		<g id="shape245-142" transform="translate(171.446,-77.9026)">
			<desc>Dest. IP address = 239.1.2.3 (Receiver tuned to this address ...</desc>
			<rect x="0" y="440.029" width="121.89" height="17.0079" class="st8"/>
			<text x="27.29" y="446.73" class="st11">Dest. IP address = 239.1.2.3 <tspan x="8.34" dy="1.2em" class="st10">(</tspan>Receiver tuned to this address using IS-05)</text>		</g>
		<g id="shape246-146" transform="translate(358.532,-90.375)">
			<desc>Dest. IP address = 235.7.8.9 (Receiver cannot be tuned using ...</desc>
			<rect x="0" y="440.029" width="121.89" height="17.0079" class="st8"/>
			<text x="27.29" y="446.73" class="st11">Dest. IP address = 235.7.8.9 <tspan x="14.01" dy="1.2em" class="st10">(</tspan>Receiver cannot be tuned using IS-05)</text>		</g>
		<g id="group252-150" transform="translate(298.438,-368.17)">
			<g id="shape253-151" transform="translate(0,-4.72617)">
				<path d="M48.01 439.63 L48.01 445.62 L51.62 445.62 L55.04 449.9 L70.87 449.9 L70.87 395.62 L48.01 395.62 L48.01 403.41
							 L57.81 403.41 L57.81 439.63 L48.01 439.63 ZM57.81 403.41 L3.53 403.41 L3.53 439.63 L57.81 439.63 L57.81
							 403.41 ZM60.73 457.04 L51.62 445.62 L9.11 445.62 L0 457.04 L60.73 457.04 ZM35.14 439.63 L25.59 439.63
							 L25.59 445.62 L35.14 445.62 L35.14 439.63 Z" class="st12"/>
			</g>
			<g id="shape254-153" transform="translate(7.05282,-25.393)">
				<path d="M47.32 427.67 L0 427.67 L0 457.04 L47.32 457.04 L47.32 427.67 Z" class="st12"/>
			</g>
			<g id="shape255-155" transform="translate(8.26528,-7.08364)">
				<path d="M53.45 404.06 L58.34 404.06 L58.34 402.15 L53.45 402.15 L53.45 404.06 ZM53.45 407.45 L58.34 407.45 L58.34
							 405.55 L53.45 405.55 L53.45 407.45 ZM41.47 452.61 L38.77 452.61 L40.28 454.29 L43.19 454.29 L41.47 452.61
							 ZM38.42 449.63 L36.1 449.63 L37.72 451.43 L40.27 451.43 L38.42 449.63 ZM37.32 452.61 L34.62 452.61 L35.81
							 454.29 L38.72 454.29 L37.32 452.61 ZM34.84 449.63 L32.52 449.63 L33.79 451.43 L36.35 451.43 L34.84 449.63
							 ZM33.17 452.61 L30.47 452.61 L31.33 454.29 L34.24 454.29 L33.17 452.61 ZM31.27 449.63 L28.95 449.63
							 L29.88 451.47 L32.44 451.47 L31.27 449.63 ZM29.02 452.61 L26.32 452.61 L26.86 454.29 L29.77 454.29 L29.02
							 452.61 ZM27.75 449.75 L25.4 449.75 L25.95 451.47 L28.51 451.47 L27.75 449.75 ZM24.87 452.61 L22.17 452.61
							 L22.38 454.29 L25.29 454.29 L24.87 452.61 ZM24.18 449.9 L21.82 449.9 L22.04 451.58 L24.61 451.58 L24.18
							 449.9 ZM20.55 449.9 L18.19 449.9 L18.08 451.58 L20.65 451.58 L20.55 449.9 ZM20.71 452.61 L18.01 452.61
							 L17.9 454.29 L20.81 454.29 L20.71 452.61 ZM16.93 449.9 L14.57 449.9 L14.13 451.58 L16.7 451.58 L16.93
							 449.9 ZM16.56 452.61 L13.86 452.61 L13.43 454.29 L16.34 454.29 L16.56 452.61 ZM31.37 455.36 L12.32 455.36
							 L11.83 457.04 L32.19 457.04 L31.37 455.36 ZM13.3 449.9 L10.94 449.9 L10.18 451.58 L12.75 451.58 L13.3
							 449.9 ZM12.41 452.61 L9.71 452.61 L8.95 454.29 L11.86 454.29 L12.41 452.61 ZM9.67 449.9 L7.31 449.9
							 L6.22 451.58 L8.79 451.58 L9.67 449.9 ZM8.26 452.61 L5.56 452.61 L4.48 454.29 L7.39 454.29 L8.26 452.61
							 ZM6.04 449.9 L3.68 449.9 L2.27 451.58 L4.84 451.58 L6.04 449.9 ZM4.11 452.61 L1.41 452.61 L0 454.29
							 L2.91 454.29 L4.11 452.61 Z" class="st2"/>
			</g>
		</g>
		<g id="shape256-158" transform="translate(-124.286,132.511) rotate(-89.5724)">
			<path d="M0 457.04 L17.01 445.7 L17.01 451.37 L37.99 451.37 L37.99 457.04 L37.99 462.71 L17.01 462.71 L17.01 468.38 L0
						 457.04 Z" class="st13"/>
		</g>
		<g id="shape257-160" transform="translate(363.068,-395.95)">
			<desc>Broadcast Controller</desc>
			<rect x="0" y="440.029" width="55.5591" height="17.0079" class="st8"/>
			<text x="11.57" y="446.13" class="st9">Broadcast <tspan x="11.37" dy="1.2em" class="st10">Controller</tspan></text>		</g>
		<g id="shape261-164" transform="translate(338.123,-333.588)">
			<desc>IS-06</desc>
			<rect x="0" y="440.029" width="55.5591" height="17.0079" class="st8"/>
			<text x="19.65" y="450.93" class="st9">IS-06</text>		</g>
		<g id="shape258-167" transform="translate(109.134,-284.832)">
			<desc>2. Broadcast Controller makes IS-06 request to Network Contro...</desc>
			<path d="M0 457.04 L163.23 457.04 L163.23 389 L0 389 L0 457.04 Z" class="st14"/>
			<path d="M163.23 406.98 L211.45 397.51" class="st5"/>
			<path d="M0 457.04 L163.23 457.04 L163.23 389 L0 389 L0 457.04" class="st5"/>
			<text x="4" y="402.02" class="st15">2. Broadcast Controller makes IS-06 <tspan x="4" dy="1.2em" class="st10">request to Network Controller to set </tspan><tspan
						x="4" dy="1.2em" class="st10">up NAT policy to translate destination </tspan><tspan x="4" dy="1.2em"
						class="st10">IP address from </tspan>239.1.2.3 to 235.7.8.9 <tspan x="4" dy="1.2em" class="st10">for non</tspan>-NMOS Receiver, R2 </text>		</g>
		<g id="shape260-176" transform="translate(48.189,-376.107)">
			<desc>1. Broadcast Controller operator wishes non-NMOS Receiver R2,...</desc>
			<path d="M0 457.04 L218.5 457.04 L218.5 397.51 L0 397.51 L0 457.04 Z" class="st14"/>
			<path d="M218.5 427.71 L249.72 427.84" class="st5"/>
			<path d="M0 457.04 L218.5 457.04 L218.5 397.51 L0 397.51 L0 457.04" class="st5"/>
			<text x="4" y="412.27" class="st15">1. Broadcast Controller operator wishes non-NMOS <tspan x="4" dy="1.2em"
						class="st10">Receiver R</tspan>2, that is tuned to a fixed dest. IP address <tspan x="4" dy="1.2em"
						class="st10">235</tspan>.7.8.9, to receive stream from Sender S1 with <tspan x="4" dy="1.2em" class="st10">dest</tspan>. IP address 239.1.2.3 </text>		</g>
		<g id="shape259-184" transform="translate(382.91,-210.989)">
			<desc>3. Network Controller creates appropriate NAT policy on netwo...</desc>
			<path d="M0 457.04 L151.42 457.04 L151.42 397.51 L0 397.51 L0 457.04 Z" class="st14"/>
			<path d="M0 397.51 L-28.06 394.53" class="st5"/>
			<path d="M0 457.04 L151.42 457.04 L151.42 397.51 L0 397.51 L0 457.04" class="st5"/>
			<text x="4" y="412.27" class="st15">3. Network Controller creates <tspan x="4" dy="1.2em" class="st10">appropriate NAT policy on network </tspan><tspan
						x="4" dy="1.2em" class="st10">(</tspan>e.g. on Leaf Switch 2’s egress port <tspan x="4" dy="1.2em"
						class="st10">that is attached to R</tspan>2)</text>		</g>
		<g id="shape262-192" transform="translate(32.5482,-18.375)">
			<desc>5. Other Receivers such as R1 continue to receive stream from...</desc>
			<path d="M0 457.04 L168.94 457.04 L168.94 410.26 L0 410.26 L0 457.04 Z" class="st14"/>
			<path d="M107.7 410.26 L159.79 357.82" class="st5"/>
			<path d="M0 457.04 L168.94 457.04 L168.94 410.26 L0 410.26 L0 457.04" class="st5"/>
			<text x="4" y="424.65" class="st15">5. Other Receivers such as R1 continue <tspan x="4" dy="1.2em" class="st10">to receive stream from S</tspan>1 with dest. IP <tspan
						x="4" dy="1.2em" class="st10">address </tspan>239.1.2.3 as before</text>		</g>
		<g id="shape263-199" transform="translate(249.682,-24.753)">
			<desc>4. R2 receives stream from S1, now with translated dest. IP a...</desc>
			<path d="M0 457.04 L172.68 457.04 L172.68 423.02 L0 423.02 L0 457.04 Z" class="st14"/>
			<path d="M93.85 423.02 L121.09 361.32" class="st5"/>
			<path d="M0 457.04 L172.68 457.04 L172.68 423.02 L0 423.02 L0 457.04" class="st5"/>
			<text x="4" y="437.03" class="st15">4. R2 receives stream from S1, now with <tspan x="4" dy="1.2em" class="st10">translated dest</tspan>. IP address 235.7.8.9</text>		</g>
	</g>
</svg>
