<?xml version="1.0" encoding="UTF-8" standalone="no"?>
<!DOCTYPE svg PUBLIC "-//W3C//DTD SVG 1.1//EN" "http://www.w3.org/Graphics/SVG/1.1/DTD/svg11.dtd">
<!-- Generated by Microsoft Visio, SVG Export NAT2.svg NAT II -->
<svg xmlns="http://www.w3.org/2000/svg" xmlns:xlink="http://www.w3.org/1999/xlink" xmlns:ev="http://www.w3.org/2001/xml-events"
		width="7.82538in" height="6.58719in" viewBox="0 0 563.427 474.278" xml:space="preserve" color-interpolation-filters="sRGB"
		class="st16">
	<style type="text/css">
	<![CDATA[
		.st1 {fill:#ddd6e5;stroke:#000000;stroke-linecap:round;stroke-linejoin:round;stroke-width:0.75}
		.st2 {fill:#000000}
		.st3 {fill:#f2f2f2;stroke:#000000;stroke-linecap:round;stroke-linejoin:round;stroke-width:0.75}
		.st4 {stroke:#000000;stroke-linecap:round;stroke-linejoin:round;stroke-width:0.75;visibility:hidden}
		.st5 {stroke:#000000;stroke-linecap:round;stroke-linejoin:round;stroke-width:0.75}
		.st6 {stroke:#ff0000;stroke-dasharray:0.75,1.5;stroke-linecap:round;stroke-linejoin:round;stroke-width:0.75}
		.st7 {fill:#ebf1df}
		.st8 {fill:none;stroke:none;stroke-linecap:round;stroke-linejoin:round;stroke-width:0.75}
		.st9 {fill:#000000;font-family:Calibri;font-size:0.666664em}
		.st10 {font-size:1em}
		.st11 {fill:#000000;font-family:Calibri;font-size:0.499992em}
		.st12 {fill:#dbeef3;stroke:#000000;stroke-linecap:round;stroke-linejoin:round;stroke-width:0.75}
		.st13 {fill:#fcebdd;stroke:#000000;stroke-linecap:round;stroke-linejoin:round;stroke-width:0.24}
		.st14 {fill:#ffffff}
		.st15 {fill:#000000;font-family:Calibri;font-size:0.833336em}
		.st16 {fill:none;fill-rule:evenodd;font-size:12px;overflow:visible;stroke-linecap:square;stroke-miterlimit:3}
	]]>
	</style>

	<g>
		<g id="group52-1" transform="translate(291.068,-156.989)">
			<g id="shape53-2" transform="translate(0,-23.9715)">
				<path d="M65.4 474.28 L66.82 471.44 L4.05 471.44 L5.46 474.28 L65.4 474.28 ZM0 470.09 L70.87 470.09 L70.87 451.35
							 L0 451.35 L0 470.09 Z" class="st1"/>
			</g>
			<g id="shape54-4" transform="translate(54.6669,-31.7016)">
				<rect x="0" y="462.746" width="12.1507" height="11.532" class="st1"/>
			</g>
			<g id="shape55-6" transform="translate(5.61827,-32.827)">
				<path d="M4.98 470.64 L0 470.64 L0 473.03 L1.3 473.03 L1.3 474.28 L3.69 474.28 L3.69 473.03 L4.98 473.03 L4.98 470.64
							 ZM12.99 470.64 L8.01 470.64 L8.01 473.03 L9.3 473.03 L9.3 474.28 L11.7 474.28 L11.7 473.03 L12.99 473.03
							 L12.99 470.64 ZM21 470.64 L16.02 470.64 L16.02 473.03 L17.31 473.03 L17.31 474.28 L19.7 474.28 L19.7
							 473.03 L21 473.03 L21 470.64 ZM29.01 470.64 L24.02 470.64 L24.02 473.03 L25.32 473.03 L25.32 474.28
							 L27.71 474.28 L27.71 473.03 L29.01 473.03 L29.01 470.64 ZM37.02 470.64 L32.03 470.64 L32.03 473.03 L33.33
							 473.03 L33.33 474.28 L35.72 474.28 L35.72 473.03 L37.02 473.03 L37.02 470.64 ZM37.02 464.87 L32.03 464.87
							 L32.03 467.26 L33.33 467.26 L33.33 468.5 L35.72 468.5 L35.72 467.26 L37.02 467.26 L37.02 464.87 ZM29.01
							 464.87 L24.02 464.87 L24.02 467.26 L25.32 467.26 L25.32 468.5 L27.71 468.5 L27.71 467.26 L29.01 467.26
							 L29.01 464.87 ZM21 464.87 L16.02 464.87 L16.02 467.26 L17.31 467.26 L17.31 468.5 L19.7 468.5 L19.7 467.26
							 L21 467.26 L21 464.87 ZM12.99 464.87 L8.01 464.87 L8.01 467.26 L9.3 467.26 L9.3 468.5 L11.7 468.5 L11.7
							 467.26 L12.99 467.26 L12.99 464.87 ZM4.98 464.87 L0 464.87 L0 467.26 L1.3 467.26 L1.3 468.5 L3.69 468.5
							 L3.69 467.26 L4.98 467.26 L4.98 464.87 Z" class="st2"/>
			</g>
			<g id="shape56-9" transform="translate(55.6646,-33.6193)">
				<path d="M5.63 470.16 L7.14 468.21 L8.86 468.2 L7.97 469.08 L9 469.08 L10.16 467.83 L9.01 466.58 L7.96 466.58 L8.85
							 467.46 L6.61 467.46 L5.08 469.44 L3.55 467.46 L1.31 467.46 L2.19 466.58 L1.15 466.58 L0 467.83 L1.15
							 469.08 L2.19 469.08 L1.3 468.2 L3.01 468.21 L4.52 470.16 L2.6 472.65 L1.3 472.66 L2.19 471.77 L1.15
							 471.77 L0 473.03 L1.15 474.28 L2.19 474.28 L1.31 473.4 L3.14 473.4 L5.08 470.88 L7.02 473.4 L8.85 473.4
							 L7.96 474.28 L9.01 474.28 L10.16 473.03 L9 471.77 L7.97 471.77 L8.86 472.66 L7.55 472.65 L5.63 470.16
							 Z" class="st2"/>
			</g>
		</g>
		<g id="group10-12" transform="translate(209.714,-206.595)">
			<g id="shape11-13" transform="translate(0,-23.9715)">
				<path d="M65.4 474.28 L66.82 471.44 L4.05 471.44 L5.46 474.28 L65.4 474.28 ZM0 470.09 L70.87 470.09 L70.87 451.35
							 L0 451.35 L0 470.09 Z" class="st1"/>
			</g>
			<g id="shape12-15" transform="translate(54.6669,-31.7016)">
				<rect x="0" y="462.746" width="12.1507" height="11.532" class="st1"/>
			</g>
			<g id="shape13-17" transform="translate(5.61827,-32.827)">
				<path d="M4.98 470.64 L0 470.64 L0 473.03 L1.3 473.03 L1.3 474.28 L3.69 474.28 L3.69 473.03 L4.98 473.03 L4.98 470.64
							 ZM12.99 470.64 L8.01 470.64 L8.01 473.03 L9.3 473.03 L9.3 474.28 L11.7 474.28 L11.7 473.03 L12.99 473.03
							 L12.99 470.64 ZM21 470.64 L16.02 470.64 L16.02 473.03 L17.31 473.03 L17.31 474.28 L19.7 474.28 L19.7
							 473.03 L21 473.03 L21 470.64 ZM29.01 470.64 L24.02 470.64 L24.02 473.03 L25.32 473.03 L25.32 474.28
							 L27.71 474.28 L27.71 473.03 L29.01 473.03 L29.01 470.64 ZM37.02 470.64 L32.03 470.64 L32.03 473.03 L33.33
							 473.03 L33.33 474.28 L35.72 474.28 L35.72 473.03 L37.02 473.03 L37.02 470.64 ZM37.02 464.87 L32.03 464.87
							 L32.03 467.26 L33.33 467.26 L33.33 468.5 L35.72 468.5 L35.72 467.26 L37.02 467.26 L37.02 464.87 ZM29.01
							 464.87 L24.02 464.87 L24.02 467.26 L25.32 467.26 L25.32 468.5 L27.71 468.5 L27.71 467.26 L29.01 467.26
							 L29.01 464.87 ZM21 464.87 L16.02 464.87 L16.02 467.26 L17.31 467.26 L17.31 468.5 L19.7 468.5 L19.7 467.26
							 L21 467.26 L21 464.87 ZM12.99 464.87 L8.01 464.87 L8.01 467.26 L9.3 467.26 L9.3 468.5 L11.7 468.5 L11.7
							 467.26 L12.99 467.26 L12.99 464.87 ZM4.98 464.87 L0 464.87 L0 467.26 L1.3 467.26 L1.3 468.5 L3.69 468.5
							 L3.69 467.26 L4.98 467.26 L4.98 464.87 Z" class="st2"/>
			</g>
			<g id="shape14-20" transform="translate(55.6646,-33.6193)">
				<path d="M5.63 470.16 L7.14 468.21 L8.86 468.2 L7.97 469.08 L9 469.08 L10.16 467.83 L9.01 466.58 L7.96 466.58 L8.85
							 467.46 L6.61 467.46 L5.08 469.44 L3.55 467.46 L1.31 467.46 L2.19 466.58 L1.15 466.58 L0 467.83 L1.15
							 469.08 L2.19 469.08 L1.3 468.2 L3.01 468.21 L4.52 470.16 L2.6 472.65 L1.3 472.66 L2.19 471.77 L1.15
							 471.77 L0 473.03 L1.15 474.28 L2.19 474.28 L1.31 473.4 L3.14 473.4 L5.08 470.88 L7.02 473.4 L8.85 473.4
							 L7.96 474.28 L9.01 474.28 L10.16 473.03 L9 471.77 L7.97 471.77 L8.86 472.66 L7.55 472.65 L5.63 470.16
							 Z" class="st2"/>
			</g>
		</g>
		<g id="group15-23" transform="translate(97.7451,-111.635) scale(-1,1)">
			<g id="shape16-24" transform="translate(13.9504,-45.5452)">
				<path d="M23.59 468.84 L22.93 466.62 L1.42 466.62 L0 474.28 L2.13 474.28 L3.16 468.71 L21.37 468.71 L23.04 474.28
							 L25.22 474.28 L24.25 471.02 L33.11 471.02 L33.11 468.84 L23.59 468.84 Z" class="st3"/>
			</g>
			<g id="shape17-26" transform="translate(0,-17.5408)">
				<path d="M53.2 454.2 C52.6 454.2 51.76 453.85 51.35 453.41 L45.22 447.06 C44.81 446.63 43.98 446.27 43.38 446.27
							 L7.07 446.27 C6.47 446.27 5.98 446.76 5.98 447.36 L5.98 448.11 C5.98 448.71 5.49 449.2 4.89 449.2 L1.09
							 449.2 C0.49 449.2 0 449.69 0 450.29 L0 463 C0 463.6 0.49 464.1 1.09 464.1 L4.34 464.1 C4.94 464.1 5.43
							 464.59 5.43 465.19 L5.43 469.69 C5.43 470.29 5.92 470.78 6.52 470.78 L49.03 470.78 C49.63 470.78 50.32
							 470.33 50.57 469.78 L51.62 467.41 C51.86 466.87 52.55 466.42 53.15 466.42 L56.19 466.42 C56.79 466.42
							 57.7 466.67 58.21 466.98 L69.93 473.97 C70.44 474.28 70.87 474.04 70.87 473.44 L70.87 448.63 C70.87
							 448.03 70.42 447.76 69.88 448.02 L58.1 453.72 C57.56 453.98 56.63 454.2 56.03 454.2 L53.2 454.2 Z"
						class="st3"/>
			</g>
			<g id="shape18-28" transform="translate(39.9362,-36.7701)">
				<path d="M4.16 472.2 A2.07949 2.07949 -180 1 0 0 472.2 A2.07949 2.07949 -180 1 0 4.16 472.2 ZM24.57 461.15 C24.57
							 459.26 23.04 457.72 21.14 457.72 L9.14 457.72 C7.24 457.72 5.7 459.26 5.7 461.15 C5.7 463.05 7.24 464.58
							 9.14 464.58 L21.14 464.58 C23.04 464.58 24.57 463.05 24.57 461.15 Z" class="st3"/>
			</g>
			<g id="shape19-30" transform="translate(13.5163,-34.9559)">
				<path d="M12.72 474.28 L23.41 474.28 L23.41 468.28 L12.72 468.28 L12.72 474.28 ZM9.73 471.02 A1.04883 1.04883 -180
							 1 0 7.63 471.02 A1.04883 1.04883 -180 1 0 9.73 471.02 ZM5.91 471.02 A1.0481 1.0481 -180 1 0 3.82 471.02
							 A1.0481 1.0481 -180 1 0 5.91 471.02 ZM2.1 471.02 A1.04883 1.04883 -180 1 0 -0 471.02 A1.04883 1.04883
							 -180 1 0 2.1 471.02 Z" class="st2"/>
			</g>
		</g>
		<g id="group42-33" transform="translate(382.627,-111.635)">
			<g id="shape43-34" transform="translate(0,-18.7403)">
				<path d="M65.4 474.28 L66.82 471.44 L4.05 471.44 L5.46 474.28 L65.4 474.28 ZM0 469.76 L70.87 469.76 L70.87 440.89
							 L0 440.89 L0 469.76 Z" class="st3"/>
			</g>
			<g id="shape44-36" transform="translate(25.562,-30.1545)">
				<path d="M21.97 474.28 L37.81 474.28 L37.81 459.24 L21.97 459.24 L21.97 474.28 ZM9.4 464.04 L14.31 464.04 L14.31
							 459.13 L9.4 459.13 L9.4 464.04 ZM0 464.04 L4.91 464.04 L4.91 459.13 L0 459.13 L0 464.04 Z" class="st3"/>
			</g>
			<g id="shape45-38" transform="translate(6.85693,-34.2865)">
				<rect x="0" y="463.26" width="11.513" height="11.018" class="st2"/>
				<rect x="0" y="463.26" width="11.513" height="11.018" class="st4"/>
			</g>
			<g id="shape46-41" transform="translate(49.0575,-33.2093)">
				<path d="M12.22 474.28 L12.78 474.28 L12.78 465.05 C12.6 465.25 12.4 465.44 12.22 465.62 L12.22 474.28 ZM11.02 466.81
							 C10.83 466.97 10.64 467.13 10.44 467.27 L10.44 474.28 L11.02 474.28 L11.02 466.81 ZM9.27 467.95 C9.08
							 468.05 8.88 468.12 8.69 468.19 L8.69 474.28 L9.27 474.28 L9.27 467.95 ZM6.94 474.28 L7.52 474.28 L7.52
							 468.46 C7.32 468.49 7.13 468.5 6.94 468.51 L6.94 474.28 ZM5.77 468.42 C5.57 468.39 5.38 468.34 5.18
							 468.29 L5.18 474.28 L5.77 474.28 L5.77 468.42 ZM4.02 467.88 C3.82 467.79 3.63 467.69 3.43 467.59 L3.43
							 474.28 L4.02 474.28 L4.02 467.88 ZM2.26 466.87 C2.07 466.73 1.87 466.58 1.68 466.43 L1.68 474.28 L2.26
							 474.28 L2.26 466.87 ZM0.57 474.28 L0.57 465.62 C0.38 465.44 0.19 465.25 0 465.05 L0 474.28 L0.57 474.28
							 Z" class="st2"/>
			</g>
		</g>
		<g id="group47-44" transform="translate(121.84,-156.989)">
			<g id="shape48-45" transform="translate(0,-23.9715)">
				<path d="M65.4 474.28 L66.82 471.44 L4.05 471.44 L5.46 474.28 L65.4 474.28 ZM0 470.09 L70.87 470.09 L70.87 451.35
							 L0 451.35 L0 470.09 Z" class="st1"/>
			</g>
			<g id="shape49-47" transform="translate(54.6669,-31.7016)">
				<rect x="0" y="462.746" width="12.1507" height="11.532" class="st1"/>
			</g>
			<g id="shape50-49" transform="translate(5.61827,-32.827)">
				<path d="M4.98 470.64 L0 470.64 L0 473.03 L1.3 473.03 L1.3 474.28 L3.69 474.28 L3.69 473.03 L4.98 473.03 L4.98 470.64
							 ZM12.99 470.64 L8.01 470.64 L8.01 473.03 L9.3 473.03 L9.3 474.28 L11.7 474.28 L11.7 473.03 L12.99 473.03
							 L12.99 470.64 ZM21 470.64 L16.02 470.64 L16.02 473.03 L17.31 473.03 L17.31 474.28 L19.7 474.28 L19.7
							 473.03 L21 473.03 L21 470.64 ZM29.01 470.64 L24.02 470.64 L24.02 473.03 L25.32 473.03 L25.32 474.28
							 L27.71 474.28 L27.71 473.03 L29.01 473.03 L29.01 470.64 ZM37.02 470.64 L32.03 470.64 L32.03 473.03 L33.33
							 473.03 L33.33 474.28 L35.72 474.28 L35.72 473.03 L37.02 473.03 L37.02 470.64 ZM37.02 464.87 L32.03 464.87
							 L32.03 467.26 L33.33 467.26 L33.33 468.5 L35.72 468.5 L35.72 467.26 L37.02 467.26 L37.02 464.87 ZM29.01
							 464.87 L24.02 464.87 L24.02 467.26 L25.32 467.26 L25.32 468.5 L27.71 468.5 L27.71 467.26 L29.01 467.26
							 L29.01 464.87 ZM21 464.87 L16.02 464.87 L16.02 467.26 L17.31 467.26 L17.31 468.5 L19.7 468.5 L19.7 467.26
							 L21 467.26 L21 464.87 ZM12.99 464.87 L8.01 464.87 L8.01 467.26 L9.3 467.26 L9.3 468.5 L11.7 468.5 L11.7
							 467.26 L12.99 467.26 L12.99 464.87 ZM4.98 464.87 L0 464.87 L0 467.26 L1.3 467.26 L1.3 468.5 L3.69 468.5
							 L3.69 467.26 L4.98 467.26 L4.98 464.87 Z" class="st2"/>
			</g>
			<g id="shape51-52" transform="translate(55.6646,-33.6193)">
				<path d="M5.63 470.16 L7.14 468.21 L8.86 468.2 L7.97 469.08 L9 469.08 L10.16 467.83 L9.01 466.58 L7.96 466.58 L8.85
							 467.46 L6.61 467.46 L5.08 469.44 L3.55 467.46 L1.31 467.46 L2.19 466.58 L1.15 466.58 L0 467.83 L1.15
							 469.08 L2.19 469.08 L1.3 468.2 L3.01 468.21 L4.52 470.16 L2.6 472.65 L1.3 472.66 L2.19 471.77 L1.15
							 471.77 L0 473.03 L1.15 474.28 L2.19 474.28 L1.31 473.4 L3.14 473.4 L5.08 470.88 L7.02 473.4 L8.85 473.4
							 L7.96 474.28 L9.01 474.28 L10.16 473.03 L9 471.77 L7.97 471.77 L8.86 472.66 L7.55 472.65 L5.63 470.16
							 Z" class="st2"/>
			</g>
		</g>
		<g id="shape59-55" transform="translate(692.212,233.666) rotate(90)">
			<path d="M0 474.28 L28.35 474.28" class="st5"/>
		</g>
		<g id="shape60-58" transform="translate(700.149,233.666) rotate(90)">
			<path d="M0 474.28 L28.35 474.28" class="st5"/>
		</g>
		<g id="shape61-61" transform="translate(225.871,-212.265)">
			<path d="M0 474.28 L73.42 474.28" class="st5"/>
		</g>
		<g id="shape62-64" transform="translate(773.566,262.013) rotate(90)">
			<path d="M0 474.28 L15.31 474.28" class="st5"/>
		</g>
		<g id="shape63-67" transform="translate(130.06,-197.808)">
			<path d="M87.87 459.82 L0 459.82 L0 474.28" class="st5"/>
		</g>
		<g id="shape65-70" transform="translate(97.7451,-147.068)">
			<path d="M32.31 429.49 L32.31 474.28 L0 474.28" class="st5"/>
		</g>
		<g id="shape118-73" transform="translate(315.213,-147.068)">
			<path d="M0 430.34 L0 474.28 L67.41 474.28" class="st5"/>
		</g>
		<g id="shape154-76" transform="translate(228.318,-310.06)">
		</g>
		<g id="shape156-77" transform="translate(280.535,-249.115)">
			<path d="M0 474.28 L89.34 474.28" class="st6"/>
		</g>
		<g id="shape157-80" transform="translate(-148.164,225.013) rotate(-90)">
			<path d="M0 474.28 L28.2 474.28" class="st6"/>
		</g>
		<g id="group158-83" transform="translate(317.609,-277.462)">
			<g id="shape159-84" transform="translate(2.4999,0)">
				<path d="M0 474.28 L26.18 474.28 L26.18 430.34 L0 430.34 L0 474.28 Z" class="st7"/>
				<path d="M0 474.28 L26.18 474.28 L26.18 430.34 L0 430.34 L0 474.28" class="st5"/>
				<path d="M13.09 474.28 L13.09 430.34" class="st5"/>
			</g>
			<g id="shape160-88" transform="translate(5.09195,-3.19012)">
				<path d="M15.88 447.09 L21.66 447.09 L21.66 437.76 L15.88 437.76 L15.88 447.09 ZM6.55 441.54 L7.34 441.54 L7.34 437.57
							 L6.55 437.57 L6.55 441.54 ZM6.55 447.27 L7.34 447.27 L7.34 443.29 L6.55 443.29 L6.55 447.27 ZM4.68 441.54
							 L5.47 441.54 L5.47 437.57 L4.68 437.57 L4.68 441.54 ZM4.68 447.27 L5.47 447.27 L5.47 443.29 L4.68 443.29
							 L4.68 447.27 ZM1.87 441.54 L2.66 441.54 L2.66 437.57 L1.87 437.57 L1.87 441.54 ZM1.87 447.27 L2.66 447.27
							 L2.66 443.29 L1.87 443.29 L1.87 447.27 ZM0 441.54 L0.79 441.54 L0.79 437.57 L0 437.57 L0 441.54 ZM0
							 447.27 L0.79 447.27 L0.79 443.29 L0 443.29 L0 447.27 ZM14.88 468.8 L14.88 469.58 L21.73 469.58 L21.73
							 468.8 L14.88 468.8 ZM14.88 471.15 L14.88 471.93 L21.73 471.93 L21.73 471.15 L14.88 471.15 ZM14.88 473.5
							 L14.88 474.28 L21.73 474.28 L21.73 473.5 L14.88 473.5 ZM1.3 469.58 L8.15 469.58 L8.15 468.8 L1.3 468.8
							 L1.3 469.58 ZM1.3 471.93 L8.15 471.93 L8.15 471.15 L1.3 471.15 L1.3 471.93 ZM1.3 474.28 L8.15 474.28
							 L8.15 473.5 L1.3 473.5 L1.3 474.28 Z" class="st2"/>
			</g>
			<g id="shape161-91" transform="translate(21.5959,-31.2517)">
				<path d="M3.59 467.16 a0.48872 0.688651 -180 1 0 0.917155 0.476131 a0.48872 0.688651 -180 1 0 -0.917155 -0.476131
							 ZM3.59 469.2 a0.48872 0.688651 -180 1 0 0.903802 0.524399 a0.48872 0.688651 -180 1 0 -0.903802 -0.524399
							 ZM3.6 471.25 a0.48872 0.688651 -180 1 0 0.895475 0.55204 a0.48872 0.688651 -180 1 0 -0.895475 -0.55204
							 ZM3.6 473.31 a0.48872 0.688651 -180 1 0 0.895475 0.55204 a0.48872 0.688651 -180 1 0 -0.895475 -0.55204
							 ZM1.8 467.19 a0.48872 0.688651 -180 1 0 0.932051 0.414741 a0.48872 0.688651 -180 1 0 -0.932051 -0.414741
							 ZM1.81 469.23 a0.48872 0.688651 -180 1 0 0.921702 0.458386 a0.48872 0.688651 -180 1 0 -0.921702 -0.458386
							 ZM1.81 471.28 a0.48872 0.688651 -180 1 0 0.915192 0.483596 a0.48872 0.688651 -180 1 0 -0.915192 -0.483596
							 ZM1.81 473.34 a0.48872 0.688651 -180 1 0 0.915192 0.483596 a0.48872 0.688651 -180 1 0 -0.915192 -0.483596
							 ZM0.02 467.22 a0.489032 0.689091 -180 1 0 0.945843 0.350731 a0.489032 0.689091 -180 1 0 -0.945843 -0.350731
							 ZM0.02 469.27 a0.489032 0.689091 -180 1 0 0.938306 0.38887 a0.489032 0.689091 -180 1 0 -0.938306 -0.38887
							 ZM0.02 471.32 a0.489032 0.689091 -180 1 0 0.933529 0.411071 a0.489032 0.689091 -180 1 0 -0.933529 -0.411071
							 ZM0.02 473.38 a0.489032 0.689091 -180 1 0 0.933529 0.411071 a0.489032 0.689091 -180 1 0 -0.933529 -0.411071
							 Z" class="st7"/>
			</g>
		</g>
		<g id="shape232-94" transform="translate(-104.406,274.485) rotate(-90)">
			<path d="M0 474.28 L49.32 474.28" class="st6"/>
		</g>
		<g id="shape233-97" transform="translate(362.784,-199.792)">
			<path d="M0 474.28 L7.09 474.28" class="st6"/>
		</g>
		<g id="shape234-100" transform="translate(-189.446,274.485) rotate(-90)">
			<path d="M0 474.28 L49.32 474.28" class="st6"/>
		</g>
		<g id="shape235-103" transform="translate(192.706,-199.792)">
			<path d="M0 474.28 L92.13 474.28" class="st6"/>
		</g>
		<g id="shape236-106" transform="translate(67.9813,-183.918)">
			<desc>Leaf Switch 1</desc>
			<rect x="0" y="457.27" width="55.5591" height="17.0079" class="st8"/>
			<text x="6.39" y="468.17" class="st9">Leaf Switch 1</text>		</g>
		<g id="shape238-109" transform="translate(359.666,-183.918)">
			<desc>Leaf Switch 2</desc>
			<rect x="0" y="457.27" width="55.5591" height="17.0079" class="st8"/>
			<text x="6.39" y="468.17" class="st9">Leaf Switch 2</text>		</g>
		<g id="shape239-112" transform="translate(217.367,-250.532)">
			<desc>Spine Switch</desc>
			<rect x="0" y="457.27" width="55.5591" height="17.0079" class="st8"/>
			<text x="7.18" y="468.17" class="st9">Spine Switch</text>		</g>
		<g id="shape240-115" transform="translate(337.84,-290.926)">
			<desc>Network Controller</desc>
			<rect x="0" y="457.27" width="55.5591" height="17.0079" class="st8"/>
			<text x="13.69" y="463.37" class="st9">Network <tspan x="11.37" dy="1.2em" class="st10">Controller</tspan></text>		</g>
		<g id="shape241-119" transform="translate(26.8789,-111.918)">
			<desc>NMOS Sender, S1</desc>
			<rect x="0" y="457.27" width="70.8661" height="17.0079" class="st8"/>
			<text x="6.86" y="468.17" class="st9">NMOS Sender, S1</text>		</g>
		<g id="shape243-122" transform="translate(375.54,-111.635)">
			<desc>Non-NMOS Receiver, R3</desc>
			<rect x="0" y="457.27" width="87.874" height="17.0079" class="st8"/>
			<text x="4.47" y="468.17" class="st9">Non-NMOS Receiver, R3</text>		</g>
		<g id="shape244-125" transform="translate(18.375,-92.6427)">
			<desc>Dest. IP address = 239.1.2.3 Dest. Port = 4500 (Video) Dest. ...</desc>
			<rect x="0" y="457.27" width="87.874" height="17.0079" class="st8"/>
			<text x="10.28" y="460.37" class="st11">Dest. IP address = 239.1.2.3 <tspan x="13.33" dy="1.2em" class="st10">Dest</tspan>. Port = 4500 (Video) <tspan
						x="15.93" dy="1.2em" class="st10">Dest</tspan>. Port = 4510 (FEC)</text>		</g>
		<g id="shape246-130" transform="translate(358.532,-94.3435)">
			<desc>Dest. IP address = 235.7.8.9 Dest. Port = 10500 (Video) Dest....</desc>
			<rect x="0" y="457.27" width="121.89" height="17.0079" class="st8"/>
			<text x="27.29" y="456.77" class="st11">Dest. IP address = 235.7.8.9 <tspan x="28.82" dy="1.2em" class="st10">Dest</tspan>. Port = 10500 (Video) <tspan
						x="31.42" dy="1.2em" class="st10">Dest</tspan>. Port = 10510 (FEC) <tspan x="14.01" dy="1.2em" class="st10">(</tspan>Receiver cannot be tuned using IS-05)</text>		</g>
		<g id="group252-136" transform="translate(298.438,-377.808)">
			<g id="shape253-137" transform="translate(0,-4.72617)">
				<path d="M48.01 456.87 L48.01 462.86 L51.62 462.86 L55.04 467.14 L70.87 467.14 L70.87 412.86 L48.01 412.86 L48.01
							 420.65 L57.81 420.65 L57.81 456.87 L48.01 456.87 ZM57.81 420.65 L3.53 420.65 L3.53 456.87 L57.81 456.87
							 L57.81 420.65 ZM60.73 474.28 L51.62 462.86 L9.11 462.86 L0 474.28 L60.73 474.28 ZM35.14 456.87 L25.59
							 456.87 L25.59 462.86 L35.14 462.86 L35.14 456.87 Z" class="st12"/>
			</g>
			<g id="shape254-139" transform="translate(7.05282,-25.393)">
				<path d="M47.32 444.91 L0 444.91 L0 474.28 L47.32 474.28 L47.32 444.91 Z" class="st12"/>
			</g>
			<g id="shape255-141" transform="translate(8.26528,-7.08364)">
				<path d="M53.45 421.3 L58.34 421.3 L58.34 419.39 L53.45 419.39 L53.45 421.3 ZM53.45 424.7 L58.34 424.7 L58.34 422.79
							 L53.45 422.79 L53.45 424.7 ZM41.47 469.85 L38.77 469.85 L40.28 471.53 L43.19 471.53 L41.47 469.85 ZM38.42
							 466.87 L36.1 466.87 L37.72 468.67 L40.27 468.67 L38.42 466.87 ZM37.32 469.85 L34.62 469.85 L35.81 471.53
							 L38.72 471.53 L37.32 469.85 ZM34.84 466.87 L32.52 466.87 L33.79 468.67 L36.35 468.67 L34.84 466.87 ZM33.17
							 469.85 L30.47 469.85 L31.33 471.53 L34.24 471.53 L33.17 469.85 ZM31.27 466.87 L28.95 466.87 L29.88 468.71
							 L32.44 468.71 L31.27 466.87 ZM29.02 469.85 L26.32 469.85 L26.86 471.53 L29.77 471.53 L29.02 469.85 ZM27.75
							 466.99 L25.4 466.99 L25.95 468.71 L28.51 468.71 L27.75 466.99 ZM24.87 469.85 L22.17 469.85 L22.38 471.53
							 L25.29 471.53 L24.87 469.85 ZM24.18 467.14 L21.82 467.14 L22.04 468.82 L24.61 468.82 L24.18 467.14 ZM20.55
							 467.14 L18.19 467.14 L18.08 468.82 L20.65 468.82 L20.55 467.14 ZM20.71 469.85 L18.01 469.85 L17.9 471.53
							 L20.81 471.53 L20.71 469.85 ZM16.93 467.14 L14.57 467.14 L14.13 468.82 L16.7 468.82 L16.93 467.14 ZM16.56
							 469.85 L13.86 469.85 L13.43 471.53 L16.34 471.53 L16.56 469.85 ZM31.37 472.6 L12.32 472.6 L11.83 474.28
							 L32.19 474.28 L31.37 472.6 ZM13.3 467.14 L10.94 467.14 L10.18 468.82 L12.75 468.82 L13.3 467.14 ZM12.41
							 469.85 L9.71 469.85 L8.95 471.53 L11.86 471.53 L12.41 469.85 ZM9.67 467.14 L7.31 467.14 L6.22 468.82
							 L8.79 468.82 L9.67 467.14 ZM8.26 469.85 L5.56 469.85 L4.48 471.53 L7.39 471.53 L8.26 469.85 ZM6.04 467.14
							 L3.68 467.14 L2.27 468.82 L4.84 468.82 L6.04 467.14 ZM4.11 469.85 L1.41 469.85 L0 471.53 L2.91 471.53
							 L4.11 469.85 Z" class="st2"/>
			</g>
		</g>
		<g id="shape256-144" transform="translate(-141.527,139.985) rotate(-89.5724)">
			<path d="M0 474.28 L17.01 462.94 L17.01 468.61 L37.99 468.61 L37.99 474.28 L37.99 479.95 L17.01 479.95 L17.01 485.62
						 L0 474.28 Z" class="st13"/>
		</g>
		<g id="shape257-146" transform="translate(363.068,-405.588)">
			<desc>Broadcast Controller</desc>
			<rect x="0" y="457.27" width="55.5591" height="17.0079" class="st8"/>
			<text x="11.57" y="463.37" class="st9">Broadcast <tspan x="11.37" dy="1.2em" class="st10">Controller</tspan></text>		</g>
		<g id="shape261-150" transform="translate(338.123,-343.225)">
			<desc>IS-06</desc>
			<rect x="0" y="457.27" width="55.5591" height="17.0079" class="st8"/>
			<text x="19.65" y="468.17" class="st9">IS-06</text>		</g>
		<g id="shape258-153" transform="translate(104.882,-294.469)">
			<desc>2. Broadcast Controller makes IS-06 requests to Network Contr...</desc>
			<path d="M0 474.28 L167.48 474.28 L167.48 406.25 L0 406.25 L0 474.28 Z" class="st14"/>
			<path d="M167.48 424.23 L216.96 414.75" class="st5"/>
			<path d="M0 474.28 L167.48 474.28 L167.48 406.25 L0 406.25 L0 474.28" class="st5"/>
			<text x="4" y="419.26" class="st15">2. Broadcast Controller makes IS-06 <tspan x="4" dy="1.2em" class="st10">requests to Network Controller to set </tspan><tspan
						x="4" dy="1.2em" class="st10">up two NAT policies to translate dest</tspan>. <tspan x="4" dy="1.2em"
						class="st10">IP address and dest</tspan>. port for both <tspan x="4" dy="1.2em" class="st10">video and FEC streams for Receiver R</tspan>3</text>		</g>
		<g id="shape260-162" transform="translate(45.3543,-381.493)">
			<desc>1. Non-NMOS Receiver R3 is tuned to a fixed dest. IP address ...</desc>
			<path d="M0 474.28 L221.34 474.28 L221.34 406.25 L0 406.25 L0 474.28 Z" class="st14"/>
			<path d="M221.34 440.77 L252.96 440.91" class="st5"/>
			<path d="M0 474.28 L221.34 474.28 L221.34 406.25 L0 406.25 L0 474.28" class="st5"/>
			<text x="4" y="419.26" class="st15">1. Non-NMOS Receiver R3 is tuned to a fixed dest. IP <tspan x="4" dy="1.2em"
						class="st10">address with separate dest</tspan>. ports for video and FEC. <tspan x="4" dy="1.2em"
						class="st10">Broadcast Controller operator wishes it to receive </tspan><tspan x="4" dy="1.2em"
						class="st10">stream from Sender S</tspan>1 which is transmitting on a <tspan x="4" dy="1.2em" class="st10">different dest</tspan>. IP address with different dest. ports</text>		</g>
		<g id="shape259-171" transform="translate(382.91,-220.627)">
			<desc>3. Network Controller creates appropriate NAT policies on net...</desc>
			<path d="M0 474.28 L158.51 474.28 L158.51 414.75 L0 414.75 L0 474.28 Z" class="st14"/>
			<path d="M0 414.75 L-29.37 411.77" class="st5"/>
			<path d="M0 474.28 L158.51 474.28 L158.51 414.75 L0 414.75 L0 474.28" class="st5"/>
			<text x="4" y="429.51" class="st15">3. Network Controller creates <tspan x="4" dy="1.2em" class="st10">appropriate NAT policies on network </tspan><tspan
						x="4" dy="1.2em" class="st10">(</tspan>e.g. on Leaf Switch 2’s egress port <tspan x="4" dy="1.2em"
						class="st10">that is attached to R</tspan>3)</text>		</g>
		<g id="shape263-179" transform="translate(220.535,-34.0157)">
			<desc>4. R3 receives streams from S1, now with translated dest. IP ...</desc>
			<path d="M0 474.28 L176.31 474.28 L176.31 427.51 L0 427.51 L0 474.28 Z" class="st14"/>
			<path d="M108.74 427.51 L153.64 376.48" class="st5"/>
			<path d="M0 474.28 L176.31 474.28 L176.31 427.51 L0 427.51 L0 474.28" class="st5"/>
			<text x="4" y="441.89" class="st15">4. R3 receives streams from S1, now with <tspan x="4" dy="1.2em" class="st10">translated dest</tspan>. IP address 235.7.8.9 and <tspan
						x="4" dy="1.2em" class="st10">dest</tspan>. Ports 10500 and 10510</text>		</g>
	</g>
</svg>
