<?xml version="1.0" encoding="UTF-8" standalone="no"?>
<!DOCTYPE svg PUBLIC "-//W3C//DTD SVG 1.1//EN" "http://www.w3.org/Graphics/SVG/1.1/DTD/svg11.dtd">
<!-- Generated by Microsoft Visio, SVG Export NAT3.svg NAT 3 -->
<svg xmlns="http://www.w3.org/2000/svg" xmlns:xlink="http://www.w3.org/1999/xlink" xmlns:ev="http://www.w3.org/2001/xml-events"
		width="13.633in" height="6.76819in" viewBox="0 0 981.578 487.309" xml:space="preserve" color-interpolation-filters="sRGB"
		class="st21">
	<style type="text/css">
	<![CDATA[
		.st1 {fill:#ddd6e5;stroke:#000000;stroke-linecap:round;stroke-linejoin:round;stroke-width:0.75}
		.st2 {fill:#000000}
		.st3 {fill:#000000;stroke:#000000;stroke-linecap:round;stroke-linejoin:round;stroke-width:0.75}
		.st4 {fill:#ffffff;stroke:#000000;stroke-linecap:round;stroke-linejoin:round;stroke-width:0.75}
		.st5 {fill:#ffffff;stroke:#000000;stroke-linecap:round;stroke-linejoin:round;stroke-width:0.24}
		.st6 {stroke:#ff0000;stroke-linecap:round;stroke-linejoin:round;stroke-width:0.75}
		.st7 {fill:#fbd7bb;stroke:#000000;stroke-linecap:round;stroke-linejoin:round;stroke-width:0.75}
		.st8 {stroke:#000000;stroke-linecap:round;stroke-linejoin:round;stroke-width:0.75}
		.st9 {stroke:#ff0000;stroke-dasharray:0.75,1.5;stroke-linecap:round;stroke-linejoin:round;stroke-width:0.75}
		.st10 {fill:#ebf1df}
		.st11 {fill:none;stroke:none;stroke-linecap:round;stroke-linejoin:round;stroke-width:0.75}
		.st12 {fill:#000000;font-family:Calibri;font-size:0.666664em}
		.st13 {font-size:1em}
		.st14 {fill:#dbeef3;stroke:#000000;stroke-linecap:round;stroke-linejoin:round;stroke-width:0.75}
		.st15 {fill:#fcebdd;stroke:#000000;stroke-linecap:round;stroke-linejoin:round;stroke-width:0.24}
		.st16 {stroke:#ff0000;stroke-linecap:round;stroke-linejoin:round;stroke-width:1.5}
		.st17 {fill:#000000;font-family:Calibri;font-size:0.833336em}
		.st18 {stroke:#1f477d;stroke-dasharray:0.75,1.5;stroke-linecap:round;stroke-linejoin:round;stroke-width:0.75}
		.st19 {fill:#000000;font-family:Calibri;font-size:0.499992em}
		.st20 {fill:#ffffff}
		.st21 {fill:none;fill-rule:evenodd;font-size:12px;overflow:visible;stroke-linecap:square;stroke-miterlimit:3}
	]]>
	</style>

	<g>
		<g id="group10-1" transform="translate(204.665,-190.404)">
			<g id="shape11-2" transform="translate(0,-23.9715)">
				<path d="M65.4 487.31 L66.82 484.47 L4.05 484.47 L5.46 487.31 L65.4 487.31 ZM0 483.12 L70.87 483.12 L70.87 464.39
							 L0 464.39 L0 483.12 Z" class="st1"/>
			</g>
			<g id="shape12-4" transform="translate(54.6669,-31.7016)">
				<rect x="0" y="475.777" width="12.1507" height="11.532" class="st1"/>
			</g>
			<g id="shape13-6" transform="translate(5.61827,-32.827)">
				<path d="M4.98 483.67 L0 483.67 L0 486.06 L1.3 486.06 L1.3 487.31 L3.69 487.31 L3.69 486.06 L4.98 486.06 L4.98 483.67
							 ZM12.99 483.67 L8.01 483.67 L8.01 486.06 L9.3 486.06 L9.3 487.31 L11.7 487.31 L11.7 486.06 L12.99 486.06
							 L12.99 483.67 ZM21 483.67 L16.02 483.67 L16.02 486.06 L17.31 486.06 L17.31 487.31 L19.7 487.31 L19.7
							 486.06 L21 486.06 L21 483.67 ZM29.01 483.67 L24.02 483.67 L24.02 486.06 L25.32 486.06 L25.32 487.31
							 L27.71 487.31 L27.71 486.06 L29.01 486.06 L29.01 483.67 ZM37.02 483.67 L32.03 483.67 L32.03 486.06 L33.33
							 486.06 L33.33 487.31 L35.72 487.31 L35.72 486.06 L37.02 486.06 L37.02 483.67 ZM37.02 477.9 L32.03 477.9
							 L32.03 480.29 L33.33 480.29 L33.33 481.54 L35.72 481.54 L35.72 480.29 L37.02 480.29 L37.02 477.9 ZM29.01
							 477.9 L24.02 477.9 L24.02 480.29 L25.32 480.29 L25.32 481.54 L27.71 481.54 L27.71 480.29 L29.01 480.29
							 L29.01 477.9 ZM21 477.9 L16.02 477.9 L16.02 480.29 L17.31 480.29 L17.31 481.54 L19.7 481.54 L19.7 480.29
							 L21 480.29 L21 477.9 ZM12.99 477.9 L8.01 477.9 L8.01 480.29 L9.3 480.29 L9.3 481.54 L11.7 481.54 L11.7
							 480.29 L12.99 480.29 L12.99 477.9 ZM4.98 477.9 L0 477.9 L0 480.29 L1.3 480.29 L1.3 481.54 L3.69 481.54
							 L3.69 480.29 L4.98 480.29 L4.98 477.9 Z" class="st2"/>
			</g>
			<g id="shape14-9" transform="translate(55.6646,-33.6193)">
				<path d="M5.63 483.19 L7.14 481.24 L8.86 481.24 L7.97 482.12 L9 482.12 L10.16 480.86 L9.01 479.61 L7.96 479.61 L8.85
							 480.49 L6.61 480.49 L5.08 482.47 L3.55 480.49 L1.31 480.49 L2.19 479.61 L1.15 479.61 L0 480.86 L1.15
							 482.12 L2.19 482.12 L1.3 481.24 L3.01 481.24 L4.52 483.19 L2.6 485.68 L1.3 485.69 L2.19 484.81 L1.15
							 484.81 L0 486.06 L1.15 487.31 L2.19 487.31 L1.31 486.43 L3.14 486.43 L5.08 483.92 L7.02 486.43 L8.85
							 486.43 L7.96 487.31 L9.01 487.31 L10.16 486.06 L9 484.81 L7.97 484.81 L8.86 485.69 L7.55 485.68 L5.63
							 483.19 Z" class="st2"/>
			</g>
		</g>
		<g id="group15-12" transform="translate(92.697,-95.4435) scale(-1,1)">
			<g id="shape16-13" transform="translate(13.9504,-45.5452)">
				<path d="M23.59 481.87 L22.93 479.65 L1.42 479.65 L0 487.31 L2.13 487.31 L3.16 481.75 L21.37 481.75 L23.04 487.31
							 L25.22 487.31 L24.25 484.05 L33.11 484.05 L33.11 481.87 L23.59 481.87 Z" class="st3"/>
			</g>
			<g id="shape17-15" transform="translate(0,-17.5408)">
				<path d="M53.2 467.23 C52.6 467.23 51.76 466.88 51.35 466.45 L45.22 460.09 C44.81 459.66 43.98 459.31 43.38 459.31
							 L7.07 459.31 C6.47 459.31 5.98 459.8 5.98 460.4 L5.98 461.15 C5.98 461.75 5.49 462.24 4.89 462.24 L1.09
							 462.24 C0.49 462.24 0 462.73 0 463.33 L0 476.04 C0 476.64 0.49 477.13 1.09 477.13 L4.34 477.13 C4.94
							 477.13 5.43 477.62 5.43 478.22 L5.43 482.72 C5.43 483.32 5.92 483.81 6.52 483.81 L49.03 483.81 C49.63
							 483.81 50.32 483.36 50.57 482.82 L51.62 480.45 C51.86 479.9 52.55 479.45 53.15 479.45 L56.19 479.45
							 C56.79 479.45 57.7 479.7 58.21 480.01 L69.93 487 C70.44 487.31 70.87 487.07 70.87 486.47 L70.87 461.66
							 C70.87 461.06 70.42 460.79 69.88 461.05 L58.1 466.76 C57.56 467.02 56.63 467.23 56.03 467.23 L53.2 467.23
							 Z" class="st4"/>
			</g>
			<g id="shape18-17" transform="translate(39.9362,-36.7701)">
				<path d="M4.16 485.23 A2.07949 2.07949 -180 1 0 0 485.23 A2.07949 2.07949 -180 1 0 4.16 485.23 ZM24.57 474.19 C24.57
							 472.29 23.04 470.75 21.14 470.75 L9.14 470.75 C7.24 470.75 5.7 472.29 5.7 474.19 C5.7 476.08 7.24 477.62
							 9.14 477.62 L21.14 477.62 C23.04 477.62 24.57 476.08 24.57 474.19 Z" class="st4"/>
			</g>
			<g id="shape19-19" transform="translate(13.5163,-34.9559)">
				<path d="M12.72 487.31 L23.41 487.31 L23.41 481.31 L12.72 481.31 L12.72 487.31 ZM9.73 484.05 A1.04883 1.04883 -180
							 1 0 7.63 484.05 A1.04883 1.04883 -180 1 0 9.73 484.05 ZM5.91 484.05 A1.0481 1.0481 -180 1 0 3.82 484.05
							 A1.0481 1.0481 -180 1 0 5.91 484.05 ZM2.1 484.05 A1.04883 1.04883 -180 1 0 -0 484.05 A1.04883 1.04883
							 -180 1 0 2.1 484.05 Z" class="st2"/>
			</g>
		</g>
		<g id="group25-22" transform="translate(155.059,-64.1161)">
			<g id="shape23-23" transform="translate(0,-34.5872)">
				<path d="M0 481.29 A6.02362 6.02362 0 0 1 12.05 481.29 A6.02362 6.02362 0 1 1 0 481.29 Z" class="st5"/>
			</g>
			<g id="shape24-25" transform="translate(9.93898,938.477) rotate(180)">
				<path d="M0 487.31 L7.83 487.31 L5.38 451.17 L2.45 451.17 L0 487.31 Z" class="st5"/>
			</g>
		</g>
		<g id="group47-27" transform="translate(116.791,-140.798)">
			<g id="shape48-28" transform="translate(0,-23.9715)">
				<path d="M65.4 487.31 L66.82 484.47 L4.05 484.47 L5.46 487.31 L65.4 487.31 ZM0 483.12 L70.87 483.12 L70.87 464.39
							 L0 464.39 L0 483.12 Z" class="st1"/>
			</g>
			<g id="shape49-30" transform="translate(54.6669,-31.7016)">
				<rect x="0" y="475.777" width="12.1507" height="11.532" class="st1"/>
			</g>
			<g id="shape50-32" transform="translate(5.61827,-32.827)">
				<path d="M4.98 483.67 L0 483.67 L0 486.06 L1.3 486.06 L1.3 487.31 L3.69 487.31 L3.69 486.06 L4.98 486.06 L4.98 483.67
							 ZM12.99 483.67 L8.01 483.67 L8.01 486.06 L9.3 486.06 L9.3 487.31 L11.7 487.31 L11.7 486.06 L12.99 486.06
							 L12.99 483.67 ZM21 483.67 L16.02 483.67 L16.02 486.06 L17.31 486.06 L17.31 487.31 L19.7 487.31 L19.7
							 486.06 L21 486.06 L21 483.67 ZM29.01 483.67 L24.02 483.67 L24.02 486.06 L25.32 486.06 L25.32 487.31
							 L27.71 487.31 L27.71 486.06 L29.01 486.06 L29.01 483.67 ZM37.02 483.67 L32.03 483.67 L32.03 486.06 L33.33
							 486.06 L33.33 487.31 L35.72 487.31 L35.72 486.06 L37.02 486.06 L37.02 483.67 ZM37.02 477.9 L32.03 477.9
							 L32.03 480.29 L33.33 480.29 L33.33 481.54 L35.72 481.54 L35.72 480.29 L37.02 480.29 L37.02 477.9 ZM29.01
							 477.9 L24.02 477.9 L24.02 480.29 L25.32 480.29 L25.32 481.54 L27.71 481.54 L27.71 480.29 L29.01 480.29
							 L29.01 477.9 ZM21 477.9 L16.02 477.9 L16.02 480.29 L17.31 480.29 L17.31 481.54 L19.7 481.54 L19.7 480.29
							 L21 480.29 L21 477.9 ZM12.99 477.9 L8.01 477.9 L8.01 480.29 L9.3 480.29 L9.3 481.54 L11.7 481.54 L11.7
							 480.29 L12.99 480.29 L12.99 477.9 ZM4.98 477.9 L0 477.9 L0 480.29 L1.3 480.29 L1.3 481.54 L3.69 481.54
							 L3.69 480.29 L4.98 480.29 L4.98 477.9 Z" class="st2"/>
			</g>
			<g id="shape51-35" transform="translate(55.6646,-33.6193)">
				<path d="M5.63 483.19 L7.14 481.24 L8.86 481.24 L7.97 482.12 L9 482.12 L10.16 480.86 L9.01 479.61 L7.96 479.61 L8.85
							 480.49 L6.61 480.49 L5.08 482.47 L3.55 480.49 L1.31 480.49 L2.19 479.61 L1.15 479.61 L0 480.86 L1.15
							 482.12 L2.19 482.12 L1.3 481.24 L3.01 481.24 L4.52 483.19 L2.6 485.68 L1.3 485.69 L2.19 484.81 L1.15
							 484.81 L0 486.06 L1.15 487.31 L2.19 487.31 L1.31 486.43 L3.14 486.43 L5.08 483.92 L7.02 486.43 L8.85
							 486.43 L7.96 487.31 L9.01 487.31 L10.16 486.06 L9 484.81 L7.97 484.81 L8.86 485.69 L7.55 485.68 L5.63
							 483.19 Z" class="st2"/>
			</g>
		</g>
		<g id="group52-38" transform="translate(286.02,-140.798)">
			<g id="shape53-39" transform="translate(0,-23.9715)">
				<path d="M65.4 487.31 L66.82 484.47 L4.05 484.47 L5.46 487.31 L65.4 487.31 ZM0 483.12 L70.87 483.12 L70.87 464.39
							 L0 464.39 L0 483.12 Z" class="st1"/>
			</g>
			<g id="shape54-41" transform="translate(54.6669,-31.7016)">
				<rect x="0" y="475.777" width="12.1507" height="11.532" class="st1"/>
			</g>
			<g id="shape55-43" transform="translate(5.61827,-32.827)">
				<path d="M4.98 483.67 L0 483.67 L0 486.06 L1.3 486.06 L1.3 487.31 L3.69 487.31 L3.69 486.06 L4.98 486.06 L4.98 483.67
							 ZM12.99 483.67 L8.01 483.67 L8.01 486.06 L9.3 486.06 L9.3 487.31 L11.7 487.31 L11.7 486.06 L12.99 486.06
							 L12.99 483.67 ZM21 483.67 L16.02 483.67 L16.02 486.06 L17.31 486.06 L17.31 487.31 L19.7 487.31 L19.7
							 486.06 L21 486.06 L21 483.67 ZM29.01 483.67 L24.02 483.67 L24.02 486.06 L25.32 486.06 L25.32 487.31
							 L27.71 487.31 L27.71 486.06 L29.01 486.06 L29.01 483.67 ZM37.02 483.67 L32.03 483.67 L32.03 486.06 L33.33
							 486.06 L33.33 487.31 L35.72 487.31 L35.72 486.06 L37.02 486.06 L37.02 483.67 ZM37.02 477.9 L32.03 477.9
							 L32.03 480.29 L33.33 480.29 L33.33 481.54 L35.72 481.54 L35.72 480.29 L37.02 480.29 L37.02 477.9 ZM29.01
							 477.9 L24.02 477.9 L24.02 480.29 L25.32 480.29 L25.32 481.54 L27.71 481.54 L27.71 480.29 L29.01 480.29
							 L29.01 477.9 ZM21 477.9 L16.02 477.9 L16.02 480.29 L17.31 480.29 L17.31 481.54 L19.7 481.54 L19.7 480.29
							 L21 480.29 L21 477.9 ZM12.99 477.9 L8.01 477.9 L8.01 480.29 L9.3 480.29 L9.3 481.54 L11.7 481.54 L11.7
							 480.29 L12.99 480.29 L12.99 477.9 ZM4.98 477.9 L0 477.9 L0 480.29 L1.3 480.29 L1.3 481.54 L3.69 481.54
							 L3.69 480.29 L4.98 480.29 L4.98 477.9 Z" class="st2"/>
			</g>
			<g id="shape56-46" transform="translate(55.6646,-33.6193)">
				<path d="M5.63 483.19 L7.14 481.24 L8.86 481.24 L7.97 482.12 L9 482.12 L10.16 480.86 L9.01 479.61 L7.96 479.61 L8.85
							 480.49 L6.61 480.49 L5.08 482.47 L3.55 480.49 L1.31 480.49 L2.19 479.61 L1.15 479.61 L0 480.86 L1.15
							 482.12 L2.19 482.12 L1.3 481.24 L3.01 481.24 L4.52 483.19 L2.6 485.68 L1.3 485.69 L2.19 484.81 L1.15
							 484.81 L0 486.06 L1.15 487.31 L2.19 487.31 L1.31 486.43 L3.14 486.43 L5.08 483.92 L7.02 486.43 L8.85
							 486.43 L7.96 487.31 L9.01 487.31 L10.16 486.06 L9 484.81 L7.97 484.81 L8.86 485.69 L7.55 485.68 L5.63
							 483.19 Z" class="st2"/>
			</g>
		</g>
		<g id="shape59-49" transform="translate(700.195,262.89) rotate(90)">
			<path d="M0 487.31 L28.35 487.31" class="st6"/>
		</g>
		<g id="shape60-52" transform="translate(708.132,262.89) rotate(90)">
			<path d="M0 487.31 L28.35 487.31" class="st6"/>
		</g>
		<g id="shape61-55" transform="translate(220.823,-196.073)">
			<path d="M0 487.31 L73.42 487.31" class="st6"/>
		</g>
		<g id="shape62-58" transform="translate(781.55,291.236) rotate(90)">
			<path d="M0 487.31 L15.31 487.31" class="st6"/>
		</g>
		<g id="shape63-61" transform="translate(125.012,-181.617)">
			<path d="M87.87 472.85 L0 472.85 L0 487.31" class="st6"/>
		</g>
		<g id="shape65-64" transform="translate(92.697,-130.877)">
			<path d="M32.31 442.52 L32.31 487.31 L0 487.31" class="st6"/>
		</g>
		<g id="shape118-67" transform="translate(326.272,-130.877)">
			<path d="M0 443.37 L0 487.31 L51.31 487.31" class="st6"/>
		</g>
		<g id="group151-70" transform="translate(100.634,-52.9239) scale(-1,1)">
			<g id="shape152-71" transform="translate(13.9504,-45.5452)">
				<path d="M23.59 481.87 L22.93 479.65 L1.42 479.65 L0 487.31 L2.13 487.31 L3.16 481.75 L21.37 481.75 L23.04 487.31
							 L25.22 487.31 L24.25 484.05 L33.11 484.05 L33.11 481.87 L23.59 481.87 Z" class="st3"/>
			</g>
			<g id="shape153-73" transform="translate(0,-17.5408)">
				<path d="M53.2 467.23 C52.6 467.23 51.76 466.88 51.35 466.45 L45.22 460.09 C44.81 459.66 43.98 459.31 43.38 459.31
							 L7.07 459.31 C6.47 459.31 5.98 459.8 5.98 460.4 L5.98 461.15 C5.98 461.75 5.49 462.24 4.89 462.24 L1.09
							 462.24 C0.49 462.24 0 462.73 0 463.33 L0 476.04 C0 476.64 0.49 477.13 1.09 477.13 L4.34 477.13 C4.94
							 477.13 5.43 477.62 5.43 478.22 L5.43 482.72 C5.43 483.32 5.92 483.81 6.52 483.81 L49.03 483.81 C49.63
							 483.81 50.32 483.36 50.57 482.82 L51.62 480.45 C51.86 479.9 52.55 479.45 53.15 479.45 L56.19 479.45
							 C56.79 479.45 57.7 479.7 58.21 480.01 L69.93 487 C70.44 487.31 70.87 487.07 70.87 486.47 L70.87 461.66
							 C70.87 461.06 70.42 460.79 69.88 461.05 L58.1 466.76 C57.56 467.02 56.63 467.23 56.03 467.23 L53.2 467.23
							 Z" class="st4"/>
			</g>
			<g id="shape154-75" transform="translate(39.9362,-36.7701)">
				<path d="M4.16 485.23 A2.07949 2.07949 -180 1 0 0 485.23 A2.07949 2.07949 -180 1 0 4.16 485.23 ZM24.57 474.19 C24.57
							 472.29 23.04 470.75 21.14 470.75 L9.14 470.75 C7.24 470.75 5.7 472.29 5.7 474.19 C5.7 476.08 7.24 477.62
							 9.14 477.62 L21.14 477.62 C23.04 477.62 24.57 476.08 24.57 474.19 Z" class="st4"/>
			</g>
			<g id="shape155-77" transform="translate(13.5163,-34.9559)">
				<path d="M12.72 487.31 L23.41 487.31 L23.41 481.31 L12.72 481.31 L12.72 487.31 ZM9.73 484.05 A1.04883 1.04883 -180
							 1 0 7.63 484.05 A1.04883 1.04883 -180 1 0 9.73 484.05 ZM5.91 484.05 A1.0481 1.0481 -180 1 0 3.82 484.05
							 A1.0481 1.0481 -180 1 0 5.91 484.05 ZM2.1 484.05 A1.04883 1.04883 -180 1 0 -0 484.05 A1.04883 1.04883
							 -180 1 0 2.1 484.05 Z" class="st2"/>
			</g>
		</g>
		<g id="shape156-80" transform="translate(100.634,-88.3569)">
			<path d="M32.31 400 L32.31 487.31 L0 487.31" class="st6"/>
		</g>
		<g id="shape157-83" transform="translate(628.195,311.645) rotate(90)">
			<path d="M87.31 471.01 L87.31 487.31 L0 487.31" class="st6"/>
		</g>
		<g id="group163-86" transform="translate(191.91,-95.4435)">
			<g id="shape164-87" transform="translate(0,-3.86051)">
				<path d="M70.87 475.89 L70.87 435.15 L0 435.15 L0 475.89 L70.87 475.89 ZM42.96 475.89 L27.91 475.89 L27.91 480.09
							 C22.76 480.73 19.26 482.01 19.26 483.48 C19.26 485.6 26.5 487.31 35.43 487.31 C44.37 487.31 51.61 485.6
							 51.61 483.48 C51.61 482.01 48.1 480.73 42.96 480.09 L42.96 475.89 Z" class="st4"/>
			</g>
			<g id="shape165-89" transform="translate(2.85165,-17.6912)">
				<rect x="-1.18946E-007" y="451.39" width="65.1635" height="35.9195" class="st4"/>
			</g>
		</g>
		<g id="shape166-91" transform="translate(781.55,311.818) rotate(90)">
			<path d="M0 487.31 L44.61 487.31" class="st6"/>
		</g>
		<g id="shape167-94" transform="translate(294.24,843.742) rotate(180)">
			<path d="M0 487.31 L31.46 487.31" class="st6"/>
		</g>
		<g id="group168-97" transform="translate(378.173,-95.4435)">
			<g id="shape169-98" transform="translate(0,-3.86051)">
				<path d="M70.87 475.89 L70.87 435.15 L0 435.15 L0 475.89 L70.87 475.89 ZM42.96 475.89 L27.91 475.89 L27.91 480.09
							 C22.76 480.73 19.26 482.01 19.26 483.48 C19.26 485.6 26.5 487.31 35.43 487.31 C44.37 487.31 51.61 485.6
							 51.61 483.48 C51.61 482.01 48.1 480.73 42.96 480.09 L42.96 475.89 Z" class="st4"/>
			</g>
			<g id="shape170-100" transform="translate(2.85165,-17.6912)">
				<rect x="-1.18946E-007" y="451.39" width="65.1635" height="35.9195" class="st4"/>
			</g>
		</g>
		<g id="shape171-102" transform="translate(269.862,-77.3716)">
			<path d="M32.31 389.02 L32.31 487.31 L0 487.31" class="st6"/>
		</g>
		<g id="group172-105" transform="translate(200.413,-36.9801)">
			<g id="shape173-106" transform="translate(0,-3.86051)">
				<path d="M70.87 475.89 L70.87 435.15 L0 435.15 L0 475.89 L70.87 475.89 ZM42.96 475.89 L27.91 475.89 L27.91 480.09
							 C22.76 480.73 19.26 482.01 19.26 483.48 C19.26 485.6 26.5 487.31 35.43 487.31 C44.37 487.31 51.61 485.6
							 51.61 483.48 C51.61 482.01 48.1 480.73 42.96 480.09 L42.96 475.89 Z" class="st4"/>
			</g>
			<g id="shape174-108" transform="translate(2.85165,-17.6912)">
				<rect x="-1.18946E-007" y="451.39" width="65.1635" height="35.9195" class="st4"/>
			</g>
		</g>
		<g id="group175-110" transform="translate(326.555,-37.3333)">
			<g id="shape176-111" transform="translate(0,-3.86051)">
				<path d="M70.87 475.89 L70.87 435.15 L0 435.15 L0 475.89 L70.87 475.89 ZM42.96 475.89 L27.91 475.89 L27.91 480.09
							 C22.76 480.73 19.26 482.01 19.26 483.48 C19.26 485.6 26.5 487.31 35.43 487.31 C44.37 487.31 51.61 485.6
							 51.61 483.48 C51.61 482.01 48.1 480.73 42.96 480.09 L42.96 475.89 Z" class="st4"/>
			</g>
			<g id="shape177-113" transform="translate(2.85165,-17.6912)">
				<rect x="-1.18946E-007" y="451.39" width="65.1635" height="35.9195" class="st4"/>
			</g>
		</g>
		<g id="shape178-115" transform="translate(310.256,-77.2299)">
			<path d="M0 389.02 L0 487.31 L16.3 487.31" class="st6"/>
		</g>
		<g id="group227-118" transform="translate(718.829,-191.23)">
			<g id="shape228-119" transform="translate(0,-23.9715)">
				<path d="M65.4 487.31 L66.82 484.47 L4.05 484.47 L5.46 487.31 L65.4 487.31 ZM0 483.12 L70.87 483.12 L70.87 464.39
							 L0 464.39 L0 483.12 Z" class="st7"/>
			</g>
			<g id="shape229-121" transform="translate(54.6669,-31.7016)">
				<rect x="0" y="475.777" width="12.1507" height="11.532" class="st7"/>
			</g>
			<g id="shape230-123" transform="translate(5.61827,-32.827)">
				<path d="M4.98 483.67 L0 483.67 L0 486.06 L1.3 486.06 L1.3 487.31 L3.69 487.31 L3.69 486.06 L4.98 486.06 L4.98 483.67
							 ZM12.99 483.67 L8.01 483.67 L8.01 486.06 L9.3 486.06 L9.3 487.31 L11.7 487.31 L11.7 486.06 L12.99 486.06
							 L12.99 483.67 ZM21 483.67 L16.02 483.67 L16.02 486.06 L17.31 486.06 L17.31 487.31 L19.7 487.31 L19.7
							 486.06 L21 486.06 L21 483.67 ZM29.01 483.67 L24.02 483.67 L24.02 486.06 L25.32 486.06 L25.32 487.31
							 L27.71 487.31 L27.71 486.06 L29.01 486.06 L29.01 483.67 ZM37.02 483.67 L32.03 483.67 L32.03 486.06 L33.33
							 486.06 L33.33 487.31 L35.72 487.31 L35.72 486.06 L37.02 486.06 L37.02 483.67 ZM37.02 477.9 L32.03 477.9
							 L32.03 480.29 L33.33 480.29 L33.33 481.54 L35.72 481.54 L35.72 480.29 L37.02 480.29 L37.02 477.9 ZM29.01
							 477.9 L24.02 477.9 L24.02 480.29 L25.32 480.29 L25.32 481.54 L27.71 481.54 L27.71 480.29 L29.01 480.29
							 L29.01 477.9 ZM21 477.9 L16.02 477.9 L16.02 480.29 L17.31 480.29 L17.31 481.54 L19.7 481.54 L19.7 480.29
							 L21 480.29 L21 477.9 ZM12.99 477.9 L8.01 477.9 L8.01 480.29 L9.3 480.29 L9.3 481.54 L11.7 481.54 L11.7
							 480.29 L12.99 480.29 L12.99 477.9 ZM4.98 477.9 L0 477.9 L0 480.29 L1.3 480.29 L1.3 481.54 L3.69 481.54
							 L3.69 480.29 L4.98 480.29 L4.98 477.9 Z" class="st2"/>
			</g>
			<g id="shape231-126" transform="translate(55.6646,-33.6193)">
				<path d="M5.63 483.19 L7.14 481.24 L8.86 481.24 L7.97 482.12 L9 482.12 L10.16 480.86 L9.01 479.61 L7.96 479.61 L8.85
							 480.49 L6.61 480.49 L5.08 482.47 L3.55 480.49 L1.31 480.49 L2.19 479.61 L1.15 479.61 L0 480.86 L1.15
							 482.12 L2.19 482.12 L1.3 481.24 L3.01 481.24 L4.52 483.19 L2.6 485.68 L1.3 485.69 L2.19 484.81 L1.15
							 484.81 L0 486.06 L1.15 487.31 L2.19 487.31 L1.31 486.43 L3.14 486.43 L5.08 483.92 L7.02 486.43 L8.85
							 486.43 L7.96 487.31 L9.01 487.31 L10.16 486.06 L9 484.81 L7.97 484.81 L8.86 485.69 L7.55 485.68 L5.63
							 483.19 Z" class="st2"/>
			</g>
		</g>
		<g id="group232-129" transform="translate(606.861,-96.2697) scale(-1,1)">
			<g id="shape233-130" transform="translate(13.9504,-45.5452)">
				<path d="M23.59 481.87 L22.93 479.65 L1.42 479.65 L0 487.31 L2.13 487.31 L3.16 481.75 L21.37 481.75 L23.04 487.31
							 L25.22 487.31 L24.25 484.05 L33.11 484.05 L33.11 481.87 L23.59 481.87 Z" class="st3"/>
			</g>
			<g id="shape234-132" transform="translate(0,-17.5408)">
				<path d="M53.2 467.23 C52.6 467.23 51.76 466.88 51.35 466.45 L45.22 460.09 C44.81 459.66 43.98 459.31 43.38 459.31
							 L7.07 459.31 C6.47 459.31 5.98 459.8 5.98 460.4 L5.98 461.15 C5.98 461.75 5.49 462.24 4.89 462.24 L1.09
							 462.24 C0.49 462.24 0 462.73 0 463.33 L0 476.04 C0 476.64 0.49 477.13 1.09 477.13 L4.34 477.13 C4.94
							 477.13 5.43 477.62 5.43 478.22 L5.43 482.72 C5.43 483.32 5.92 483.81 6.52 483.81 L49.03 483.81 C49.63
							 483.81 50.32 483.36 50.57 482.82 L51.62 480.45 C51.86 479.9 52.55 479.45 53.15 479.45 L56.19 479.45
							 C56.79 479.45 57.7 479.7 58.21 480.01 L69.93 487 C70.44 487.31 70.87 487.07 70.87 486.47 L70.87 461.66
							 C70.87 461.06 70.42 460.79 69.88 461.05 L58.1 466.76 C57.56 467.02 56.63 467.23 56.03 467.23 L53.2 467.23
							 Z" class="st4"/>
			</g>
			<g id="shape235-134" transform="translate(39.9362,-36.7701)">
				<path d="M4.16 485.23 A2.07949 2.07949 -180 1 0 0 485.23 A2.07949 2.07949 -180 1 0 4.16 485.23 ZM24.57 474.19 C24.57
							 472.29 23.04 470.75 21.14 470.75 L9.14 470.75 C7.24 470.75 5.7 472.29 5.7 474.19 C5.7 476.08 7.24 477.62
							 9.14 477.62 L21.14 477.62 C23.04 477.62 24.57 476.08 24.57 474.19 Z" class="st4"/>
			</g>
			<g id="shape236-136" transform="translate(13.5163,-34.9559)">
				<path d="M12.72 487.31 L23.41 487.31 L23.41 481.31 L12.72 481.31 L12.72 487.31 ZM9.73 484.05 A1.04883 1.04883 -180
							 1 0 7.63 484.05 A1.04883 1.04883 -180 1 0 9.73 484.05 ZM5.91 484.05 A1.0481 1.0481 -180 1 0 3.82 484.05
							 A1.0481 1.0481 -180 1 0 5.91 484.05 ZM2.1 484.05 A1.04883 1.04883 -180 1 0 -0 484.05 A1.04883 1.04883
							 -180 1 0 2.1 484.05 Z" class="st2"/>
			</g>
		</g>
		<g id="group240-139" transform="translate(630.955,-141.624)">
			<g id="shape241-140" transform="translate(0,-23.9715)">
				<path d="M65.4 487.31 L66.82 484.47 L4.05 484.47 L5.46 487.31 L65.4 487.31 ZM0 483.12 L70.87 483.12 L70.87 464.39
							 L0 464.39 L0 483.12 Z" class="st7"/>
			</g>
			<g id="shape242-142" transform="translate(54.6669,-31.7016)">
				<rect x="0" y="475.777" width="12.1507" height="11.532" class="st7"/>
			</g>
			<g id="shape243-144" transform="translate(5.61827,-32.827)">
				<path d="M4.98 483.67 L0 483.67 L0 486.06 L1.3 486.06 L1.3 487.31 L3.69 487.31 L3.69 486.06 L4.98 486.06 L4.98 483.67
							 ZM12.99 483.67 L8.01 483.67 L8.01 486.06 L9.3 486.06 L9.3 487.31 L11.7 487.31 L11.7 486.06 L12.99 486.06
							 L12.99 483.67 ZM21 483.67 L16.02 483.67 L16.02 486.06 L17.31 486.06 L17.31 487.31 L19.7 487.31 L19.7
							 486.06 L21 486.06 L21 483.67 ZM29.01 483.67 L24.02 483.67 L24.02 486.06 L25.32 486.06 L25.32 487.31
							 L27.71 487.31 L27.71 486.06 L29.01 486.06 L29.01 483.67 ZM37.02 483.67 L32.03 483.67 L32.03 486.06 L33.33
							 486.06 L33.33 487.31 L35.72 487.31 L35.72 486.06 L37.02 486.06 L37.02 483.67 ZM37.02 477.9 L32.03 477.9
							 L32.03 480.29 L33.33 480.29 L33.33 481.54 L35.72 481.54 L35.72 480.29 L37.02 480.29 L37.02 477.9 ZM29.01
							 477.9 L24.02 477.9 L24.02 480.29 L25.32 480.29 L25.32 481.54 L27.71 481.54 L27.71 480.29 L29.01 480.29
							 L29.01 477.9 ZM21 477.9 L16.02 477.9 L16.02 480.29 L17.31 480.29 L17.31 481.54 L19.7 481.54 L19.7 480.29
							 L21 480.29 L21 477.9 ZM12.99 477.9 L8.01 477.9 L8.01 480.29 L9.3 480.29 L9.3 481.54 L11.7 481.54 L11.7
							 480.29 L12.99 480.29 L12.99 477.9 ZM4.98 477.9 L0 477.9 L0 480.29 L1.3 480.29 L1.3 481.54 L3.69 481.54
							 L3.69 480.29 L4.98 480.29 L4.98 477.9 Z" class="st2"/>
			</g>
			<g id="shape244-147" transform="translate(55.6646,-33.6193)">
				<path d="M5.63 483.19 L7.14 481.24 L8.86 481.24 L7.97 482.12 L9 482.12 L10.16 480.86 L9.01 479.61 L7.96 479.61 L8.85
							 480.49 L6.61 480.49 L5.08 482.47 L3.55 480.49 L1.31 480.49 L2.19 479.61 L1.15 479.61 L0 480.86 L1.15
							 482.12 L2.19 482.12 L1.3 481.24 L3.01 481.24 L4.52 483.19 L2.6 485.68 L1.3 485.69 L2.19 484.81 L1.15
							 484.81 L0 486.06 L1.15 487.31 L2.19 487.31 L1.31 486.43 L3.14 486.43 L5.08 483.92 L7.02 486.43 L8.85
							 486.43 L7.96 487.31 L9.01 487.31 L10.16 486.06 L9 484.81 L7.97 484.81 L8.86 485.69 L7.55 485.68 L5.63
							 483.19 Z" class="st2"/>
			</g>
		</g>
		<g id="group245-150" transform="translate(800.184,-141.624)">
			<g id="shape246-151" transform="translate(0,-23.9715)">
				<path d="M65.4 487.31 L66.82 484.47 L4.05 484.47 L5.46 487.31 L65.4 487.31 ZM0 483.12 L70.87 483.12 L70.87 464.39
							 L0 464.39 L0 483.12 Z" class="st7"/>
			</g>
			<g id="shape247-153" transform="translate(54.6669,-31.7016)">
				<rect x="0" y="475.777" width="12.1507" height="11.532" class="st7"/>
			</g>
			<g id="shape248-155" transform="translate(5.61827,-32.827)">
				<path d="M4.98 483.67 L0 483.67 L0 486.06 L1.3 486.06 L1.3 487.31 L3.69 487.31 L3.69 486.06 L4.98 486.06 L4.98 483.67
							 ZM12.99 483.67 L8.01 483.67 L8.01 486.06 L9.3 486.06 L9.3 487.31 L11.7 487.31 L11.7 486.06 L12.99 486.06
							 L12.99 483.67 ZM21 483.67 L16.02 483.67 L16.02 486.06 L17.31 486.06 L17.31 487.31 L19.7 487.31 L19.7
							 486.06 L21 486.06 L21 483.67 ZM29.01 483.67 L24.02 483.67 L24.02 486.06 L25.32 486.06 L25.32 487.31
							 L27.71 487.31 L27.71 486.06 L29.01 486.06 L29.01 483.67 ZM37.02 483.67 L32.03 483.67 L32.03 486.06 L33.33
							 486.06 L33.33 487.31 L35.72 487.31 L35.72 486.06 L37.02 486.06 L37.02 483.67 ZM37.02 477.9 L32.03 477.9
							 L32.03 480.29 L33.33 480.29 L33.33 481.54 L35.72 481.54 L35.72 480.29 L37.02 480.29 L37.02 477.9 ZM29.01
							 477.9 L24.02 477.9 L24.02 480.29 L25.32 480.29 L25.32 481.54 L27.71 481.54 L27.71 480.29 L29.01 480.29
							 L29.01 477.9 ZM21 477.9 L16.02 477.9 L16.02 480.29 L17.31 480.29 L17.31 481.54 L19.7 481.54 L19.7 480.29
							 L21 480.29 L21 477.9 ZM12.99 477.9 L8.01 477.9 L8.01 480.29 L9.3 480.29 L9.3 481.54 L11.7 481.54 L11.7
							 480.29 L12.99 480.29 L12.99 477.9 ZM4.98 477.9 L0 477.9 L0 480.29 L1.3 480.29 L1.3 481.54 L3.69 481.54
							 L3.69 480.29 L4.98 480.29 L4.98 477.9 Z" class="st2"/>
			</g>
			<g id="shape249-158" transform="translate(55.6646,-33.6193)">
				<path d="M5.63 483.19 L7.14 481.24 L8.86 481.24 L7.97 482.12 L9 482.12 L10.16 480.86 L9.01 479.61 L7.96 479.61 L8.85
							 480.49 L6.61 480.49 L5.08 482.47 L3.55 480.49 L1.31 480.49 L2.19 479.61 L1.15 479.61 L0 480.86 L1.15
							 482.12 L2.19 482.12 L1.3 481.24 L3.01 481.24 L4.52 483.19 L2.6 485.68 L1.3 485.69 L2.19 484.81 L1.15
							 484.81 L0 486.06 L1.15 487.31 L2.19 487.31 L1.31 486.43 L3.14 486.43 L5.08 483.92 L7.02 486.43 L8.85
							 486.43 L7.96 487.31 L9.01 487.31 L10.16 486.06 L9 484.81 L7.97 484.81 L8.86 485.69 L7.55 485.68 L5.63
							 483.19 Z" class="st2"/>
			</g>
		</g>
		<g id="shape250-161" transform="translate(1214.36,262.063) rotate(90)">
			<path d="M0 487.31 L28.35 487.31" class="st6"/>
		</g>
		<g id="shape251-164" transform="translate(1222.3,262.063) rotate(90)">
			<path d="M0 487.31 L28.35 487.31" class="st6"/>
		</g>
		<g id="shape252-167" transform="translate(734.987,-196.9)">
			<path d="M0 487.31 L73.42 487.31" class="st6"/>
		</g>
		<g id="shape253-170" transform="translate(1295.71,290.41) rotate(90)">
			<path d="M0 487.31 L15.31 487.31" class="st6"/>
		</g>
		<g id="shape254-173" transform="translate(639.176,-182.443)">
			<path d="M87.87 472.85 L0 472.85 L0 487.31" class="st6"/>
		</g>
		<g id="shape255-176" transform="translate(606.861,-131.703)">
			<path d="M32.31 442.52 L32.31 487.31 L0 487.31" class="st6"/>
		</g>
		<g id="shape256-179" transform="translate(840.436,-131.703)">
			<path d="M0 443.37 L0 487.31 L51.31 487.31" class="st6"/>
		</g>
		<g id="group257-182" transform="translate(614.798,-53.7501) scale(-1,1)">
			<g id="shape258-183" transform="translate(13.9504,-45.5452)">
				<path d="M23.59 481.87 L22.93 479.65 L1.42 479.65 L0 487.31 L2.13 487.31 L3.16 481.75 L21.37 481.75 L23.04 487.31
							 L25.22 487.31 L24.25 484.05 L33.11 484.05 L33.11 481.87 L23.59 481.87 Z" class="st3"/>
			</g>
			<g id="shape259-185" transform="translate(0,-17.5408)">
				<path d="M53.2 467.23 C52.6 467.23 51.76 466.88 51.35 466.45 L45.22 460.09 C44.81 459.66 43.98 459.31 43.38 459.31
							 L7.07 459.31 C6.47 459.31 5.98 459.8 5.98 460.4 L5.98 461.15 C5.98 461.75 5.49 462.24 4.89 462.24 L1.09
							 462.24 C0.49 462.24 0 462.73 0 463.33 L0 476.04 C0 476.64 0.49 477.13 1.09 477.13 L4.34 477.13 C4.94
							 477.13 5.43 477.62 5.43 478.22 L5.43 482.72 C5.43 483.32 5.92 483.81 6.52 483.81 L49.03 483.81 C49.63
							 483.81 50.32 483.36 50.57 482.82 L51.62 480.45 C51.86 479.9 52.55 479.45 53.15 479.45 L56.19 479.45
							 C56.79 479.45 57.7 479.7 58.21 480.01 L69.93 487 C70.44 487.31 70.87 487.07 70.87 486.47 L70.87 461.66
							 C70.87 461.06 70.42 460.79 69.88 461.05 L58.1 466.76 C57.56 467.02 56.63 467.23 56.03 467.23 L53.2 467.23
							 Z" class="st4"/>
			</g>
			<g id="shape260-187" transform="translate(39.9362,-36.7701)">
				<path d="M4.16 485.23 A2.07949 2.07949 -180 1 0 0 485.23 A2.07949 2.07949 -180 1 0 4.16 485.23 ZM24.57 474.19 C24.57
							 472.29 23.04 470.75 21.14 470.75 L9.14 470.75 C7.24 470.75 5.7 472.29 5.7 474.19 C5.7 476.08 7.24 477.62
							 9.14 477.62 L21.14 477.62 C23.04 477.62 24.57 476.08 24.57 474.19 Z" class="st4"/>
			</g>
			<g id="shape261-189" transform="translate(13.5163,-34.9559)">
				<path d="M12.72 487.31 L23.41 487.31 L23.41 481.31 L12.72 481.31 L12.72 487.31 ZM9.73 484.05 A1.04883 1.04883 -180
							 1 0 7.63 484.05 A1.04883 1.04883 -180 1 0 9.73 484.05 ZM5.91 484.05 A1.0481 1.0481 -180 1 0 3.82 484.05
							 A1.0481 1.0481 -180 1 0 5.91 484.05 ZM2.1 484.05 A1.04883 1.04883 -180 1 0 -0 484.05 A1.04883 1.04883
							 -180 1 0 2.1 484.05 Z" class="st2"/>
			</g>
		</g>
		<g id="shape262-192" transform="translate(614.798,-89.1831)">
			<path d="M32.31 400 L32.31 487.31 L0 487.31" class="st6"/>
		</g>
		<g id="shape263-195" transform="translate(1142.36,310.819) rotate(90)">
			<path d="M87.31 471.01 L87.31 487.31 L0 487.31" class="st6"/>
		</g>
		<g id="group269-198" transform="translate(892.337,-96.2697)">
			<g id="shape270-199" transform="translate(0,-3.86051)">
				<path d="M70.87 475.89 L70.87 435.15 L0 435.15 L0 475.89 L70.87 475.89 ZM42.96 475.89 L27.91 475.89 L27.91 480.09
							 C22.76 480.73 19.26 482.01 19.26 483.48 C19.26 485.6 26.5 487.31 35.43 487.31 C44.37 487.31 51.61 485.6
							 51.61 483.48 C51.61 482.01 48.1 480.73 42.96 480.09 L42.96 475.89 Z" class="st4"/>
			</g>
			<g id="shape271-201" transform="translate(2.85165,-17.6912)">
				<rect x="-1.18946E-007" y="451.39" width="65.1635" height="35.9195" class="st4"/>
			</g>
		</g>
		<g id="shape280-203" transform="translate(895.172,-137.894)">
			<path d="M0 487.31 L65.2 487.31" class="st8"/>
		</g>
		<g id="shape281-206" transform="translate(895.172,-126.034)">
			<path d="M0 487.31 L65.2 487.31" class="st8"/>
		</g>
		<g id="shape282-209" transform="translate(1403.74,337.629) rotate(90)">
			<path d="M0 487.31 L35.58 487.31" class="st8"/>
		</g>
		<g id="shape283-212" transform="translate(1426.42,337.704) rotate(90)">
			<path d="M0 487.31 L35.51 487.31" class="st8"/>
		</g>
		<g id="group284-215" transform="translate(671.235,-53.7501)">
			<g id="shape285-216" transform="translate(13.9504,-45.5452)">
				<path d="M23.59 481.87 L22.93 479.65 L1.42 479.65 L0 487.31 L2.13 487.31 L3.16 481.75 L21.37 481.75 L23.04 487.31
							 L25.22 487.31 L24.25 484.05 L33.11 484.05 L33.11 481.87 L23.59 481.87 Z" class="st3"/>
			</g>
			<g id="shape286-218" transform="translate(0,-17.5408)">
				<path d="M53.2 467.23 C52.6 467.23 51.76 466.88 51.35 466.45 L45.22 460.09 C44.81 459.66 43.98 459.31 43.38 459.31
							 L7.07 459.31 C6.47 459.31 5.98 459.8 5.98 460.4 L5.98 461.15 C5.98 461.75 5.49 462.24 4.89 462.24 L1.09
							 462.24 C0.49 462.24 0 462.73 0 463.33 L0 476.04 C0 476.64 0.49 477.13 1.09 477.13 L4.34 477.13 C4.94
							 477.13 5.43 477.62 5.43 478.22 L5.43 482.72 C5.43 483.32 5.92 483.81 6.52 483.81 L49.03 483.81 C49.63
							 483.81 50.32 483.36 50.57 482.82 L51.62 480.45 C51.86 479.9 52.55 479.45 53.15 479.45 L56.19 479.45
							 C56.79 479.45 57.7 479.7 58.21 480.01 L69.93 487 C70.44 487.31 70.87 487.07 70.87 486.47 L70.87 461.66
							 C70.87 461.06 70.42 460.79 69.88 461.05 L58.1 466.76 C57.56 467.02 56.63 467.23 56.03 467.23 L53.2 467.23
							 Z" class="st4"/>
			</g>
			<g id="shape287-220" transform="translate(39.9362,-36.7701)">
				<path d="M4.16 485.23 A2.07949 2.07949 -180 1 0 0 485.23 A2.07949 2.07949 -180 1 0 4.16 485.23 ZM24.57 474.19 C24.57
							 472.29 23.04 470.75 21.14 470.75 L9.14 470.75 C7.24 470.75 5.7 472.29 5.7 474.19 C5.7 476.08 7.24 477.62
							 9.14 477.62 L21.14 477.62 C23.04 477.62 24.57 476.08 24.57 474.19 Z" class="st4"/>
			</g>
			<g id="shape288-222" transform="translate(13.5163,-34.9559)">
				<path d="M12.72 487.31 L23.41 487.31 L23.41 481.31 L12.72 481.31 L12.72 487.31 ZM9.73 484.05 A1.04883 1.04883 -180
							 1 0 7.63 484.05 A1.04883 1.04883 -180 1 0 9.73 484.05 ZM5.91 484.05 A1.0481 1.0481 -180 1 0 3.82 484.05
							 A1.0481 1.0481 -180 1 0 5.91 484.05 ZM2.1 484.05 A1.04883 1.04883 -180 1 0 -0 484.05 A1.04883 1.04883
							 -180 1 0 2.1 484.05 Z" class="st2"/>
			</g>
		</g>
		<g id="group289-225" transform="translate(679.739,-97.6871)">
			<g id="shape290-226" transform="translate(13.9504,-45.5452)">
				<path d="M23.59 481.87 L22.93 479.65 L1.42 479.65 L0 487.31 L2.13 487.31 L3.16 481.75 L21.37 481.75 L23.04 487.31
							 L25.22 487.31 L24.25 484.05 L33.11 484.05 L33.11 481.87 L23.59 481.87 Z" class="st3"/>
			</g>
			<g id="shape291-228" transform="translate(0,-17.5408)">
				<path d="M53.2 467.23 C52.6 467.23 51.76 466.88 51.35 466.45 L45.22 460.09 C44.81 459.66 43.98 459.31 43.38 459.31
							 L7.07 459.31 C6.47 459.31 5.98 459.8 5.98 460.4 L5.98 461.15 C5.98 461.75 5.49 462.24 4.89 462.24 L1.09
							 462.24 C0.49 462.24 0 462.73 0 463.33 L0 476.04 C0 476.64 0.49 477.13 1.09 477.13 L4.34 477.13 C4.94
							 477.13 5.43 477.62 5.43 478.22 L5.43 482.72 C5.43 483.32 5.92 483.81 6.52 483.81 L49.03 483.81 C49.63
							 483.81 50.32 483.36 50.57 482.82 L51.62 480.45 C51.86 479.9 52.55 479.45 53.15 479.45 L56.19 479.45
							 C56.79 479.45 57.7 479.7 58.21 480.01 L69.93 487 C70.44 487.31 70.87 487.07 70.87 486.47 L70.87 461.66
							 C70.87 461.06 70.42 460.79 69.88 461.05 L58.1 466.76 C57.56 467.02 56.63 467.23 56.03 467.23 L53.2 467.23
							 Z" class="st4"/>
			</g>
			<g id="shape292-230" transform="translate(39.9362,-36.7701)">
				<path d="M4.16 485.23 A2.07949 2.07949 -180 1 0 0 485.23 A2.07949 2.07949 -180 1 0 4.16 485.23 ZM24.57 474.19 C24.57
							 472.29 23.04 470.75 21.14 470.75 L9.14 470.75 C7.24 470.75 5.7 472.29 5.7 474.19 C5.7 476.08 7.24 477.62
							 9.14 477.62 L21.14 477.62 C23.04 477.62 24.57 476.08 24.57 474.19 Z" class="st4"/>
			</g>
			<g id="shape293-232" transform="translate(13.5163,-34.9559)">
				<path d="M12.72 487.31 L23.41 487.31 L23.41 481.31 L12.72 481.31 L12.72 487.31 ZM9.73 484.05 A1.04883 1.04883 -180
							 1 0 7.63 484.05 A1.04883 1.04883 -180 1 0 9.73 484.05 ZM5.91 484.05 A1.0481 1.0481 -180 1 0 3.82 484.05
							 A1.0481 1.0481 -180 1 0 5.91 484.05 ZM2.1 484.05 A1.04883 1.04883 -180 1 0 -0 484.05 A1.04883 1.04883
							 -180 1 0 2.1 484.05 Z" class="st2"/>
			</g>
		</g>
		<g id="shape294-235" transform="translate(1150.39,310.819) rotate(90)">
			<path d="M44.79 471.01 L44.79 487.31 L0 487.31" class="st6"/>
		</g>
		<g id="shape295-238" transform="translate(808.432,-76.4272)">
			<path d="M0 388.1 L0 487.31 L34.3 487.31" class="st6"/>
		</g>
		<g id="group296-241" transform="translate(842.731,-40.9941)">
			<g id="shape297-242" transform="translate(0,-3.86051)">
				<path d="M70.87 475.89 L70.87 435.15 L0 435.15 L0 475.89 L70.87 475.89 ZM42.96 475.89 L27.91 475.89 L27.91 480.09
							 C22.76 480.73 19.26 482.01 19.26 483.48 C19.26 485.6 26.5 487.31 35.43 487.31 C44.37 487.31 51.61 485.6
							 51.61 483.48 C51.61 482.01 48.1 480.73 42.96 480.09 L42.96 475.89 Z" class="st4"/>
			</g>
			<g id="shape298-244" transform="translate(2.85165,-17.6912)">
				<rect x="-1.18946E-007" y="451.39" width="65.1635" height="35.9195" class="st4"/>
			</g>
		</g>
		<g id="shape299-246" transform="translate(203.528,-78.5048)">
			<path d="M0 487.31 L65.2 487.31" class="st8"/>
		</g>
		<g id="shape300-249" transform="translate(203.528,-66.644)">
			<path d="M0 487.31 L65.2 487.31" class="st8"/>
		</g>
		<g id="shape301-252" transform="translate(712.097,397.019) rotate(90)">
			<path d="M0 487.31 L35.58 487.31" class="st8"/>
		</g>
		<g id="shape302-255" transform="translate(734.774,397.093) rotate(90)">
			<path d="M0 487.31 L35.51 487.31" class="st8"/>
		</g>
		<g id="shape303-258" transform="translate(275.993,-232.484)">
			<path d="M0 487.31 L89.49 487.31" class="st9"/>
		</g>
		<g id="shape304-261" transform="translate(-165.739,254.676) rotate(-90)">
			<path d="M0 487.31 L28.2 487.31" class="st9"/>
		</g>
		<g id="group305-264" transform="translate(313.067,-260.83)">
			<g id="shape306-265" transform="translate(2.4999,5.68434E-014)">
				<path d="M0 487.31 L26.18 487.31 L26.18 443.37 L0 443.37 L0 487.31 Z" class="st10"/>
				<path d="M0 487.31 L26.18 487.31 L26.18 443.37 L0 443.37 L0 487.31" class="st8"/>
				<path d="M13.09 487.31 L13.09 443.37" class="st8"/>
			</g>
			<g id="shape307-269" transform="translate(5.09195,-3.19012)">
				<path d="M15.88 460.12 L21.66 460.12 L21.66 450.8 L15.88 450.8 L15.88 460.12 ZM6.55 454.57 L7.34 454.57 L7.34 450.6
							 L6.55 450.6 L6.55 454.57 ZM6.55 460.3 L7.34 460.3 L7.34 456.32 L6.55 456.32 L6.55 460.3 ZM4.68 454.57
							 L5.47 454.57 L5.47 450.6 L4.68 450.6 L4.68 454.57 ZM4.68 460.3 L5.47 460.3 L5.47 456.32 L4.68 456.32
							 L4.68 460.3 ZM1.87 454.57 L2.66 454.57 L2.66 450.6 L1.87 450.6 L1.87 454.57 ZM1.87 460.3 L2.66 460.3
							 L2.66 456.32 L1.87 456.32 L1.87 460.3 ZM0 454.57 L0.79 454.57 L0.79 450.6 L0 450.6 L0 454.57 ZM0 460.3
							 L0.79 460.3 L0.79 456.32 L0 456.32 L0 460.3 ZM14.88 481.83 L14.88 482.61 L21.73 482.61 L21.73 481.83
							 L14.88 481.83 ZM14.88 484.18 L14.88 484.96 L21.73 484.96 L21.73 484.19 L14.88 484.18 ZM14.88 486.54
							 L14.88 487.31 L21.73 487.31 L21.73 486.53 L14.88 486.54 ZM1.3 482.61 L8.15 482.61 L8.15 481.83 L1.3
							 481.84 L1.3 482.61 ZM1.3 484.96 L8.15 484.96 L8.15 484.18 L1.3 484.19 L1.3 484.96 ZM1.3 487.31 L8.15
							 487.31 L8.15 486.54 L1.3 486.53 L1.3 487.31 Z" class="st2"/>
			</g>
			<g id="shape308-272" transform="translate(21.5959,-31.2517)">
				<path d="M3.59 480.19 a0.48872 0.688651 -180 1 0 0.917155 0.476131 a0.48872 0.688651 -180 1 0 -0.917155 -0.476131
							 ZM3.59 482.23 a0.48872 0.688651 -180 1 0 0.903802 0.524399 a0.48872 0.688651 -180 1 0 -0.903802 -0.524399
							 ZM3.6 484.28 a0.48872 0.688651 -180 1 0 0.895475 0.55204 a0.48872 0.688651 -180 1 0 -0.895475 -0.55204
							 ZM3.6 486.34 a0.48872 0.688651 -180 1 0 0.895475 0.55204 a0.48872 0.688651 -180 1 0 -0.895475 -0.55204
							 ZM1.8 480.22 a0.48872 0.688651 -180 1 0 0.932051 0.414741 a0.48872 0.688651 -180 1 0 -0.932051 -0.414741
							 ZM1.81 482.26 a0.48872 0.688651 -180 1 0 0.921702 0.458386 a0.48872 0.688651 -180 1 0 -0.921702 -0.458386
							 ZM1.81 484.31 a0.48872 0.688651 -180 1 0 0.915192 0.483596 a0.48872 0.688651 -180 1 0 -0.915192 -0.483596
							 ZM1.81 486.38 a0.48872 0.688651 -180 1 0 0.915192 0.483596 a0.48872 0.688651 -180 1 0 -0.915192 -0.483596
							 ZM0.02 480.25 a0.489032 0.689091 -180 1 0 0.945843 0.350731 a0.489032 0.689091 -180 1 0 -0.945843 -0.350731
							 ZM0.02 482.3 a0.489032 0.689091 -180 1 0 0.938306 0.38887 a0.489032 0.689091 -180 1 0 -0.938306 -0.38887
							 ZM0.02 484.35 a0.489032 0.689091 -180 1 0 0.933529 0.411071 a0.489032 0.689091 -180 1 0 -0.933529 -0.411071
							 ZM0.02 486.41 a0.489032 0.689091 -180 1 0 0.933529 0.411071 a0.489032 0.689091 -180 1 0 -0.933529 -0.411071
							 Z" class="st10"/>
			</g>
		</g>
		<g id="shape309-275" transform="translate(-121.981,304.148) rotate(-90)">
			<path d="M0 487.31 L49.32 487.31" class="st9"/>
		</g>
		<g id="shape310-278" transform="translate(-207.02,304.148) rotate(-90)">
			<path d="M0 487.31 L49.32 487.31" class="st9"/>
		</g>
		<g id="shape311-281" transform="translate(188.163,-183.161)">
			<path d="M0 487.31 L92.13 487.31" class="st9"/>
		</g>
		<g id="shape312-284" transform="translate(63.4389,-167.287)">
			<desc>Leaf Switch A1</desc>
			<rect x="0" y="470.302" width="55.5591" height="17.0079" class="st11"/>
			<text x="4.07" y="481.21" class="st12">Leaf Switch A1</text>		</g>
		<g id="shape313-287" transform="translate(355.124,-167.287)">
			<desc>Leaf Switch A2</desc>
			<rect x="0" y="470.302" width="55.5591" height="17.0079" class="st11"/>
			<text x="4.07" y="481.21" class="st12">Leaf Switch A2</text>		</g>
		<g id="shape314-290" transform="translate(211.181,-237.586)">
			<desc>Spine Switch A</desc>
			<rect x="0" y="470.302" width="57.2027" height="17.0079" class="st11"/>
			<text x="4.78" y="481.21" class="st12">Spine Switch A</text>		</g>
		<g id="shape315-293" transform="translate(340.384,-274.295)">
			<desc>Network Controller A</desc>
			<rect x="0" y="470.302" width="55.5591" height="17.0079" class="st11"/>
			<text x="13.69" y="476.41" class="st12">Network <tspan x="8.15" dy="1.2em" class="st13">Controller A</tspan></text>		</g>
		<g id="group316-297" transform="translate(293.896,-361.177)">
			<g id="shape317-298" transform="translate(0,-4.72617)">
				<path d="M48.01 469.91 L48.01 475.89 L51.62 475.89 L55.04 480.17 L70.87 480.17 L70.87 425.9 L48.01 425.9 L48.01 433.68
							 L57.81 433.68 L57.81 469.91 L48.01 469.91 ZM57.81 433.68 L3.53 433.68 L3.53 469.91 L57.81 469.91 L57.81
							 433.68 ZM60.73 487.31 L51.62 475.89 L9.11 475.89 L0 487.31 L60.73 487.31 ZM35.14 469.91 L25.59 469.91
							 L25.59 475.89 L35.14 475.89 L35.14 469.91 Z" class="st14"/>
			</g>
			<g id="shape318-300" transform="translate(7.05282,-25.393)">
				<path d="M47.32 457.94 L0 457.94 L0 487.31 L47.32 487.31 L47.32 457.94 Z" class="st14"/>
			</g>
			<g id="shape319-302" transform="translate(8.26528,-7.08364)">
				<path d="M53.45 434.33 L58.34 434.33 L58.34 432.43 L53.45 432.43 L53.45 434.33 ZM53.45 437.73 L58.34 437.73 L58.34
							 435.82 L53.45 435.82 L53.45 437.73 ZM41.47 482.88 L38.77 482.88 L40.28 484.56 L43.19 484.56 L41.47 482.88
							 ZM38.42 479.9 L36.1 479.9 L37.72 481.71 L40.27 481.71 L38.42 479.9 ZM37.32 482.88 L34.62 482.88 L35.81
							 484.56 L38.72 484.56 L37.32 482.88 ZM34.84 479.9 L32.52 479.9 L33.79 481.71 L36.35 481.71 L34.84 479.9
							 ZM33.17 482.88 L30.47 482.88 L31.33 484.56 L34.24 484.56 L33.17 482.88 ZM31.27 479.9 L28.95 479.9 L29.88
							 481.74 L32.44 481.74 L31.27 479.9 ZM29.02 482.88 L26.32 482.88 L26.86 484.56 L29.77 484.56 L29.02 482.88
							 ZM27.75 480.03 L25.4 480.03 L25.95 481.74 L28.51 481.74 L27.75 480.03 ZM24.87 482.88 L22.17 482.88 L22.38
							 484.56 L25.29 484.56 L24.87 482.88 ZM24.18 480.17 L21.82 480.17 L22.04 481.85 L24.61 481.85 L24.18 480.17
							 ZM20.55 480.17 L18.19 480.17 L18.08 481.85 L20.65 481.85 L20.55 480.17 ZM20.71 482.88 L18.01 482.88
							 L17.9 484.56 L20.81 484.56 L20.71 482.88 ZM16.93 480.17 L14.57 480.17 L14.13 481.85 L16.7 481.85 L16.93
							 480.17 ZM16.56 482.88 L13.86 482.88 L13.43 484.56 L16.34 484.56 L16.56 482.88 ZM31.37 485.63 L12.32
							 485.63 L11.83 487.31 L32.19 487.31 L31.37 485.63 ZM13.3 480.17 L10.94 480.17 L10.18 481.85 L12.75 481.85
							 L13.3 480.17 ZM12.41 482.88 L9.71 482.88 L8.95 484.56 L11.86 484.56 L12.41 482.88 ZM9.67 480.17 L7.31
							 480.17 L6.22 481.85 L8.79 481.85 L9.67 480.17 ZM8.26 482.88 L5.56 482.88 L4.48 484.56 L7.39 484.56 L8.26
							 482.88 ZM6.04 480.17 L3.68 480.17 L2.27 481.85 L4.84 481.85 L6.04 480.17 ZM4.11 482.88 L1.41 482.88
							 L0 484.56 L2.91 484.56 L4.11 482.88 Z" class="st2"/>
			</g>
		</g>
		<g id="shape320-305" transform="translate(-159.101,169.551) rotate(-89.5724)">
			<path d="M0 487.31 L17.01 475.97 L17.01 481.64 L37.99 481.64 L37.99 487.31 L37.99 492.98 L17.01 492.98 L17.01 498.65
						 L0 487.31 Z" class="st15"/>
		</g>
		<g id="shape321-307" transform="translate(361.36,-388.956)">
			<desc>Broadcast Controller A</desc>
			<rect x="0" y="470.302" width="55.5591" height="17.0079" class="st11"/>
			<text x="11.57" y="476.41" class="st12">Broadcast <tspan x="8.15" dy="1.2em" class="st13">Controller A</tspan></text>		</g>
		<g id="shape322-311" transform="translate(333.581,-326.594)">
			<desc>IS-06</desc>
			<rect x="0" y="470.302" width="55.5591" height="17.0079" class="st11"/>
			<text x="19.65" y="481.21" class="st12">IS-06</text>		</g>
		<g id="shape323-314" transform="translate(790.398,-233.092)">
			<path d="M0 487.31 L89.34 487.31" class="st9"/>
		</g>
		<g id="shape324-317" transform="translate(348.667,254.068) rotate(-90)">
			<path d="M0 487.31 L28.2 487.31" class="st9"/>
		</g>
		<g id="group325-320" transform="translate(827.472,-261.438)">
			<g id="shape326-321" transform="translate(2.4999,5.68434E-014)">
				<path d="M0 487.31 L26.18 487.31 L26.18 443.37 L0 443.37 L0 487.31 Z" class="st10"/>
				<path d="M0 487.31 L26.18 487.31 L26.18 443.37 L0 443.37 L0 487.31" class="st8"/>
				<path d="M13.09 487.31 L13.09 443.37" class="st8"/>
			</g>
			<g id="shape327-325" transform="translate(5.09195,-3.19012)">
				<path d="M15.88 460.12 L21.66 460.12 L21.66 450.8 L15.88 450.8 L15.88 460.12 ZM6.55 454.57 L7.34 454.57 L7.34 450.6
							 L6.55 450.6 L6.55 454.57 ZM6.55 460.3 L7.34 460.3 L7.34 456.32 L6.55 456.32 L6.55 460.3 ZM4.68 454.57
							 L5.47 454.57 L5.47 450.6 L4.68 450.6 L4.68 454.57 ZM4.68 460.3 L5.47 460.3 L5.47 456.32 L4.68 456.32
							 L4.68 460.3 ZM1.87 454.57 L2.66 454.57 L2.66 450.6 L1.87 450.6 L1.87 454.57 ZM1.87 460.3 L2.66 460.3
							 L2.66 456.32 L1.87 456.32 L1.87 460.3 ZM0 454.57 L0.79 454.57 L0.79 450.6 L0 450.6 L0 454.57 ZM0 460.3
							 L0.79 460.3 L0.79 456.32 L0 456.32 L0 460.3 ZM14.88 481.83 L14.88 482.61 L21.73 482.61 L21.73 481.83
							 L14.88 481.83 ZM14.88 484.18 L14.88 484.96 L21.73 484.96 L21.73 484.19 L14.88 484.18 ZM14.88 486.54
							 L14.88 487.31 L21.73 487.31 L21.73 486.53 L14.88 486.54 ZM1.3 482.61 L8.15 482.61 L8.15 481.83 L1.3
							 481.84 L1.3 482.61 ZM1.3 484.96 L8.15 484.96 L8.15 484.18 L1.3 484.19 L1.3 484.96 ZM1.3 487.31 L8.15
							 487.31 L8.15 486.54 L1.3 486.53 L1.3 487.31 Z" class="st2"/>
			</g>
			<g id="shape328-328" transform="translate(21.5959,-31.2517)">
				<path d="M3.59 480.19 a0.48872 0.688651 -180 1 0 0.917155 0.476131 a0.48872 0.688651 -180 1 0 -0.917155 -0.476131
							 ZM3.59 482.23 a0.48872 0.688651 -180 1 0 0.903802 0.524399 a0.48872 0.688651 -180 1 0 -0.903802 -0.524399
							 ZM3.6 484.28 a0.48872 0.688651 -180 1 0 0.895475 0.55204 a0.48872 0.688651 -180 1 0 -0.895475 -0.55204
							 ZM3.6 486.34 a0.48872 0.688651 -180 1 0 0.895475 0.55204 a0.48872 0.688651 -180 1 0 -0.895475 -0.55204
							 ZM1.8 480.22 a0.48872 0.688651 -180 1 0 0.932051 0.414741 a0.48872 0.688651 -180 1 0 -0.932051 -0.414741
							 ZM1.81 482.26 a0.48872 0.688651 -180 1 0 0.921702 0.458386 a0.48872 0.688651 -180 1 0 -0.921702 -0.458386
							 ZM1.81 484.31 a0.48872 0.688651 -180 1 0 0.915192 0.483596 a0.48872 0.688651 -180 1 0 -0.915192 -0.483596
							 ZM1.81 486.38 a0.48872 0.688651 -180 1 0 0.915192 0.483596 a0.48872 0.688651 -180 1 0 -0.915192 -0.483596
							 ZM0.02 480.25 a0.489032 0.689091 -180 1 0 0.945843 0.350731 a0.489032 0.689091 -180 1 0 -0.945843 -0.350731
							 ZM0.02 482.3 a0.489032 0.689091 -180 1 0 0.938306 0.38887 a0.489032 0.689091 -180 1 0 -0.938306 -0.38887
							 ZM0.02 484.35 a0.489032 0.689091 -180 1 0 0.933529 0.411071 a0.489032 0.689091 -180 1 0 -0.933529 -0.411071
							 ZM0.02 486.41 a0.489032 0.689091 -180 1 0 0.933529 0.411071 a0.489032 0.689091 -180 1 0 -0.933529 -0.411071
							 Z" class="st10"/>
			</g>
		</g>
		<g id="shape329-331" transform="translate(392.425,303.54) rotate(-90)">
			<path d="M0 487.31 L49.32 487.31" class="st9"/>
		</g>
		<g id="shape330-334" transform="translate(307.385,303.54) rotate(-90)">
			<path d="M0 487.31 L49.32 487.31" class="st9"/>
		</g>
		<g id="shape331-337" transform="translate(702.569,-183.769)">
			<path d="M0 487.31 L92.13 487.31" class="st9"/>
		</g>
		<g id="shape332-340" transform="translate(577.845,-167.895)">
			<desc>Leaf Switch B1</desc>
			<rect x="0" y="470.302" width="55.5591" height="17.0079" class="st11"/>
			<text x="4.21" y="481.21" class="st12">Leaf Switch B1</text>		</g>
		<g id="shape333-343" transform="translate(869.53,-167.895)">
			<desc>Leaf Switch B2</desc>
			<rect x="0" y="470.302" width="55.5591" height="17.0079" class="st11"/>
			<text x="4.21" y="481.21" class="st12">Leaf Switch B2</text>		</g>
		<g id="shape334-346" transform="translate(727.23,-237.344)">
			<desc>Spine Switch B</desc>
			<rect x="0" y="470.302" width="55.5591" height="17.0079" class="st11"/>
			<text x="4.1" y="481.21" class="st12">Spine Switch B</text>		</g>
		<g id="shape335-349" transform="translate(854.789,-274.903)">
			<desc>Network Controller B</desc>
			<rect x="0" y="470.302" width="55.5591" height="17.0079" class="st11"/>
			<text x="13.69" y="476.41" class="st12">Network <tspan x="8.29" dy="1.2em" class="st13">Controller B</tspan></text>		</g>
		<g id="group336-353" transform="translate(808.301,-361.785)">
			<g id="shape337-354" transform="translate(0,-4.72617)">
				<path d="M48.01 469.91 L48.01 475.89 L51.62 475.89 L55.04 480.17 L70.87 480.17 L70.87 425.9 L48.01 425.9 L48.01 433.68
							 L57.81 433.68 L57.81 469.91 L48.01 469.91 ZM57.81 433.68 L3.53 433.68 L3.53 469.91 L57.81 469.91 L57.81
							 433.68 ZM60.73 487.31 L51.62 475.89 L9.11 475.89 L0 487.31 L60.73 487.31 ZM35.14 469.91 L25.59 469.91
							 L25.59 475.89 L35.14 475.89 L35.14 469.91 Z" class="st14"/>
			</g>
			<g id="shape338-356" transform="translate(7.05282,-25.393)">
				<path d="M47.32 457.94 L0 457.94 L0 487.31 L47.32 487.31 L47.32 457.94 Z" class="st14"/>
			</g>
			<g id="shape339-358" transform="translate(8.26528,-7.08364)">
				<path d="M53.45 434.33 L58.34 434.33 L58.34 432.43 L53.45 432.43 L53.45 434.33 ZM53.45 437.73 L58.34 437.73 L58.34
							 435.82 L53.45 435.82 L53.45 437.73 ZM41.47 482.88 L38.77 482.88 L40.28 484.56 L43.19 484.56 L41.47 482.88
							 ZM38.42 479.9 L36.1 479.9 L37.72 481.71 L40.27 481.71 L38.42 479.9 ZM37.32 482.88 L34.62 482.88 L35.81
							 484.56 L38.72 484.56 L37.32 482.88 ZM34.84 479.9 L32.52 479.9 L33.79 481.71 L36.35 481.71 L34.84 479.9
							 ZM33.17 482.88 L30.47 482.88 L31.33 484.56 L34.24 484.56 L33.17 482.88 ZM31.27 479.9 L28.95 479.9 L29.88
							 481.74 L32.44 481.74 L31.27 479.9 ZM29.02 482.88 L26.32 482.88 L26.86 484.56 L29.77 484.56 L29.02 482.88
							 ZM27.75 480.03 L25.4 480.03 L25.95 481.74 L28.51 481.74 L27.75 480.03 ZM24.87 482.88 L22.17 482.88 L22.38
							 484.56 L25.29 484.56 L24.87 482.88 ZM24.18 480.17 L21.82 480.17 L22.04 481.85 L24.61 481.85 L24.18 480.17
							 ZM20.55 480.17 L18.19 480.17 L18.08 481.85 L20.65 481.85 L20.55 480.17 ZM20.71 482.88 L18.01 482.88
							 L17.9 484.56 L20.81 484.56 L20.71 482.88 ZM16.93 480.17 L14.57 480.17 L14.13 481.85 L16.7 481.85 L16.93
							 480.17 ZM16.56 482.88 L13.86 482.88 L13.43 484.56 L16.34 484.56 L16.56 482.88 ZM31.37 485.63 L12.32
							 485.63 L11.83 487.31 L32.19 487.31 L31.37 485.63 ZM13.3 480.17 L10.94 480.17 L10.18 481.85 L12.75 481.85
							 L13.3 480.17 ZM12.41 482.88 L9.71 482.88 L8.95 484.56 L11.86 484.56 L12.41 482.88 ZM9.67 480.17 L7.31
							 480.17 L6.22 481.85 L8.79 481.85 L9.67 480.17 ZM8.26 482.88 L5.56 482.88 L4.48 484.56 L7.39 484.56 L8.26
							 482.88 ZM6.04 480.17 L3.68 480.17 L2.27 481.85 L4.84 481.85 L6.04 480.17 ZM4.11 482.88 L1.41 482.88
							 L0 484.56 L2.91 484.56 L4.11 482.88 Z" class="st2"/>
			</g>
		</g>
		<g id="shape340-361" transform="translate(355.305,168.943) rotate(-89.5724)">
			<path d="M0 487.31 L17.01 475.97 L17.01 481.64 L37.99 481.64 L37.99 487.31 L37.99 492.98 L17.01 492.98 L17.01 498.65
						 L0 487.31 Z" class="st15"/>
		</g>
		<g id="shape341-363" transform="translate(875.766,-389.564)">
			<desc>Broadcast Controller B</desc>
			<rect x="0" y="470.302" width="55.5591" height="17.0079" class="st11"/>
			<text x="11.57" y="476.41" class="st12">Broadcast <tspan x="8.29" dy="1.2em" class="st13">Controller B</tspan></text>		</g>
		<g id="shape342-367" transform="translate(847.986,-327.202)">
			<desc>IS-06</desc>
			<rect x="0" y="470.302" width="55.5591" height="17.0079" class="st11"/>
			<text x="19.65" y="481.21" class="st12">IS-06</text>		</g>
		<g id="shape343-370" transform="translate(356.872,-182.775)">
			<path d="M0 487.31 L7.09 487.31" class="st9"/>
		</g>
		<g id="shape344-373" transform="translate(872.595,-183.031)">
			<path d="M0 487.31 L7.09 487.31" class="st9"/>
		</g>
		<g id="group345-376" transform="translate(413.346,-190.98)">
			<g id="shape346-377" transform="translate(0,-23.9715)">
				<path d="M65.4 487.31 L66.82 484.47 L4.05 484.47 L5.46 487.31 L65.4 487.31 ZM0 483.12 L70.87 483.12 L70.87 464.39
							 L0 464.39 L0 483.12 Z" class="st1"/>
			</g>
			<g id="shape347-379" transform="translate(54.6669,-31.7016)">
				<rect x="0" y="475.777" width="12.1507" height="11.532" class="st1"/>
			</g>
			<g id="shape348-381" transform="translate(5.61827,-32.827)">
				<path d="M4.98 483.67 L0 483.67 L0 486.06 L1.3 486.06 L1.3 487.31 L3.69 487.31 L3.69 486.06 L4.98 486.06 L4.98 483.67
							 ZM12.99 483.67 L8.01 483.67 L8.01 486.06 L9.3 486.06 L9.3 487.31 L11.7 487.31 L11.7 486.06 L12.99 486.06
							 L12.99 483.67 ZM21 483.67 L16.02 483.67 L16.02 486.06 L17.31 486.06 L17.31 487.31 L19.7 487.31 L19.7
							 486.06 L21 486.06 L21 483.67 ZM29.01 483.67 L24.02 483.67 L24.02 486.06 L25.32 486.06 L25.32 487.31
							 L27.71 487.31 L27.71 486.06 L29.01 486.06 L29.01 483.67 ZM37.02 483.67 L32.03 483.67 L32.03 486.06 L33.33
							 486.06 L33.33 487.31 L35.72 487.31 L35.72 486.06 L37.02 486.06 L37.02 483.67 ZM37.02 477.9 L32.03 477.9
							 L32.03 480.29 L33.33 480.29 L33.33 481.54 L35.72 481.54 L35.72 480.29 L37.02 480.29 L37.02 477.9 ZM29.01
							 477.9 L24.02 477.9 L24.02 480.29 L25.32 480.29 L25.32 481.54 L27.71 481.54 L27.71 480.29 L29.01 480.29
							 L29.01 477.9 ZM21 477.9 L16.02 477.9 L16.02 480.29 L17.31 480.29 L17.31 481.54 L19.7 481.54 L19.7 480.29
							 L21 480.29 L21 477.9 ZM12.99 477.9 L8.01 477.9 L8.01 480.29 L9.3 480.29 L9.3 481.54 L11.7 481.54 L11.7
							 480.29 L12.99 480.29 L12.99 477.9 ZM4.98 477.9 L0 477.9 L0 480.29 L1.3 480.29 L1.3 481.54 L3.69 481.54
							 L3.69 480.29 L4.98 480.29 L4.98 477.9 Z" class="st2"/>
			</g>
			<g id="shape349-384" transform="translate(55.6646,-33.6193)">
				<path d="M5.63 483.19 L7.14 481.24 L8.86 481.24 L7.97 482.12 L9 482.12 L10.16 480.86 L9.01 479.61 L7.96 479.61 L8.85
							 480.49 L6.61 480.49 L5.08 482.47 L3.55 480.49 L1.31 480.49 L2.19 479.61 L1.15 479.61 L0 480.86 L1.15
							 482.12 L2.19 482.12 L1.3 481.24 L3.01 481.24 L4.52 483.19 L2.6 485.68 L1.3 485.69 L2.19 484.81 L1.15
							 484.81 L0 486.06 L1.15 487.31 L2.19 487.31 L1.31 486.43 L3.14 486.43 L5.08 483.92 L7.02 486.43 L8.85
							 486.43 L7.96 487.31 L9.01 487.31 L10.16 486.06 L9 484.81 L7.97 484.81 L8.86 485.69 L7.55 485.68 L5.63
							 483.19 Z" class="st2"/>
			</g>
		</g>
		<g id="shape350-387" transform="translate(244.826,-239.5)">
			<path d="M0 487.31 L176.53 487.31" class="st6"/>
		</g>
		<g id="shape356-390" transform="translate(413.346,-236.901)">
			<desc>Edge Router A</desc>
			<rect x="0" y="470.302" width="70.5827" height="17.0079" class="st11"/>
			<text x="12.13" y="481.21" class="st12">Edge Router A</text>		</g>
		<g id="group357-393" transform="translate(516.476,-190.713)">
			<g id="shape358-394" transform="translate(0,-23.9715)">
				<path d="M65.4 487.31 L66.82 484.47 L4.05 484.47 L5.46 487.31 L65.4 487.31 ZM0 483.12 L70.87 483.12 L70.87 464.39
							 L0 464.39 L0 483.12 Z" class="st7"/>
			</g>
			<g id="shape359-396" transform="translate(54.6669,-31.7016)">
				<rect x="0" y="475.777" width="12.1507" height="11.532" class="st7"/>
			</g>
			<g id="shape360-398" transform="translate(5.61827,-32.827)">
				<path d="M4.98 483.67 L0 483.67 L0 486.06 L1.3 486.06 L1.3 487.31 L3.69 487.31 L3.69 486.06 L4.98 486.06 L4.98 483.67
							 ZM12.99 483.67 L8.01 483.67 L8.01 486.06 L9.3 486.06 L9.3 487.31 L11.7 487.31 L11.7 486.06 L12.99 486.06
							 L12.99 483.67 ZM21 483.67 L16.02 483.67 L16.02 486.06 L17.31 486.06 L17.31 487.31 L19.7 487.31 L19.7
							 486.06 L21 486.06 L21 483.67 ZM29.01 483.67 L24.02 483.67 L24.02 486.06 L25.32 486.06 L25.32 487.31
							 L27.71 487.31 L27.71 486.06 L29.01 486.06 L29.01 483.67 ZM37.02 483.67 L32.03 483.67 L32.03 486.06 L33.33
							 486.06 L33.33 487.31 L35.72 487.31 L35.72 486.06 L37.02 486.06 L37.02 483.67 ZM37.02 477.9 L32.03 477.9
							 L32.03 480.29 L33.33 480.29 L33.33 481.54 L35.72 481.54 L35.72 480.29 L37.02 480.29 L37.02 477.9 ZM29.01
							 477.9 L24.02 477.9 L24.02 480.29 L25.32 480.29 L25.32 481.54 L27.71 481.54 L27.71 480.29 L29.01 480.29
							 L29.01 477.9 ZM21 477.9 L16.02 477.9 L16.02 480.29 L17.31 480.29 L17.31 481.54 L19.7 481.54 L19.7 480.29
							 L21 480.29 L21 477.9 ZM12.99 477.9 L8.01 477.9 L8.01 480.29 L9.3 480.29 L9.3 481.54 L11.7 481.54 L11.7
							 480.29 L12.99 480.29 L12.99 477.9 ZM4.98 477.9 L0 477.9 L0 480.29 L1.3 480.29 L1.3 481.54 L3.69 481.54
							 L3.69 480.29 L4.98 480.29 L4.98 477.9 Z" class="st2"/>
			</g>
			<g id="shape361-401" transform="translate(55.6646,-33.6193)">
				<path d="M5.63 483.19 L7.14 481.24 L8.86 481.24 L7.97 482.12 L9 482.12 L10.16 480.86 L9.01 479.61 L7.96 479.61 L8.85
							 480.49 L6.61 480.49 L5.08 482.47 L3.55 480.49 L1.31 480.49 L2.19 479.61 L1.15 479.61 L0 480.86 L1.15
							 482.12 L2.19 482.12 L1.3 481.24 L3.01 481.24 L4.52 483.19 L2.6 485.68 L1.3 485.69 L2.19 484.81 L1.15
							 484.81 L0 486.06 L1.15 487.31 L2.19 487.31 L1.31 486.43 L3.14 486.43 L5.08 483.92 L7.02 486.43 L8.85
							 486.43 L7.96 487.31 L9.01 487.31 L10.16 486.06 L9 484.81 L7.97 484.81 L8.86 485.69 L7.55 485.68 L5.63
							 483.19 Z" class="st2"/>
			</g>
		</g>
		<g id="shape362-404" transform="translate(556.535,-242.091)">
			<path d="M0 487.31 L169.98 487.31" class="st6"/>
		</g>
		<g id="shape366-407" transform="translate(1214.42,245.218) rotate(90)">
			<path d="M0 487.31 L9.87 487.31" class="st6"/>
		</g>
		<g id="shape367-410" transform="translate(1043.84,245.495) rotate(90)">
			<path d="M0 487.31 L9.87 487.31" class="st6"/>
		</g>
		<g id="shape368-413" transform="translate(732.076,247.907) rotate(90)">
			<path d="M0 487.31 L8.28 487.31" class="st6"/>
		</g>
		<g id="shape370-416" transform="translate(908.71,247.883) rotate(90)">
			<path d="M0 487.31 L8.15 487.31" class="st6"/>
		</g>
		<g id="shape371-419" transform="translate(516.252,-238.352)">
			<desc>Edge Router B</desc>
			<rect x="0" y="470.302" width="70.5827" height="17.0079" class="st11"/>
			<text x="12.27" y="481.21" class="st12">Edge Router B</text>		</g>
		<g id="shape372-422" transform="translate(453.543,-231.61)">
			<path d="M0 487.31 L71.12 487.31" class="st16"/>
		</g>
		<g id="shape376-425" transform="translate(436.112,-440.588)">
			<desc>SITE A</desc>
			<rect x="0" y="470.302" width="55.5591" height="17.0079" class="st11"/>
			<text x="15.32" y="481.81" class="st17">SITE A</text>		</g>
		<g id="shape377-428" transform="translate(510.908,-440.881)">
			<desc>SITE B</desc>
			<rect x="0" y="470.302" width="55.5591" height="17.0079" class="st11"/>
			<text x="15.49" y="481.81" class="st17">SITE B</text>		</g>
		<g id="shape378-431" transform="translate(12.8245,468.934) rotate(-90)">
			<path d="M0 487.31 L450.56 487.31" class="st18"/>
		</g>
		<g id="shape379-434" transform="translate(29.7136,-56.0012)">
			<desc>NMOS Sender, S1</desc>
			<rect x="0" y="470.302" width="70.8661" height="17.0079" class="st11"/>
			<text x="6.86" y="481.21" class="st12">NMOS Sender, S1</text>		</g>
		<g id="shape380-437" transform="translate(18.375,-37.4173)">
			<desc>Source IP address = 192.168.12.34 Dest. IP address = 239.1.2.3</desc>
			<rect x="0" y="462.489" width="95.0108" height="24.8201" class="st11"/>
			<text x="5.7" y="473.1" class="st19">Source IP address = 192.168.12.34 <tspan x="13.85" dy="1.2em" class="st13">Dest</tspan>. IP address = 239.1.2.3</text>		</g>
		<g id="shape373-441" transform="translate(60.9449,-374.571)">
			<desc>1. Broadcast Controller operator on site A wishes to make res...</desc>
			<path d="M0 487.31 L200.5 487.31 L200.5 440.54 L0 440.54 L0 487.31 Z" class="st20"/>
			<path d="M200.5 464.27 L229.15 464.37" class="st8"/>
			<path d="M0 487.31 L200.5 487.31 L200.5 440.54 L0 440.54 L0 487.31" class="st8"/>
			<text x="4" y="454.92" class="st17">1. Broadcast Controller operator on site A <tspan x="4" dy="1.2em" class="st13">wishes to make resources on site A available to </tspan><tspan
						x="4" dy="1.2em" class="st13">site B without sharing source IP addresses</tspan></text>		</g>
		<g id="shape374-448" transform="translate(78.0518,-292.366)">
			<desc>2. Broadcast Controller A makes IS-06 requests to Network Con...</desc>
			<path d="M0 487.31 L162.14 487.31 L162.14 419.28 L0 419.28 L0 487.31 Z" class="st20"/>
			<path d="M162.14 445.66 L235.8 438.72" class="st8"/>
			<path d="M0 487.31 L162.14 487.31 L162.14 419.28 L0 419.28 L0 487.31" class="st8"/>
			<text x="4" y="432.29" class="st17">2. Broadcast Controller A makes IS-06 <tspan x="4" dy="1.2em" class="st13">requests to Network Controller A to </tspan><tspan
						x="4" dy="1.2em" class="st13">set up NAT policies to translate each </tspan><tspan x="4" dy="1.2em"
						class="st13">source IP address on site A to an </tspan><tspan x="4" dy="1.2em" class="st13">address appropriate for site B</tspan></text>		</g>
		<g id="shape375-457" transform="translate(421.467,-325.089)">
			<desc>3. Network Controller A creates appropriate NAT policies on n...</desc>
			<path d="M0 487.31 L240.42 487.31 L240.42 427.78 L0 427.78 L0 487.31 Z" class="st20"/>
			<path d="M0 487.31 L-68.76 517.6" class="st8"/>
			<path d="M0 487.31 L240.42 487.31 L240.42 427.78 L0 427.78 L0 487.31" class="st8"/>
			<text x="4" y="442.55" class="st17">3. Network Controller A creates appropriate NAT policies <tspan x="4" dy="1.2em"
						class="st13">on network to translate source IP addresses of outgoing </tspan><tspan x="4" dy="1.2em"
						class="st13">traffic via Edge Router A</tspan>, e.g. Sender S1&#39;s source IP <tspan x="4" dy="1.2em"
						class="st13">address translated from </tspan>192.168.12.34 to 10.7.8.9</text>		</g>
		<g id="shape381-465" transform="translate(519.188,-262.578)">
			<desc>4. Streams from site A are received at Edge Router B with new...</desc>
			<path d="M0 487.31 L283.02 487.31 L283.02 440.54 L0 440.54 L0 487.31 Z" class="st20"/>
			<path d="M0 487.31 L-17.28 513.19" class="st8"/>
			<path d="M0 487.31 L283.02 487.31 L283.02 440.54 L0 440.54 L0 487.31" class="st8"/>
			<text x="4" y="454.92" class="st17">4. Streams from site A are received at Edge Router B with new <tspan x="4"
						dy="1.2em" class="st13">source IP addresses</tspan>, e.g. Stream from Sender S1 received with new <tspan
						x="4" dy="1.2em" class="st13">source IP address </tspan>10.7.8.9 (but same dest. IP address 239.1.2.3)</text>		</g>
	</g>
</svg>
