<?xml version="1.0" encoding="UTF-8" standalone="no"?>
<!DOCTYPE svg PUBLIC "-//W3C//DTD SVG 1.1//EN" "http://www.w3.org/Graphics/SVG/1.1/DTD/svg11.dtd">
<!-- Generated by Microsoft Visio, SVG Export NAT3.svg NAT III -->
<svg xmlns="http://www.w3.org/2000/svg" xmlns:xlink="http://www.w3.org/1999/xlink" xmlns:ev="http://www.w3.org/2001/xml-events"
		width="8.80176in" height="6.31426in" viewBox="0 0 633.726 454.627" xml:space="preserve" color-interpolation-filters="sRGB"
		class="st17">
	<style type="text/css">
	<![CDATA[
		.st1 {fill:#ddd6e5;stroke:#000000;stroke-linecap:round;stroke-linejoin:round;stroke-width:0.75}
		.st2 {fill:#000000}
		.st3 {stroke:#000000;stroke-linecap:round;stroke-linejoin:round;stroke-width:0.75}
		.st4 {stroke:#ff0000;stroke-dasharray:0.75,1.5;stroke-linecap:round;stroke-linejoin:round;stroke-width:0.75}
		.st5 {fill:#ebf1df}
		.st6 {fill:none;stroke:none;stroke-linecap:round;stroke-linejoin:round;stroke-width:0.75}
		.st7 {fill:#000000;font-family:Calibri;font-size:0.666664em}
		.st8 {font-size:1em}
		.st9 {fill:#000000;font-family:Calibri;font-size:0.499992em}
		.st10 {fill:#dbeef3;stroke:#000000;stroke-linecap:round;stroke-linejoin:round;stroke-width:0.75}
		.st11 {fill:#fcebdd;stroke:#000000;stroke-linecap:round;stroke-linejoin:round;stroke-width:0.24}
		.st12 {fill:#f2f2f2;stroke:#000000;stroke-linecap:round;stroke-linejoin:round;stroke-width:0.75}
		.st13 {fill:#f2f2f2;stroke:#000000;stroke-linecap:round;stroke-linejoin:round;stroke-width:0.24}
		.st14 {fill:#ffffff}
		.st15 {fill:#c05046}
		.st16 {fill:#000000;font-family:Calibri;font-size:0.833336em}
		.st17 {fill:none;fill-rule:evenodd;font-size:12px;overflow:visible;stroke-linecap:square;stroke-miterlimit:3}
	]]>
	</style>

	<g>
		<g id="group52-1" transform="translate(361.367,-144.942)">
			<g id="shape53-2" transform="translate(0,-23.9715)">
				<path d="M65.4 454.63 L66.82 451.79 L4.05 451.79 L5.46 454.63 L65.4 454.63 ZM0 450.44 L70.87 450.44 L70.87 431.7
							 L0 431.7 L0 450.44 Z" class="st1"/>
			</g>
			<g id="shape54-4" transform="translate(54.6669,-31.7016)">
				<rect x="0" y="443.095" width="12.1507" height="11.532" class="st1"/>
			</g>
			<g id="shape55-6" transform="translate(5.61827,-32.827)">
				<path d="M4.98 450.99 L0 450.99 L0 453.38 L1.3 453.38 L1.3 454.63 L3.69 454.63 L3.69 453.38 L4.98 453.38 L4.98 450.99
							 ZM12.99 450.99 L8.01 450.99 L8.01 453.38 L9.3 453.38 L9.3 454.63 L11.7 454.63 L11.7 453.38 L12.99 453.38
							 L12.99 450.99 ZM21 450.99 L16.02 450.99 L16.02 453.38 L17.31 453.38 L17.31 454.63 L19.7 454.63 L19.7
							 453.38 L21 453.38 L21 450.99 ZM29.01 450.99 L24.02 450.99 L24.02 453.38 L25.32 453.38 L25.32 454.63
							 L27.71 454.63 L27.71 453.38 L29.01 453.38 L29.01 450.99 ZM37.02 450.99 L32.03 450.99 L32.03 453.38 L33.33
							 453.38 L33.33 454.63 L35.72 454.63 L35.72 453.38 L37.02 453.38 L37.02 450.99 ZM37.02 445.22 L32.03 445.22
							 L32.03 447.61 L33.33 447.61 L33.33 448.85 L35.72 448.85 L35.72 447.61 L37.02 447.61 L37.02 445.22 ZM29.01
							 445.22 L24.02 445.22 L24.02 447.61 L25.32 447.61 L25.32 448.85 L27.71 448.85 L27.71 447.61 L29.01 447.61
							 L29.01 445.22 ZM21 445.22 L16.02 445.22 L16.02 447.61 L17.31 447.61 L17.31 448.85 L19.7 448.85 L19.7
							 447.61 L21 447.61 L21 445.22 ZM12.99 445.22 L8.01 445.22 L8.01 447.61 L9.3 447.61 L9.3 448.85 L11.7
							 448.85 L11.7 447.61 L12.99 447.61 L12.99 445.22 ZM4.98 445.22 L0 445.22 L0 447.61 L1.3 447.61 L1.3 448.85
							 L3.69 448.85 L3.69 447.61 L4.98 447.61 L4.98 445.22 Z" class="st2"/>
			</g>
			<g id="shape56-9" transform="translate(55.6646,-33.6193)">
				<path d="M5.63 450.51 L7.14 448.56 L8.86 448.55 L7.97 449.43 L9 449.43 L10.16 448.18 L9.01 446.93 L7.96 446.93 L8.85
							 447.81 L6.61 447.81 L5.08 449.79 L3.55 447.81 L1.31 447.81 L2.19 446.93 L1.15 446.93 L0 448.18 L1.15
							 449.43 L2.19 449.43 L1.3 448.55 L3.01 448.56 L4.52 450.51 L2.6 453 L1.3 453 L2.19 452.12 L1.15 452.12
							 L0 453.38 L1.15 454.63 L2.19 454.63 L1.31 453.75 L3.14 453.75 L5.08 451.23 L7.02 453.75 L8.85 453.75
							 L7.96 454.63 L9.01 454.63 L10.16 453.38 L9 452.12 L7.97 452.12 L8.86 453 L7.55 453 L5.63 450.51 Z"
						class="st2"/>
			</g>
		</g>
		<g id="group10-12" transform="translate(280.013,-194.548)">
			<g id="shape11-13" transform="translate(0,-23.9715)">
				<path d="M65.4 454.63 L66.82 451.79 L4.05 451.79 L5.46 454.63 L65.4 454.63 ZM0 450.44 L70.87 450.44 L70.87 431.7
							 L0 431.7 L0 450.44 Z" class="st1"/>
			</g>
			<g id="shape12-15" transform="translate(54.6669,-31.7016)">
				<rect x="0" y="443.095" width="12.1507" height="11.532" class="st1"/>
			</g>
			<g id="shape13-17" transform="translate(5.61827,-32.827)">
				<path d="M4.98 450.99 L0 450.99 L0 453.38 L1.3 453.38 L1.3 454.63 L3.69 454.63 L3.69 453.38 L4.98 453.38 L4.98 450.99
							 ZM12.99 450.99 L8.01 450.99 L8.01 453.38 L9.3 453.38 L9.3 454.63 L11.7 454.63 L11.7 453.38 L12.99 453.38
							 L12.99 450.99 ZM21 450.99 L16.02 450.99 L16.02 453.38 L17.31 453.38 L17.31 454.63 L19.7 454.63 L19.7
							 453.38 L21 453.38 L21 450.99 ZM29.01 450.99 L24.02 450.99 L24.02 453.38 L25.32 453.38 L25.32 454.63
							 L27.71 454.63 L27.71 453.38 L29.01 453.38 L29.01 450.99 ZM37.02 450.99 L32.03 450.99 L32.03 453.38 L33.33
							 453.38 L33.33 454.63 L35.72 454.63 L35.72 453.38 L37.02 453.38 L37.02 450.99 ZM37.02 445.22 L32.03 445.22
							 L32.03 447.61 L33.33 447.61 L33.33 448.85 L35.72 448.85 L35.72 447.61 L37.02 447.61 L37.02 445.22 ZM29.01
							 445.22 L24.02 445.22 L24.02 447.61 L25.32 447.61 L25.32 448.85 L27.71 448.85 L27.71 447.61 L29.01 447.61
							 L29.01 445.22 ZM21 445.22 L16.02 445.22 L16.02 447.61 L17.31 447.61 L17.31 448.85 L19.7 448.85 L19.7
							 447.61 L21 447.61 L21 445.22 ZM12.99 445.22 L8.01 445.22 L8.01 447.61 L9.3 447.61 L9.3 448.85 L11.7
							 448.85 L11.7 447.61 L12.99 447.61 L12.99 445.22 ZM4.98 445.22 L0 445.22 L0 447.61 L1.3 447.61 L1.3 448.85
							 L3.69 448.85 L3.69 447.61 L4.98 447.61 L4.98 445.22 Z" class="st2"/>
			</g>
			<g id="shape14-20" transform="translate(55.6646,-33.6193)">
				<path d="M5.63 450.51 L7.14 448.56 L8.86 448.55 L7.97 449.43 L9 449.43 L10.16 448.18 L9.01 446.93 L7.96 446.93 L8.85
							 447.81 L6.61 447.81 L5.08 449.79 L3.55 447.81 L1.31 447.81 L2.19 446.93 L1.15 446.93 L0 448.18 L1.15
							 449.43 L2.19 449.43 L1.3 448.55 L3.01 448.56 L4.52 450.51 L2.6 453 L1.3 453 L2.19 452.12 L1.15 452.12
							 L0 453.38 L1.15 454.63 L2.19 454.63 L1.31 453.75 L3.14 453.75 L5.08 451.23 L7.02 453.75 L8.85 453.75
							 L7.96 454.63 L9.01 454.63 L10.16 453.38 L9 452.12 L7.97 452.12 L8.86 453 L7.55 453 L5.63 450.51 Z"
						class="st2"/>
			</g>
		</g>
		<g id="group47-23" transform="translate(192.139,-144.942)">
			<g id="shape48-24" transform="translate(0,-23.9715)">
				<path d="M65.4 454.63 L66.82 451.79 L4.05 451.79 L5.46 454.63 L65.4 454.63 ZM0 450.44 L70.87 450.44 L70.87 431.7
							 L0 431.7 L0 450.44 Z" class="st1"/>
			</g>
			<g id="shape49-26" transform="translate(54.6669,-31.7016)">
				<rect x="0" y="443.095" width="12.1507" height="11.532" class="st1"/>
			</g>
			<g id="shape50-28" transform="translate(5.61827,-32.827)">
				<path d="M4.98 450.99 L0 450.99 L0 453.38 L1.3 453.38 L1.3 454.63 L3.69 454.63 L3.69 453.38 L4.98 453.38 L4.98 450.99
							 ZM12.99 450.99 L8.01 450.99 L8.01 453.38 L9.3 453.38 L9.3 454.63 L11.7 454.63 L11.7 453.38 L12.99 453.38
							 L12.99 450.99 ZM21 450.99 L16.02 450.99 L16.02 453.38 L17.31 453.38 L17.31 454.63 L19.7 454.63 L19.7
							 453.38 L21 453.38 L21 450.99 ZM29.01 450.99 L24.02 450.99 L24.02 453.38 L25.32 453.38 L25.32 454.63
							 L27.71 454.63 L27.71 453.38 L29.01 453.38 L29.01 450.99 ZM37.02 450.99 L32.03 450.99 L32.03 453.38 L33.33
							 453.38 L33.33 454.63 L35.72 454.63 L35.72 453.38 L37.02 453.38 L37.02 450.99 ZM37.02 445.22 L32.03 445.22
							 L32.03 447.61 L33.33 447.61 L33.33 448.85 L35.72 448.85 L35.72 447.61 L37.02 447.61 L37.02 445.22 ZM29.01
							 445.22 L24.02 445.22 L24.02 447.61 L25.32 447.61 L25.32 448.85 L27.71 448.85 L27.71 447.61 L29.01 447.61
							 L29.01 445.22 ZM21 445.22 L16.02 445.22 L16.02 447.61 L17.31 447.61 L17.31 448.85 L19.7 448.85 L19.7
							 447.61 L21 447.61 L21 445.22 ZM12.99 445.22 L8.01 445.22 L8.01 447.61 L9.3 447.61 L9.3 448.85 L11.7
							 448.85 L11.7 447.61 L12.99 447.61 L12.99 445.22 ZM4.98 445.22 L0 445.22 L0 447.61 L1.3 447.61 L1.3 448.85
							 L3.69 448.85 L3.69 447.61 L4.98 447.61 L4.98 445.22 Z" class="st2"/>
			</g>
			<g id="shape51-31" transform="translate(55.6646,-33.6193)">
				<path d="M5.63 450.51 L7.14 448.56 L8.86 448.55 L7.97 449.43 L9 449.43 L10.16 448.18 L9.01 446.93 L7.96 446.93 L8.85
							 447.81 L6.61 447.81 L5.08 449.79 L3.55 447.81 L1.31 447.81 L2.19 446.93 L1.15 446.93 L0 448.18 L1.15
							 449.43 L2.19 449.43 L1.3 448.55 L3.01 448.56 L4.52 450.51 L2.6 453 L1.3 453 L2.19 452.12 L1.15 452.12
							 L0 453.38 L1.15 454.63 L2.19 454.63 L1.31 453.75 L3.14 453.75 L5.08 451.23 L7.02 453.75 L8.85 453.75
							 L7.96 454.63 L9.01 454.63 L10.16 453.38 L9 452.12 L7.97 452.12 L8.86 453 L7.55 453 L5.63 450.51 Z"
						class="st2"/>
			</g>
		</g>
		<g id="shape59-34" transform="translate(742.86,226.063) rotate(90)">
			<path d="M0 454.63 L28.35 454.63" class="st3"/>
		</g>
		<g id="shape60-37" transform="translate(750.797,226.063) rotate(90)">
			<path d="M0 454.63 L28.35 454.63" class="st3"/>
		</g>
		<g id="shape61-40" transform="translate(296.17,-200.218)">
			<path d="M0 454.63 L73.42 454.63" class="st3"/>
		</g>
		<g id="shape62-43" transform="translate(824.215,254.409) rotate(90)">
			<path d="M0 454.63 L15.31 454.63" class="st3"/>
		</g>
		<g id="shape63-46" transform="translate(200.359,-185.761)">
			<path d="M87.87 440.17 L0 440.17 L0 454.63" class="st3"/>
		</g>
		<g id="shape118-49" transform="translate(393.399,-135.021)">
			<path d="M0 410.69 L0 454.63 L59.53 454.63" class="st3"/>
		</g>
		<g id="shape154-52" transform="translate(298.617,-298.013)">
		</g>
		<g id="shape156-53" transform="translate(350.834,-237.068)">
			<path d="M0 454.63 L89.34 454.63" class="st4"/>
		</g>
		<g id="shape157-56" transform="translate(-58.2147,217.41) rotate(-90)">
			<path d="M0 454.63 L28.2 454.63" class="st4"/>
		</g>
		<g id="group158-59" transform="translate(387.908,-265.414)">
			<g id="shape159-60" transform="translate(2.4999,0)">
				<path d="M0 454.63 L26.18 454.63 L26.18 410.69 L0 410.69 L0 454.63 Z" class="st5"/>
				<path d="M0 454.63 L26.18 454.63 L26.18 410.69 L0 410.69 L0 454.63" class="st3"/>
				<path d="M13.09 454.63 L13.09 410.69" class="st3"/>
			</g>
			<g id="shape160-64" transform="translate(5.09195,-3.19012)">
				<path d="M15.88 427.44 L21.66 427.44 L21.66 418.11 L15.88 418.11 L15.88 427.44 ZM6.55 421.89 L7.34 421.89 L7.34 417.91
							 L6.55 417.91 L6.55 421.89 ZM6.55 427.62 L7.34 427.62 L7.34 423.64 L6.55 423.64 L6.55 427.62 ZM4.68 421.89
							 L5.47 421.89 L5.47 417.91 L4.68 417.91 L4.68 421.89 ZM4.68 427.62 L5.47 427.62 L5.47 423.64 L4.68 423.64
							 L4.68 427.62 ZM1.87 421.89 L2.66 421.89 L2.66 417.91 L1.87 417.91 L1.87 421.89 ZM1.87 427.62 L2.66 427.62
							 L2.66 423.64 L1.87 423.64 L1.87 427.62 ZM0 421.89 L0.79 421.89 L0.79 417.91 L0 417.91 L0 421.89 ZM0
							 427.62 L0.79 427.62 L0.79 423.64 L0 423.64 L0 427.62 ZM14.88 449.15 L14.88 449.93 L21.73 449.93 L21.73
							 449.15 L14.88 449.15 ZM14.88 451.5 L14.88 452.28 L21.73 452.28 L21.73 451.5 L14.88 451.5 ZM14.88 453.85
							 L14.88 454.63 L21.73 454.63 L21.73 453.85 L14.88 453.85 ZM1.3 449.93 L8.15 449.93 L8.15 449.15 L1.3
							 449.15 L1.3 449.93 ZM1.3 452.28 L8.15 452.28 L8.15 451.5 L1.3 451.5 L1.3 452.28 ZM1.3 454.63 L8.15 454.63
							 L8.15 453.85 L1.3 453.85 L1.3 454.63 Z" class="st2"/>
			</g>
			<g id="shape161-67" transform="translate(21.5959,-31.2517)">
				<path d="M3.59 447.51 a0.48872 0.688651 -180 1 0 0.917155 0.476131 a0.48872 0.688651 -180 1 0 -0.917155 -0.476131
							 ZM3.59 449.55 a0.48872 0.688651 -180 1 0 0.903802 0.524399 a0.48872 0.688651 -180 1 0 -0.903802 -0.524399
							 ZM3.6 451.6 a0.48872 0.688651 -180 1 0 0.895475 0.55204 a0.48872 0.688651 -180 1 0 -0.895475 -0.55204
							 ZM3.6 453.66 a0.48872 0.688651 -180 1 0 0.895475 0.55204 a0.48872 0.688651 -180 1 0 -0.895475 -0.55204
							 ZM1.8 447.54 a0.48872 0.688651 -180 1 0 0.932051 0.414741 a0.48872 0.688651 -180 1 0 -0.932051 -0.414741
							 ZM1.81 449.58 a0.48872 0.688651 -180 1 0 0.921702 0.458386 a0.48872 0.688651 -180 1 0 -0.921702 -0.458386
							 ZM1.81 451.63 a0.48872 0.688651 -180 1 0 0.915192 0.483596 a0.48872 0.688651 -180 1 0 -0.915192 -0.483596
							 ZM1.81 453.69 a0.48872 0.688651 -180 1 0 0.915192 0.483596 a0.48872 0.688651 -180 1 0 -0.915192 -0.483596
							 ZM0.02 447.57 a0.489032 0.689091 -180 1 0 0.945843 0.350731 a0.489032 0.689091 -180 1 0 -0.945843 -0.350731
							 ZM0.02 449.61 a0.489032 0.689091 -180 1 0 0.938306 0.38887 a0.489032 0.689091 -180 1 0 -0.938306 -0.38887
							 ZM0.02 451.67 a0.489032 0.689091 -180 1 0 0.933529 0.411071 a0.489032 0.689091 -180 1 0 -0.933529 -0.411071
							 ZM0.02 453.73 a0.489032 0.689091 -180 1 0 0.933529 0.411071 a0.489032 0.689091 -180 1 0 -0.933529 -0.411071
							 Z" class="st5"/>
			</g>
		</g>
		<g id="shape232-70" transform="translate(-14.4567,266.882) rotate(-90)">
			<path d="M0 454.63 L49.32 454.63" class="st4"/>
		</g>
		<g id="shape233-73" transform="translate(433.084,-187.745)">
			<path d="M0 454.63 L7.09 454.63" class="st4"/>
		</g>
		<g id="shape234-76" transform="translate(-99.4961,266.882) rotate(-90)">
			<path d="M0 454.63 L49.32 454.63" class="st4"/>
		</g>
		<g id="shape235-79" transform="translate(263.005,-187.745)">
			<path d="M0 454.63 L92.13 454.63" class="st4"/>
		</g>
		<g id="shape236-82" transform="translate(138.281,-171.871)">
			<desc>Leaf switch 1</desc>
			<rect x="0" y="437.619" width="55.5591" height="17.0079" class="st6"/>
			<text x="6.66" y="448.52" class="st7">Leaf switch 1</text>		</g>
		<g id="shape238-85" transform="translate(429.966,-171.871)">
			<desc>Leaf switch 2</desc>
			<rect x="0" y="437.619" width="55.5591" height="17.0079" class="st6"/>
			<text x="6.66" y="448.52" class="st7">Leaf switch 2</text>		</g>
		<g id="shape239-88" transform="translate(287.666,-238.485)">
			<desc>Spine switch</desc>
			<rect x="0" y="437.619" width="55.5591" height="17.0079" class="st6"/>
			<text x="7.45" y="448.52" class="st7">Spine switch</text>		</g>
		<g id="shape240-91" transform="translate(408.139,-278.879)">
			<desc>Network Controller</desc>
			<rect x="0" y="437.619" width="55.5591" height="17.0079" class="st6"/>
			<text x="13.69" y="443.72" class="st7">Network <tspan x="11.37" dy="1.2em" class="st8">Controller</tspan></text>		</g>
		<g id="shape241-95" transform="translate(28.0128,-123.115)">
			<desc>NMOS Sender, S1</desc>
			<rect x="0" y="437.619" width="70.8661" height="17.0079" class="st6"/>
			<text x="6.86" y="448.52" class="st7">NMOS Sender, S1</text>		</g>
		<g id="shape243-98" transform="translate(439.603,-95.3356)">
			<desc>Network monitoring equipment, R4</desc>
			<rect x="0" y="437.619" width="87.874" height="17.0079" class="st6"/>
			<text x="10.87" y="443.72" class="st7">Network monitoring <tspan x="20" dy="1.2em" class="st8">equipment</tspan>, R4</text>		</g>
		<g id="shape244-102" transform="translate(18.375,-114.611)">
			<desc>Dest. IP address = 239.1.2.3</desc>
			<rect x="0" y="437.619" width="87.874" height="17.0079" class="st6"/>
			<text x="10.28" y="447.92" class="st9">Dest. IP address = 239.1.2.3</text>		</g>
		<g id="shape246-105" transform="translate(421.462,-76.06)">
			<desc>Dest. IP address = 234.0.0.1 (cannot be tuned using IS-05)</desc>
			<rect x="0" y="437.619" width="121.89" height="17.0079" class="st6"/>
			<text x="27.29" y="444.32" class="st9">Dest. IP address = 234.0.0.1 <tspan x="25.15" dy="1.2em" class="st8">(</tspan>cannot be tuned using IS-05)</text>		</g>
		<g id="group252-109" transform="translate(368.737,-365.761)">
			<g id="shape253-110" transform="translate(0,-4.72617)">
				<path d="M48.01 437.22 L48.01 443.21 L51.62 443.21 L55.04 447.49 L70.87 447.49 L70.87 393.21 L48.01 393.21 L48.01
							 401 L57.81 401 L57.81 437.22 L48.01 437.22 ZM57.81 401 L3.53 401 L3.53 437.22 L57.81 437.22 L57.81 401
							 ZM60.73 454.63 L51.62 443.21 L9.11 443.21 L0 454.63 L60.73 454.63 ZM35.14 437.22 L25.59 437.22 L25.59
							 443.21 L35.14 443.21 L35.14 437.22 Z" class="st10"/>
			</g>
			<g id="shape254-112" transform="translate(7.05282,-25.393)">
				<path d="M47.32 425.26 L0 425.26 L0 454.63 L47.32 454.63 L47.32 425.26 Z" class="st10"/>
			</g>
			<g id="shape255-114" transform="translate(8.26528,-7.08364)">
				<path d="M53.45 401.65 L58.34 401.65 L58.34 399.74 L53.45 399.74 L53.45 401.65 ZM53.45 405.05 L58.34 405.05 L58.34
							 403.14 L53.45 403.14 L53.45 405.05 ZM41.47 450.2 L38.77 450.2 L40.28 451.88 L43.19 451.88 L41.47 450.2
							 ZM38.42 447.22 L36.1 447.22 L37.72 449.02 L40.27 449.02 L38.42 447.22 ZM37.32 450.2 L34.62 450.2 L35.81
							 451.88 L38.72 451.88 L37.32 450.2 ZM34.84 447.22 L32.52 447.22 L33.79 449.02 L36.35 449.02 L34.84 447.22
							 ZM33.17 450.2 L30.47 450.2 L31.33 451.88 L34.24 451.88 L33.17 450.2 ZM31.27 447.22 L28.95 447.22 L29.88
							 449.06 L32.44 449.06 L31.27 447.22 ZM29.02 450.2 L26.32 450.2 L26.86 451.88 L29.77 451.88 L29.02 450.2
							 ZM27.75 447.34 L25.4 447.34 L25.95 449.06 L28.51 449.06 L27.75 447.34 ZM24.87 450.2 L22.17 450.2 L22.38
							 451.88 L25.29 451.88 L24.87 450.2 ZM24.18 447.49 L21.82 447.49 L22.04 449.17 L24.61 449.17 L24.18 447.49
							 ZM20.55 447.49 L18.19 447.49 L18.08 449.17 L20.65 449.17 L20.55 447.49 ZM20.71 450.2 L18.01 450.2 L17.9
							 451.88 L20.81 451.88 L20.71 450.2 ZM16.93 447.49 L14.57 447.49 L14.13 449.17 L16.7 449.17 L16.93 447.49
							 ZM16.56 450.2 L13.86 450.2 L13.43 451.88 L16.34 451.88 L16.56 450.2 ZM31.37 452.95 L12.32 452.95 L11.83
							 454.63 L32.19 454.63 L31.37 452.95 ZM13.3 447.49 L10.94 447.49 L10.18 449.17 L12.75 449.17 L13.3 447.49
							 ZM12.41 450.2 L9.71 450.2 L8.95 451.88 L11.86 451.88 L12.41 450.2 ZM9.67 447.49 L7.31 447.49 L6.22 449.17
							 L8.79 449.17 L9.67 447.49 ZM8.26 450.2 L5.56 450.2 L4.48 451.88 L7.39 451.88 L8.26 450.2 ZM6.04 447.49
							 L3.68 447.49 L2.27 449.17 L4.84 449.17 L6.04 447.49 ZM4.11 450.2 L1.41 450.2 L0 451.88 L2.91 451.88
							 L4.11 450.2 Z" class="st2"/>
			</g>
		</g>
		<g id="shape256-117" transform="translate(-51.5779,132.529) rotate(-89.5724)">
			<path d="M0 454.63 L17.01 443.29 L17.01 448.96 L37.99 448.96 L37.99 454.63 L37.99 460.3 L17.01 460.3 L17.01 465.97 L0
						 454.63 Z" class="st11"/>
		</g>
		<g id="shape257-119" transform="translate(433.367,-393.54)">
			<desc>Broadcast Controller</desc>
			<rect x="0" y="437.619" width="55.5591" height="17.0079" class="st6"/>
			<text x="11.57" y="443.72" class="st7">Broadcast <tspan x="11.37" dy="1.2em" class="st8">Controller</tspan></text>		</g>
		<g id="shape261-123" transform="translate(408.422,-331.178)">
			<desc>IS-06</desc>
			<rect x="0" y="437.619" width="55.5591" height="17.0079" class="st6"/>
			<text x="19.65" y="448.52" class="st7">IS-06</text>		</g>
		<g id="group264-126" transform="translate(168.328,-99.3041) scale(-1,1)">
			<g id="shape265-127" transform="translate(13.9504,-45.5452)">
				<path d="M23.59 449.19 L22.93 446.97 L1.42 446.97 L0 454.63 L2.13 454.63 L3.16 449.06 L21.37 449.06 L23.04 454.63
							 L25.22 454.63 L24.25 451.37 L33.11 451.37 L33.11 449.19 L23.59 449.19 Z" class="st12"/>
			</g>
			<g id="shape266-129" transform="translate(0,-17.5408)">
				<path d="M53.2 434.55 C52.6 434.55 51.76 434.19 51.35 433.76 L45.22 427.41 C44.81 426.98 43.98 426.62 43.38 426.62
							 L7.07 426.62 C6.47 426.62 5.98 427.11 5.98 427.71 L5.98 428.46 C5.98 429.06 5.49 429.55 4.89 429.55
							 L1.09 429.55 C0.49 429.55 0 430.04 0 430.64 L0 443.35 C0 443.95 0.49 444.44 1.09 444.44 L4.34 444.44
							 C4.94 444.44 5.43 444.94 5.43 445.53 L5.43 450.04 C5.43 450.64 5.92 451.13 6.52 451.13 L49.03 451.13
							 C49.63 451.13 50.32 450.68 50.57 450.13 L51.62 447.76 C51.86 447.22 52.55 446.77 53.15 446.77 L56.19
							 446.77 C56.79 446.77 57.7 447.02 58.21 447.33 L69.93 454.32 C70.44 454.63 70.87 454.39 70.87 453.79
							 L70.87 428.98 C70.87 428.38 70.42 428.11 69.88 428.37 L58.1 434.07 C57.56 434.33 56.63 434.55 56.03
							 434.55 L53.2 434.55 Z" class="st12"/>
			</g>
			<g id="shape267-131" transform="translate(39.9362,-36.7701)">
				<path d="M4.16 452.55 A2.07949 2.07949 -180 1 0 0 452.55 A2.07949 2.07949 -180 1 0 4.16 452.55 ZM24.57 441.5 C24.57
							 439.61 23.04 438.07 21.14 438.07 L9.14 438.07 C7.24 438.07 5.7 439.61 5.7 441.5 C5.7 443.4 7.24 444.93
							 9.14 444.93 L21.14 444.93 C23.04 444.93 24.57 443.4 24.57 441.5 Z" class="st12"/>
			</g>
			<g id="shape268-133" transform="translate(13.5163,-34.9559)">
				<path d="M12.72 454.63 L23.41 454.63 L23.41 448.63 L12.72 448.63 L12.72 454.63 ZM9.73 451.37 A1.04883 1.04883 -180
							 1 0 7.63 451.37 A1.04883 1.04883 -180 1 0 9.73 451.37 ZM5.91 451.37 A1.0481 1.0481 -180 1 0 3.82 451.37
							 A1.0481 1.0481 -180 1 0 5.91 451.37 ZM2.1 451.37 A1.04883 1.04883 -180 1 0 -0 451.37 A1.04883 1.04883
							 -180 1 0 2.1 451.37 Z" class="st2"/>
			</g>
		</g>
		<g id="group269-136" transform="translate(230.69,-67.9767)">
			<g id="shape270-137" transform="translate(0,-34.5872)">
				<path d="M0 448.6 A6.02362 6.02362 0 0 1 12.05 448.6 A6.02362 6.02362 0 1 1 0 448.6 Z" class="st13"/>
			</g>
			<g id="shape271-139" transform="translate(9.93898,873.112) rotate(180)">
				<path d="M0 454.63 L7.83 454.63 L5.38 418.49 L2.45 418.49 L0 454.63 Z" class="st13"/>
			</g>
		</g>
		<g id="shape272-141" transform="translate(168.328,-134.737)">
			<path d="M32.31 409.84 L32.31 454.63 L0 454.63" class="st3"/>
		</g>
		<g id="group273-144" transform="translate(176.265,-56.7844) scale(-1,1)">
			<g id="shape274-145" transform="translate(13.9504,-45.5452)">
				<path d="M23.59 449.19 L22.93 446.97 L1.42 446.97 L0 454.63 L2.13 454.63 L3.16 449.06 L21.37 449.06 L23.04 454.63
							 L25.22 454.63 L24.25 451.37 L33.11 451.37 L33.11 449.19 L23.59 449.19 Z" class="st12"/>
			</g>
			<g id="shape275-147" transform="translate(0,-17.5408)">
				<path d="M53.2 434.55 C52.6 434.55 51.76 434.19 51.35 433.76 L45.22 427.41 C44.81 426.98 43.98 426.62 43.38 426.62
							 L7.07 426.62 C6.47 426.62 5.98 427.11 5.98 427.71 L5.98 428.46 C5.98 429.06 5.49 429.55 4.89 429.55
							 L1.09 429.55 C0.49 429.55 0 430.04 0 430.64 L0 443.35 C0 443.95 0.49 444.44 1.09 444.44 L4.34 444.44
							 C4.94 444.44 5.43 444.94 5.43 445.53 L5.43 450.04 C5.43 450.64 5.92 451.13 6.52 451.13 L49.03 451.13
							 C49.63 451.13 50.32 450.68 50.57 450.13 L51.62 447.76 C51.86 447.22 52.55 446.77 53.15 446.77 L56.19
							 446.77 C56.79 446.77 57.7 447.02 58.21 447.33 L69.93 454.32 C70.44 454.63 70.87 454.39 70.87 453.79
							 L70.87 428.98 C70.87 428.38 70.42 428.11 69.88 428.37 L58.1 434.07 C57.56 434.33 56.63 434.55 56.03
							 434.55 L53.2 434.55 Z" class="st12"/>
			</g>
			<g id="shape276-149" transform="translate(39.9362,-36.7701)">
				<path d="M4.16 452.55 A2.07949 2.07949 -180 1 0 0 452.55 A2.07949 2.07949 -180 1 0 4.16 452.55 ZM24.57 441.5 C24.57
							 439.61 23.04 438.07 21.14 438.07 L9.14 438.07 C7.24 438.07 5.7 439.61 5.7 441.5 C5.7 443.4 7.24 444.93
							 9.14 444.93 L21.14 444.93 C23.04 444.93 24.57 443.4 24.57 441.5 Z" class="st12"/>
			</g>
			<g id="shape277-151" transform="translate(13.5163,-34.9559)">
				<path d="M12.72 454.63 L23.41 454.63 L23.41 448.63 L12.72 448.63 L12.72 454.63 ZM9.73 451.37 A1.04883 1.04883 -180
							 1 0 7.63 451.37 A1.04883 1.04883 -180 1 0 9.73 451.37 ZM5.91 451.37 A1.0481 1.0481 -180 1 0 3.82 451.37
							 A1.0481 1.0481 -180 1 0 5.91 451.37 ZM2.1 451.37 A1.04883 1.04883 -180 1 0 -0 451.37 A1.04883 1.04883
							 -180 1 0 2.1 451.37 Z" class="st2"/>
			</g>
		</g>
		<g id="shape278-154" transform="translate(176.265,-92.2175)">
			<path d="M32.31 367.32 L32.31 454.63 L0 454.63" class="st3"/>
		</g>
		<g id="shape279-157" transform="translate(671.144,275.102) rotate(90)">
			<path d="M87.31 438.33 L87.31 454.63 L0 454.63" class="st3"/>
		</g>
		<g id="group280-160" transform="translate(244.863,-99.3041)">
			<g id="shape281-161" transform="translate(0,-18.7101)">
				<path d="M65.5 454.63 L66.92 451.79 L4.05 451.79 L5.47 454.63 L65.5 454.63 ZM70.87 428.28 C70.87 424.36 67.62 421.18
							 63.77 421.18 L6.98 421.18 C3.13 421.18 0 424.36 0 428.28 L0 450.11 L70.87 450.11 L70.87 428.28 Z"
						class="st12"/>
			</g>
			<g id="shape282-163" transform="translate(6.45064,-30.8286)">
				<path d="M0 454.63 L31.07 454.63 L31.07 452.72 L0 452.72 L0 454.63 ZM0 448.09 L31.07 448.09 L31.07 446.18 L0 446.18
							 L0 448.09 ZM54.35 447.79 A4.96935 4.96935 -180 1 0 44.41 447.79 A4.96935 4.96935 -180 1 0 54.35 447.79
							 Z" class="st12"/>
			</g>
			<g id="shape283-165" transform="translate(46.7891,-28.6241)">
				<path d="M16.68 445.59 A7.64337 7.64337 0 1 1 1.4 445.59 A7.64337 7.64337 0 1 1 16.68 445.59 ZM18.08 445.59 A9.03888
							 9.03888 -180 1 0 0 445.59 A9.03888 9.03888 -180 1 0 18.08 445.59 Z" class="st2"/>
			</g>
		</g>
		<g id="shape284-168" transform="translate(679.081,275.102) rotate(90)">
			<path d="M44.79 434.22 L44.79 454.63 L0 454.63" class="st3"/>
		</g>
		<g id="shape285-171" transform="translate(103.414,-56.7844)">
			<desc>NMOS Sender, S2</desc>
			<rect x="0" y="437.619" width="70.8661" height="17.0079" class="st6"/>
			<text x="6.86" y="448.52" class="st7">NMOS Sender, S2</text>		</g>
		<g id="shape286-174" transform="translate(202.06,-49.4144)">
			<desc>NMOS Sender, S3</desc>
			<rect x="0" y="437.619" width="70.8661" height="17.0079" class="st6"/>
			<text x="6.86" y="448.52" class="st7">NMOS Sender, S3</text>		</g>
		<g id="shape287-177" transform="translate(247.981,-98.7372)">
			<desc>NMOS Sender, S4</desc>
			<rect x="0" y="437.619" width="70.8661" height="17.0079" class="st6"/>
			<text x="6.86" y="448.52" class="st7">NMOS Sender, S4</text>		</g>
		<g id="shape288-180" transform="translate(95.4774,-47.7136)">
			<desc>Dest. IP address = 239.1.2.4</desc>
			<rect x="0" y="437.619" width="87.874" height="17.0079" class="st6"/>
			<text x="10.28" y="447.92" class="st9">Dest. IP address = 239.1.2.4</text>		</g>
		<g id="shape289-183" transform="translate(191.855,-40.9104)">
			<desc>Dest. IP address = 238.1.2.3</desc>
			<rect x="0" y="437.619" width="87.874" height="17.0079" class="st6"/>
			<text x="10.28" y="447.92" class="st9">Dest. IP address = 238.1.2.3</text>		</g>
		<g id="shape290-186" transform="translate(239.477,-89.6663)">
			<desc>Dest. IP address = 237.1.1.1</desc>
			<rect x="0" y="437.619" width="87.874" height="17.0079" class="st6"/>
			<text x="10.28" y="447.92" class="st9">Dest. IP address = 237.1.1.1</text>		</g>
		<g id="group291-189" transform="translate(448.107,-118.013)">
			<g id="shape292-190" transform="translate(5.68158,0)">
				<path d="M0 454.63 L59.5 454.63 L59.5 407 L0 407 L0 454.63 Z" class="st14"/>
				<path d="M0 454.63 L59.5 454.63 L59.5 407 L0 407 L0 454.63" class="st3"/>
				<path d="M29.75 454.63 L29.75 407" class="st3"/>
			</g>
			<g id="shape293-194" transform="translate(11.5726,-3.45768)">
				<path d="M36.09 425.16 L49.23 425.16 L49.23 415.05 L36.09 415.05 L36.09 425.16 ZM14.89 419.14 L16.68 419.14 L16.68
							 414.84 L14.89 414.84 L14.89 419.14 ZM14.89 425.35 L16.68 425.35 L16.68 421.04 L14.89 421.04 L14.89 425.35
							 ZM10.63 419.14 L12.43 419.14 L12.43 414.84 L10.63 414.84 L10.63 419.14 ZM10.63 425.35 L12.43 425.35
							 L12.43 421.04 L10.63 421.04 L10.63 425.35 ZM4.25 419.14 L6.05 419.14 L6.05 414.84 L4.25 414.84 L4.25
							 419.14 ZM4.25 425.35 L6.05 425.35 L6.05 421.04 L4.25 421.04 L4.25 425.35 ZM0 419.14 L1.79 419.14 L1.79
							 414.84 L0 414.84 L0 419.14 ZM0 425.35 L1.79 425.35 L1.79 421.04 L0 421.04 L0 425.35 ZM33.82 448.69 L33.82
							 449.53 L49.39 449.53 L49.39 448.69 L33.82 448.69 ZM33.82 451.24 L33.82 452.08 L49.39 452.08 L49.39 451.24
							 L33.82 451.24 ZM33.82 453.79 L33.82 454.63 L49.39 454.63 L49.39 453.79 L33.82 453.79 ZM2.96 449.53 L18.52
							 449.53 L18.52 448.69 L2.95 448.69 L2.96 449.53 ZM2.96 452.08 L18.52 452.08 L18.52 451.24 L2.95 451.24
							 L2.96 452.08 ZM2.96 454.63 L18.52 454.63 L18.52 453.79 L2.95 453.79 L2.96 454.63 Z" class="st2"/>
			</g>
			<g id="shape294-197" transform="translate(49.0815,-33.8728)">
				<path d="M8.15 446.91 a1.11073 0.746409 -180 1 0 2.08444 0.516064 a1.11073 0.746409 -180 1 0 -2.08444 -0.516064 ZM8.17
							 449.12 a1.11073 0.746409 -180 1 0 2.0541 0.56838 a1.11073 0.746409 -180 1 0 -2.0541 -0.56838 ZM8.18
							 451.34 a1.11073 0.746409 -180 1 0 2.03517 0.59834 a1.11073 0.746409 -180 1 0 -2.03517 -0.59834 ZM8.18
							 453.58 a1.11073 0.746409 -180 1 0 2.03517 0.59834 a1.11073 0.746409 -180 1 0 -2.03517 -0.59834 ZM4.1
							 446.94 a1.11073 0.746409 -180 1 0 2.1183 0.449525 a1.11073 0.746409 -180 1 0 -2.1183 -0.449525 ZM4.11
							 449.16 a1.11073 0.746409 -180 1 0 2.09478 0.496832 a1.11073 0.746409 -180 1 0 -2.09478 -0.496832 ZM4.11
							 451.38 a1.11073 0.746409 -180 1 0 2.07998 0.524156 a1.11073 0.746409 -180 1 0 -2.07998 -0.524156 ZM4.11
							 453.61 a1.11073 0.746409 -180 1 0 2.07998 0.524156 a1.11073 0.746409 -180 1 0 -2.07998 -0.524156 ZM0.04
							 446.98 a1.11144 0.746885 -180 1 0 2.14964 0.380147 a1.11144 0.746885 -180 1 0 -2.14964 -0.380147 ZM0.05
							 449.19 a1.11144 0.746885 -180 1 0 2.13251 0.421485 a1.11144 0.746885 -180 1 0 -2.13251 -0.421485 ZM0.05
							 451.42 a1.11144 0.746885 -180 1 0 2.12166 0.445548 a1.11144 0.746885 -180 1 0 -2.12166 -0.445548 ZM0.05
							 453.65 a1.11144 0.746885 -180 1 0 2.12166 0.445548 a1.11144 0.746885 -180 1 0 -2.12166 -0.445548 Z"
						class="st15"/>
			</g>
		</g>
		<g id="shape258-200" transform="translate(180.517,-286.674)">
			<desc>2. Broadcast Controller makes IS-06 request to Network Contro...</desc>
			<path d="M0 454.63 L162.14 454.63 L162.14 395.1 L0 395.1 L0 454.63 Z" class="st14"/>
			<path d="M162.14 410.83 L210.05 402.54" class="st3"/>
			<path d="M0 454.63 L162.14 454.63 L162.14 395.1 L0 395.1 L0 454.63" class="st3"/>
			<text x="4" y="409.86" class="st16">2. Broadcast Controller makes IS-06 <tspan x="4" dy="1.2em" class="st8">request to Network Controller to set </tspan><tspan
						x="4" dy="1.2em" class="st8">up NAT policy to translate any dest</tspan>. <tspan x="4" dy="1.2em"
						class="st8">IP address to </tspan>234.0.0.1 </text>		</g>
		<g id="shape260-208" transform="translate(130.627,-380.076)">
			<desc>1. Broadcast controller operator wishes Receiver, R4, to rece...</desc>
			<path d="M0 454.63 L206.36 454.63 L206.36 407.86 L0 407.86 L0 454.63 Z" class="st14"/>
			<path d="M206.36 431.59 L235.84 431.69" class="st3"/>
			<path d="M0 454.63 L206.36 454.63 L206.36 407.86 L0 407.86 L0 454.63" class="st3"/>
			<text x="4" y="422.24" class="st16">1. Broadcast controller operator wishes <tspan x="4" dy="1.2em" class="st8">Receiver</tspan>, R4, to receive all streams on network <tspan
						x="4" dy="1.2em" class="st8">for monitoring purposes</tspan></text>		</g>
		<g id="shape259-215" transform="translate(453.21,-208.58)">
			<desc>3. Network Controller creates appropriate NAT policy on netwo...</desc>
			<path d="M0 454.63 L162.14 454.63 L162.14 395.1 L0 395.1 L0 454.63 Z" class="st14"/>
			<path d="M0 395.1 L-30.05 392.12" class="st3"/>
			<path d="M0 454.63 L162.14 454.63 L162.14 395.1 L0 395.1 L0 454.63" class="st3"/>
			<text x="20.9" y="409.86" class="st16">3. Network Controller creates <tspan x="9.67" dy="1.2em" class="st8">appropriate NAT policy on network </tspan><tspan
						x="11.14" dy="1.2em" class="st8">(</tspan>e.g. on Leaf switch 2’s egress port <tspan x="36" dy="1.2em"
						class="st8">that is attached to R</tspan>4)</text>		</g>
		<g id="shape295-223" transform="translate(304.674,-18.375)">
			<desc>4. R4 receives streams from S1, S2, S3 and S4, all now with t...</desc>
			<path d="M0 454.63 L162.14 454.63 L162.14 407.86 L0 407.86 L0 454.63 Z" class="st14"/>
			<path d="M99.44 407.86 L141.78 353.95" class="st3"/>
			<path d="M0 454.63 L162.14 454.63 L162.14 407.86 L0 407.86 L0 454.63" class="st3"/>
			<text x="4.34" y="422.24" class="st16">4. R4 receives streams from S1, S2, S3 <tspan x="7.27" dy="1.2em" class="st8">and S</tspan>4, all now with translated dest. <tspan
						x="40.18" dy="1.2em" class="st8">IP address </tspan>234.0.0.1</text>		</g>
	</g>
</svg>
